<?xml version="1.0" standalone="no"?><!DOCTYPE svg PUBLIC "-//W3C//DTD SVG 1.1//EN" "http://www.w3.org/Graphics/SVG/1.1/DTD/svg11.dtd"><svg t="1563422998967" class="icon" viewBox="0 0 1024 1024" version="1.1" xmlns="http://www.w3.org/2000/svg" p-id="3547" xmlns:xlink="http://www.w3.org/1999/xlink" width="200" height="200"><defs><style type="text/css"></style></defs><path d="M512 512m-447.2 0a447.2 447.2 0 1 0 894.4 0 447.2 447.2 0 1 0-894.4 0Z" fill="#FFEB0A" p-id="3548"></path><path d="M711 543H313c-17.1 0-31-13.9-31-31s13.9-31 31-31h398c17.1 0 31 13.9 31 31s-13.9 31-31 31z" fill="#282826" p-id="3549"></path><path d="M543 313v398c0 17.1-13.9 31-31 31s-31-13.9-31-31V313c0-17.1 13.9-31 31-31s31 13.9 31 31z" fill="#282826" p-id="3550"></path></svg>