<?xml version="1.0" standalone="no"?><!DOCTYPE svg PUBLIC "-//W3C//DTD SVG 1.1//EN" "http://www.w3.org/Graphics/SVG/1.1/DTD/svg11.dtd"><svg t="1554349493424" class="icon" style="" viewBox="0 0 1024 1024" version="1.1" xmlns="http://www.w3.org/2000/svg" p-id="2652" xmlns:xlink="http://www.w3.org/1999/xlink" width="200" height="200"><defs><style type="text/css"></style></defs><path d="M511.6 955.4c-21.6 0-41.4-9.7-54.5-26.7l-232.5-303c-3.5-4-5.8-7.9-7.3-10.4-41.4-58.1-63.5-126.7-63.5-198.2 0.9-192.2 161.7-348.5 358.5-348.5C709.6 68.6 870 224.9 870 417.1c-0.8 71.7-22.9 139.8-63.9 197.6-1.9 3.3-4.3 7.1-7.7 11l-232.3 303c-13 17-32.9 26.7-54.5 26.7zM275.3 580c0.9 1 1.8 2 2.6 3l233.4 304.2 234-304.2c0.4-0.6 0.9-1.1 1.3-1.7l2.5-4.1c0.3-0.4 0.6-0.9 0.9-1.3 33.3-46.6 51.2-101.7 51.9-159.3 0-154.1-129.9-279.9-289.5-279.9-159.4 0-289.6 125.8-290.3 280.4 0 57 17.7 112 51.1 158.7l2.9 4.5c0.4 1-0.2 0.3-0.8-0.3z m472.5 0.1z m0.1 0z m0-0.1z" fill="#B7B7B7" p-id="2653"></path><path d="M515.6 576.7c-92.2 2-167.6-73.4-165.6-165.6 1.9-86.3 72.1-156.4 158.3-158.3 92.2-2 167.6 73.4 165.6 165.6-1.8 86.2-72 156.4-158.3 158.3z m0-238.6c-45.2-2.1-82.3 35.1-80.3 80.3 1.8 39.4 33.7 71.3 73.1 73.1 45.2 2.1 82.3-35.1 80.3-80.3-1.8-39.5-33.7-71.3-73.1-73.1z" fill="#B7B7B7" p-id="2654"></path></svg>