<?xml version="1.0" standalone="no"?><!DOCTYPE svg PUBLIC "-//W3C//DTD SVG 1.1//EN" "http://www.w3.org/Graphics/SVG/1.1/DTD/svg11.dtd"><svg t="1558751384870" class="icon" style="" viewBox="0 0 1024 1024" version="1.1" xmlns="http://www.w3.org/2000/svg" p-id="3440" xmlns:xlink="http://www.w3.org/1999/xlink" width="200" height="200"><defs><style type="text/css"></style></defs><path d="M824 1012H200c-33.4 0-65.8-13.8-88.6-38-22.9-24.2-35-57.2-33.2-90.5L108.3 334c2.9-52.8 46.6-94.2 99.5-94.2h606.6c52.6 0 96.3 41.2 99.5 93.8l32 549.6c2 33.3-10.1 66.3-33 90.7-23.1 24.2-55.4 38.1-88.9 38.1zM207.8 327.7c-6.2 0-11.3 4.8-11.6 11.1L166 888.3c-0.5 9.5 2.7 18.4 9.1 25.2 6.5 6.8 15.3 10.7 24.8 10.7H824c9.5 0 18.3-3.8 24.8-10.8 6.4-6.8 9.7-15.8 9.1-25.1l-32-549.6c-0.3-6.2-5.4-11-11.6-11H207.8z" fill="#FFA333" p-id="3441"></path><path d="M706.3 466c-24.2 0-43.9-19.7-43.9-44V250.3c0-82.9-67.5-150.3-150.3-150.3-82.9 0-150.4 67.4-150.4 150.3v171.8c0 24.3-19.7 44-43.9 44s-43.9-19.7-43.9-44V250.3C273.8 118.9 380.6 12 512.1 12c131.3 0 238.2 106.9 238.2 238.3v171.8c-0.1 24.3-19.8 43.9-44 43.9z" fill="#FFA333" p-id="3442"></path></svg>