<?xml version="1.0" standalone="no"?><!DOCTYPE svg PUBLIC "-//W3C//DTD SVG 1.1//EN" "http://www.w3.org/Graphics/SVG/1.1/DTD/svg11.dtd"><svg t="1555121439763" class="icon" style="" viewBox="0 0 1024 1024" version="1.1" xmlns="http://www.w3.org/2000/svg" p-id="2483" xmlns:xlink="http://www.w3.org/1999/xlink" width="200" height="200"><defs><style type="text/css"></style></defs><path d="M512 969c-61.7 0-121.5-12.1-177.9-35.9-54.4-23-103.3-56-145.3-97.9s-74.9-90.8-97.9-145.3C67.1 633.5 55 573.7 55 512s12.1-121.5 35.9-177.9c23-54.4 56-103.3 97.9-145.3 42-42 90.8-74.9 145.3-97.9C390.5 67.1 450.3 55 512 55s121.5 12.1 177.9 35.9c54.4 23 103.3 56 145.3 97.9 42 42 74.9 90.8 97.9 145.3C956.9 390.5 969 450.3 969 512s-12.1 121.5-35.9 177.9c-23 54.4-56 103.3-97.9 145.3-42 42-90.8 74.9-145.3 97.9C633.5 956.9 573.7 969 512 969z m0-900c-59.8 0-117.8 11.7-172.4 34.8-52.8 22.3-100.1 54.3-140.8 94.9-40.7 40.7-72.6 88.1-94.9 140.8C80.7 394.2 69 452.2 69 512s11.7 117.8 34.8 172.4c22.3 52.8 54.3 100.1 94.9 140.8 40.7 40.7 88.1 72.6 140.8 94.9C394.2 943.3 452.2 955 512 955s117.8-11.7 172.4-34.8c52.8-22.3 100.1-54.3 140.8-94.9s72.6-88.1 94.9-140.8C943.3 629.8 955 571.8 955 512s-11.7-117.8-34.8-172.4c-22.3-52.8-54.3-100.1-94.9-140.8-40.7-40.7-88.1-72.6-140.8-94.9C629.8 80.7 571.8 69 512 69z" fill="#C7C7C7" p-id="2484"></path><path d="M768.8 494.3L604.4 330c-9.8-9.8-25.6-9.8-35.4 0-9.8 9.8-9.8 25.6 0 35.4l119.2 119.2H275.4c-15.2 0-27.5 12.3-27.5 27.5s12.3 27.5 27.5 27.5h412.8L569.1 658.7c-9.8 9.8-9.8 25.6 0 35.4 9.8 9.8 25.6 9.8 35.4 0l164.3-164.3c9.7-9.9 9.7-25.7 0-35.5z" fill="#353534" p-id="2485"></path></svg>