<?xml version="1.0" encoding="UTF-8"?>
<svg width="218px" height="218px" viewBox="0 0 218 218" version="1.1" xmlns="http://www.w3.org/2000/svg" xmlns:xlink="http://www.w3.org/1999/xlink">
    <!-- Generator: Sketch 55.2 (78181) - https://sketchapp.com -->
    <title>编组 4</title>
    <desc>Created with Sketch.</desc>
    <g id="页面1" stroke="none" stroke-width="1" fill="none" fill-rule="evenodd">
        <g id="v1.0_我的_开通刷脸" transform="translate(-79.000000, -199.000000)">
            <g id="编组-4" transform="translate(79.000000, 199.000000)">
                <circle id="椭圆形" fill="#EBF8FF" cx="109" cy="109" r="109"></circle>
                <path d="M52.4419667,16.3888396 C39.5017494,24.3084627 28.3336952,34.8742621 19.7027184,47.3525954 L18.8802835,46.783736 C27.5792371,34.2071246 38.8317642,23.5558024 51.8694435,15.5668339 C51.6330529,15.0954422 51.5,14.5632592 51.5,14 C51.5,12.0670034 53.0670034,10.5 55,10.5 C56.9329966,10.5 58.5,12.0670034 58.5,14 C58.5,15.9329966 56.9329966,17.5 55,17.5 C53.9904648,17.5 53.0807579,17.0725841 52.4419667,16.3888396 Z M55,16.5 C56.3807119,16.5 57.5,15.3807119 57.5,14 C57.5,12.6192881 56.3807119,11.5 55,11.5 C53.6192881,11.5 52.5,12.6192881 52.5,14 C52.5,15.3807119 53.6192881,16.5 55,16.5 Z" id="形状结合" fill="#9AE9D8" fill-rule="nonzero"></path>
                <path d="M193.561683,175.88884 C180.621466,183.808463 169.453412,194.374262 160.822435,206.852595 L160,206.283736 C168.698954,193.707125 179.951481,183.055802 192.98916,175.066834 C192.752769,174.595442 192.619716,174.063259 192.619716,173.5 C192.619716,171.567003 194.18672,170 196.119716,170 C198.052713,170 199.619716,171.567003 199.619716,173.5 C199.619716,175.432997 198.052713,177 196.119716,177 C195.110181,177 194.200474,176.572584 193.561683,175.88884 Z M196.119716,176 C197.500428,176 198.619716,174.880712 198.619716,173.5 C198.619716,172.119288 197.500428,171 196.119716,171 C194.739005,171 193.619716,172.119288 193.619716,173.5 C193.619716,174.880712 194.739005,176 196.119716,176 Z" id="形状结合备份" fill="#9AE9D8" fill-rule="nonzero" transform="translate(179.809858, 188.426298) scale(-1, -1) translate(-179.809858, -188.426298) "></path>
            </g>
        </g>
    </g>
</svg>