<?xml version="1.0" encoding="utf-8"?>
<!-- Generator: Adobe Illustrator 23.0.1, SVG Export Plug-In . SVG Version: 6.00 Build 0)  -->
<svg version="1.1" id="图层_1" xmlns="http://www.w3.org/2000/svg" xmlns:xlink="http://www.w3.org/1999/xlink" x="0px" y="0px"
	 viewBox="0 0 285 34" style="enable-background:new 0 0 285 34;" xml:space="preserve">
<style type="text/css">
	.st0{fill:#FFFFFF;}
	.st1{fill-rule:evenodd;clip-rule:evenodd;fill:#FFFFFF;}
</style>
<title>文字-使用钱包余额支付</title>
<desc>Created with Sketch.</desc>
<g id="页面1">
	<g id="v1.04支付成功" transform="translate(-45.000000, -113.000000)">
		<g id="文字-使用钱包余额支付" transform="translate(45.000000, 113.000000)">
			<path id="形状结合" class="st0" d="M25,0.1l-1.3,2.4h5c2.1,0,3.8,1.6,3.9,3.7l0,0.2h-9.2v2.2h8.3v6.5c0,3.2-1.5,4.8-4.5,4.8
				h-3.8c-0.4,2.5-1.2,4.6-2.4,6.2c1.2,0.7,3.2,1.6,6.2,2.3c0.8,0.2,2,0.4,3.7,0.7v3.6c-5.2-1-9.5-2.4-12.7-4
				c-2,1.3-4.8,2.6-8.5,3.8v-3.5c2.2-0.7,3.8-1.6,5.1-2.6c-1.6-1.4-2.9-3.1-4.4-5.3h5c0.6,0.8,1.3,1.5,2,2.2c0.5-1,1-2.2,1.3-3.5
				h-8.2V8.7h8.2V6.5h-8.3V2.6h8.3L20,0.1H25z M27.4,11.9h-4v4.8h2.3c1.2,0,1.7-0.5,1.7-1.6V11.9z M18.7,11.9h-4.2v4.8h4.2V11.9z"/>
			<path id="路径" class="st0" d="M3.1,32.6V12.9c-0.9,0.5-2,0.9-3.1,1.2v-3C2.8,9.2,4.6,5.6,5.5,0.3h5C9.7,3.6,8.9,6.2,7.8,8
				v24.6H3.1z"/>
			<path class="st0" d="M64.4,0.1c1.7,0,3,1.3,3,3v24.4c0,3.3-1.6,5-4.8,4.9H59v-3.6h1.3c1.2,0.1,1.8-0.6,1.8-1.9v-5.3h-6.2v10.3
				h-5.3V21.6h-6.3c0,3.4-0.6,6.9-2,10.5l-5.1-2.5c0.9-1,1.1-2.2,1.4-3.2c0.3-1.1,0.5-2.6,0.5-4.6V0.1H64.4z M62.1,12.6h-6.2v5h4.2
				c1.1,0,2-0.9,2-2V12.6z M50.5,12.6h-6.3v5h6.3V12.6z M50.5,3.7h-6.3v4.7h6.3V3.7z M62.1,3.7h-6.2v4.7h4.2c1.1,0,2-0.9,2-2V3.7z"
				/>
			<path class="st0" d="M72.1,9.3V5.6c2.2-1.3,3.4-2.4,3.7-5.4h4.3c-0.1,1.1-0.7,2.3-1,3h5.1v3.4h-7.1C76,7.8,74.6,8.7,72.1,9.3z"/>
			<path class="st0" d="M72.6,13V9.7h11.6V13h-3.3v4.4h3.6v3.3h-3.6v5.9c0.9-0.2,2.1-0.7,3.6-1.5v3.5c-2.3,1.7-5.2,2.9-8.6,3.8V20.7
				h-3.3v-3.3h3.3V13H72.6z"/>
			<path class="st0" d="M93.7,0c0,1.4,0.1,2.8,0.1,4l6.7,0V0c2.1,0,3.9,1.7,4,3.8l0,0.2v4L94,8c0.1,1.7,0.2,3,0.3,4l10.2,0v4l-9.5,0
				c0.5,2,1.2,3.4,1.6,4.1c0.1,0.2,0.3,0.5,0.5,0.7c1.2-1.3,2-2.5,2.4-3h5c-1.3,2.3-2.9,4.5-4.5,6.3c1.5,1.5,3.3,3.2,5.6,5.1l0,0
				v4.5c-3.6-2.3-6.6-4.5-8.8-6.6c-0.3,0.2-0.5,0.4-0.7,0.6c-2.9,2.3-7,3.7-10.5,4.5v-3.8c1.3-0.5,5-1.5,7.8-3.8
				c0.2-0.2,0.4-0.4,0.6-0.5c-0.7-1-1.3-1.9-1.8-2.9c-0.6-1.3-1.1-3-1.5-5.1l-5.2,0v-4l4.6,0c-0.1-1.2-0.3-2.6-0.3-4l-4.2,0V4l4.1,0
				c0-1.3,0-2.6,0-4l0,0H93.7z"/>
			<path class="st0" d="M120.3,0.3c-0.3,0.9-0.5,1.6-0.8,2.3h14.4c2.2,0,4,1.8,4,4v12.2c0,3.6-1.6,5.3-5,5.3h-3.7v-3.5h1.5
				c1.3,0.1,1.9-0.6,1.8-1.9V6.2h-15.3c-1.3,1.5-3.1,2.6-5.4,3.4h16.8v7.7c0.1,3.5-1.5,5.2-4.9,5.1h-6.7v3.9
				c-0.1,1.5,0.7,2.3,2.2,2.2h15c1.2,0,1.8-0.5,1.8-1.6l0-1.5h4.2v1.9c0.1,3.3-1.5,4.9-4.9,4.8h-18.8c-3.3,0.1-5-1.6-4.9-5.1V9.6
				c-1,0.4-2.1,0.7-3.3,0.9V7.6c3.3-1.4,5.4-3.8,6.4-7.4H120.3z M123.3,13h-6.7v5.9h4.8c1.6,0,2-1,2-2.4V13z"/>
			<path class="st0" d="M176.2,31.2c-5.8-1.2-9.2-4.4-10.4-9.6h5.2c0.6,3.1,2.3,5.3,5.2,6.6V31.2z"/>
			<path class="st0" d="M145.2,31.2v-3c2.9-1.3,4.6-3.5,5.2-6.6h5.2C154.4,26.8,151,30,145.2,31.2z"/>
			<path class="st0" d="M163.6,16.1h12v4l-12-0.2v8.3c0,3.3-1.5,4.9-4.6,4.8h-4.4v-3.5h2c1.1,0,2-0.5,2-1.8v-7.9h-13v-3.8h13H163.6z
				 M158.6,12.1h5v12h-5V12.1z"/>
			<path id="矩形" class="st1" d="M152.6,9h13c2.2,0,4,1.8,4,4l0,0l0,0h-17V9z"/>
			<path class="st0" d="M204.6,27.4c-1.6,2.3-4.3,4-8.3,5.1v-3.2c4.4-1.8,6.5-4.8,6.2-9.1V12h4v8.3c-0.2,4.3,1.9,7.4,6.3,9.2v3.2
				C209,31.5,206.2,29.8,204.6,27.4z"/>
			<path class="st0" d="M212.8,4.6h-5.9c0,0.2-0.6,2.2-0.6,2.6h5.7v16.5h-3.8V10.4h-7.4v13.5H197V7.2h4.9c0.1-0.8,0.5-1.7,0.6-2.6
				h-5.7V1.4h12.8C211.3,1.4,212.8,2.8,212.8,4.6L212.8,4.6L212.8,4.6z"/>
			<path class="st0" d="M191.6,0.1L190.9,2h5.2v5.1h-3.8v-2h-7.9v1.5h3.6c0,0.1-0.1,0.3-0.1,0.5c-0.1,0.3-0.2,0.6-0.4,1.1h7.8v3
				c-1,2.3-2.2,4.1-3.8,5.4c1.3,0.7,2.8,1.3,4.7,1.9v2.8l-1.5-0.3v6.9c0.1,2.8-1.3,4.2-4.1,4.1h-8.9V21.1l-1.7,0.4v-2.8
				c2.2-0.7,4-1.4,5.3-2.2c-0.8-0.8-1.6-1.7-2.3-2.7c-0.8,0.5-1.7,1-2.7,1.4v-2.8c1.7-1.2,3-3.3,3.6-5.3h-3.4l0-5.1h5.3l0.6-1.9
				H191.6z M190.8,24.1h-5v4.8h3.5c1,0,1.5-0.4,1.5-1.4V24.1z M188.5,18.7c-1.7,0.9-3.8,1.6-6.4,2.3h12.5
				C192.2,20.4,190.1,19.6,188.5,18.7z M190.7,11.3H186c-0.3,0.4-0.6,0.8-0.9,1.1h1.7c0.5,0.7,1,1.4,1.6,2
				C189.3,13.5,190,12.5,190.7,11.3z"/>
			<path class="st0" d="M248.3,29.1v3.5c-6.8-1-12.2-2.5-16-4.4c-3.7,1.8-8.9,3.3-15.4,4.5v-3.5c4.7-1.2,8.4-2.4,11.1-3.7
				c-2.5-1.9-5-5.2-7.4-8.7h6.5c1.7,2.3,3.5,4.8,5.3,6.2c2.6-1.8,4.8-4.6,6.6-7.6h-20.2v-4.2h11V6.9h-13V2.7h13l1.4-2.6h5.6
				l-1.4,2.6h8.7c2.3,0,4.2,1.9,4.2,4.2l0,0l0,0h-12.9v4.3h10.2v4.1c-2.6,4.3-5.6,8-8.9,10.3C239.5,27.1,243.4,28.3,248.3,29.1z"/>
			<path class="st0" d="M267,21.5c-0.4-2.8-1.2-5.7-2.4-8.9h4.6c1.3,2.7,2.2,5.6,2.7,8.9H267z"/>
			<path class="st0" d="M255.8,32.4V12.8c-1.1,0.5-2.3,0.9-3.7,1.3v-3c3-1.8,5.1-5.3,6-10.8h5.5c-0.7,3.1-1.6,5.6-2.7,7.6v24.5
				H255.8z"/>
			<path class="st0" d="M263.4,8.8V4.4h12.1V0.4h1.3c2.2,0,4.1,1.8,4.1,4.1l0,0l0,0h4v4.3h-4v18.4c0.1,3.6-1.5,5.3-4.9,5.2h-4.9
				v-3.6h4c0.5,0,0.5-0.1,0.5-0.6V8.8H263.4z"/>
			<polygon id="路径-23" class="st1" points="149.4,11 155.2,5 166.1,5 171.9,11 176.6,11 167.6,1 153.6,1 144.6,11 			"/>
		</g>
	</g>
</g>
</svg>
