<?xml version="1.0" standalone="no"?><!DOCTYPE svg PUBLIC "-//W3C//DTD SVG 1.1//EN" "http://www.w3.org/Graphics/SVG/1.1/DTD/svg11.dtd"><svg t="1558086570764" class="icon" style="" viewBox="0 0 1024 1024" version="1.1" xmlns="http://www.w3.org/2000/svg" p-id="2932" xmlns:xlink="http://www.w3.org/1999/xlink" width="200" height="200"><defs><style type="text/css"></style></defs><path d="M349.2 775.9c12.7 0 24.8 2.3 36.1 7 11.4 4.7 21.4 11.2 30.1 19.6 8.7 8.4 15.4 18.2 20.1 29.6 4.7 11.4 7 23.4 7 36.1 0 12.7-2.3 24.8-7 36.1-4.7 11.4-11.4 21.2-20.1 29.6-8.7 8.4-18.7 15.1-30.1 20.1-11.4 5-23.4 7.5-36.1 7.5-13.4 0-25.6-2.5-36.6-7.5s-20.9-11.7-29.6-20.1-15.4-18.2-20.1-29.6c-4.7-11.4-7-23.4-7-36.1 0-12.7 2.3-24.8 7-36.1 4.7-11.4 11.4-21.2 20.1-29.6 8.7-8.4 18.6-14.9 29.6-19.6 11-4.6 23.2-7 36.6-7z m417.4 2c12.7 0 24.9 2.3 36.6 7 11.7 4.7 21.7 11.2 30.1 19.6 8.4 8.4 15.1 18.2 20.1 29.6 5 11.4 7.5 23.4 7.5 36.1 0 12.7-2.5 24.8-7.5 36.1-5 11.4-11.7 21.2-20.1 29.6s-18.3 15.1-30 20.2c-11.7 5-23.9 7.5-36.6 7.5-12.7 0-24.8-2.5-36.1-7.5-11.4-5-21.2-11.7-29.6-20.1-8.4-8.4-15.1-18.2-20.1-29.6-5-11.4-7.5-23.4-7.5-36.1 0-12.7 2.5-24.8 7.5-36.1 5-11.4 11.7-21.2 20.1-29.6 8.4-8.4 18.2-14.9 29.6-19.6 11.3-4.7 23.3-7.1 36-7.1z m168.6-570c18.7 0 33.3 2.5 43.7 7.5s17.7 11.2 22.1 18.6c4.3 7.4 6.4 15.2 6 23.6-0.3 8.4-1.5 15.6-3.5 21.6-2 6-6.2 18.4-12.5 37.1-6.4 18.7-13.5 39.3-21.6 61.7-8 22.4-15.9 44.7-23.6 66.7-7.7 22.1-13.5 39.5-17.6 52.2-8.7 26.8-19.7 45.3-33.1 55.7-13.4 10.4-29.8 15.6-49.2 15.6H319.1l15.1 90.3H840c32.1 0 48.2 13.7 48.2 41.1 0 13.4-3.2 24.9-9.5 34.6-6.4 9.7-18.9 14.6-37.6 14.6H315c-13.4 0-24.6-3-33.6-9s-16.6-13.9-22.6-23.6c-6-9.7-10.9-20.2-14.6-31.6-3.7-11.4-6.5-22.1-8.5-32.1-0.7-4-2.5-13.7-5.5-29.1-3-15.4-6.7-34.6-11-57.7s-9.2-48.8-14.6-77.3c-5.4-28.4-10.7-57-16.1-85.8-12.7-67.6-27.1-142.8-43.2-225.8H70.2c-10 0-18.4-2.5-25.1-7.5-6.7-5-12.2-11-16.6-18.1-4.3-7-7.4-14.6-9-22.6-1.7-8-2.5-15.4-2.5-22.1 0-13.4 4.5-24.4 13.5-33.1 9-8.7 21.2-13 36.6-13h101.4c13.4 0 24.1 2 32.1 6s14.4 9 19.1 15.1c4.7 6 8 12.4 10 19.1 2 6.7 3.7 12.4 5 17.1 1.3 5.4 2.7 12.9 4 22.6 1.3 9.7 2.7 19.6 4 29.6 2 12 4 24.8 6 38.1l686.5-0.1z" fill="#2B2D33" p-id="2933"></path></svg>