<?xml version="1.0" encoding="UTF-8"?>
<svg width="46px" height="24px" viewBox="0 0 46 24" version="1.1" xmlns="http://www.w3.org/2000/svg" xmlns:xlink="http://www.w3.org/1999/xlink">
    <!-- Generator: Sketch 55.2 (78181) - https://sketchapp.com -->
    <title>领券</title>
    <desc>Created with Sketch.</desc>
    <defs>
        <linearGradient x1="-1.11022302e-14%" y1="50%" x2="100%" y2="50%" id="linearGradient-1">
            <stop stop-color="#FF764D" offset="0%"></stop>
            <stop stop-color="#FF5A52" offset="100%"></stop>
        </linearGradient>
    </defs>
    <g id="页面1" stroke="none" stroke-width="1" fill="none" fill-rule="evenodd">
        <g id="v1.01_购物车" transform="translate(-305.000000, -85.000000)">
            <g id="领券" transform="translate(305.000000, 85.000000)">
                <path d="M21.0500091,24 L2.5,24 C1.11928813,24 1.69088438e-16,22.8807119 0,21.5 L0,2.5 C-1.69088438e-16,1.11928813 1.11928813,2.53632657e-16 2.5,0 L21.0500091,0 C21.0172151,0.16155497 21,0.328767081 21,0.5 C21,1.88071187 22.1192881,3 23.5,3 C24.8807119,3 26,1.88071187 26,0.5 C26,0.328767081 25.9827849,0.16155497 25.9499909,-8.60422844e-16 L43.5,0 C44.8807119,-2.53632657e-16 46,1.11928813 46,2.5 L46,21.5 C46,22.8807119 44.8807119,24 43.5,24 L25.9499909,24 C25.9827849,23.838445 26,23.6712329 26,23.5 C26,22.1192881 24.8807119,21 23.5,21 C22.1192881,21 21,22.1192881 21,23.5 C21,23.6712329 21.0172151,23.838445 21.0500091,24 Z" id="形状结合" fill="url(#linearGradient-1)"></path>
                <path d="M5.781,10.667 C5.326,11.291 4.819,11.889 4.273,12.448 L4,11.512 C5.404,9.952 6.418,8.171 7.055,6.169 L7.9,6.559 C7.588,7.495 7.185,8.392 6.717,9.237 L6.717,18.051 L5.781,18.051 L5.781,10.667 Z M7.653,9.302 L10.331,9.302 C10.344,9.042 10.357,8.782 10.357,8.522 L10.357,6.169 L11.254,6.169 L11.254,8.522 C11.254,8.782 11.241,9.042 11.228,9.302 L15.596,9.302 L15.596,10.212 L12.892,10.212 L12.892,16.595 C12.892,16.855 13.009,16.985 13.269,16.985 L14.4,16.985 C14.543,16.985 14.66,16.907 14.764,16.764 C14.881,16.569 14.959,15.88 14.998,14.684 L15.843,14.957 C15.752,16.335 15.609,17.18 15.427,17.466 C15.245,17.7 14.972,17.83 14.634,17.843 L13.022,17.843 C12.333,17.843 11.995,17.479 11.995,16.764 L11.995,10.212 L11.176,10.212 C10.89,13.683 9.798,16.283 7.926,18.012 L7.237,17.414 C8.979,15.828 9.993,13.436 10.279,10.212 L7.653,10.212 L7.653,9.302 Z M12.957,6.403 C13.763,6.962 14.452,7.534 14.998,8.106 L14.361,8.743 C13.867,8.184 13.204,7.599 12.346,6.988 L12.957,6.403 Z M17.273,6.975 L22.564,6.975 L22.564,6.104 L23.5,6.104 L23.5,6.975 L28.791,6.975 L28.791,7.781 L23.5,7.781 L23.5,8.522 L27.621,8.522 L27.621,12.292 L27.01,12.292 C27.764,12.942 28.349,13.501 28.765,13.995 L28.076,14.476 C27.868,14.203 27.621,13.93 27.348,13.644 C25.138,13.8 21.914,13.943 17.702,14.047 L17.585,13.215 C19.405,13.189 21.056,13.163 22.564,13.124 L22.564,12.292 L18.443,12.292 L18.443,8.522 L22.564,8.522 L22.564,7.781 L17.273,7.781 L17.273,6.975 Z M26.685,12.981 C26.503,12.812 26.334,12.643 26.152,12.487 L26.477,12.292 L23.5,12.292 L23.5,13.098 C24.67,13.059 25.723,13.02 26.685,12.981 Z M26.724,11.59 L26.724,10.719 L23.5,10.719 L23.5,11.59 L26.724,11.59 Z M22.564,11.59 L22.564,10.719 L19.34,10.719 L19.34,11.59 L22.564,11.59 Z M19.34,10.082 L22.564,10.082 L22.564,9.237 L19.34,9.237 L19.34,10.082 Z M23.5,9.237 L23.5,10.082 L26.724,10.082 L26.724,9.237 L23.5,9.237 Z M18.443,14.58 L19.288,14.749 C18.976,15.841 18.534,16.79 17.962,17.596 L17.182,17.102 C17.754,16.335 18.183,15.49 18.443,14.58 Z M24.813,17.843 L21.381,17.843 C20.614,17.843 20.237,17.479 20.237,16.751 L20.237,14.476 L21.147,14.476 L21.147,16.556 C21.147,16.842 21.316,16.985 21.654,16.985 L24.644,16.985 C24.891,16.985 25.06,16.92 25.164,16.803 C25.294,16.66 25.385,16.244 25.437,15.555 L26.295,15.828 C26.204,16.79 26.035,17.362 25.801,17.57 C25.593,17.752 25.268,17.843 24.813,17.843 Z M23.019,14.216 C23.682,14.814 24.189,15.347 24.553,15.802 L23.851,16.296 C23.474,15.802 22.967,15.243 22.317,14.645 L23.019,14.216 Z M26.945,14.307 C27.803,15.269 28.466,16.127 28.934,16.855 L28.193,17.349 C27.712,16.569 27.062,15.711 26.243,14.762 L26.945,14.307 Z M34.524,13.943 L32.691,13.943 L32.691,13.241 C32.028,13.748 31.313,14.19 30.559,14.554 L30.039,13.761 C31.417,13.163 32.561,12.357 33.458,11.343 L30.442,11.343 L30.442,10.485 L34.121,10.485 C34.42,10.03 34.68,9.549 34.901,9.055 L31.157,9.055 L31.157,8.223 L35.239,8.223 C35.473,7.521 35.642,6.78 35.772,6 L36.695,6.117 C36.565,6.871 36.396,7.573 36.188,8.223 L38.827,8.223 L38.164,7.846 C38.58,7.326 38.918,6.728 39.191,6.039 L39.971,6.325 C39.672,7.053 39.308,7.677 38.866,8.223 L40.907,8.223 L40.907,9.055 L35.876,9.055 C35.668,9.562 35.421,10.043 35.161,10.485 L41.622,10.485 L41.622,11.343 L38.775,11.343 C39.438,12.227 40.517,13.033 42.025,13.735 L41.427,14.502 C40.673,14.073 40.036,13.631 39.49,13.189 C39.451,14.333 39.386,15.269 39.295,15.984 C39.191,16.712 39.009,17.219 38.762,17.505 C38.515,17.778 38.125,17.934 37.592,17.96 L35.655,17.96 L35.408,17.089 C36.019,17.115 36.591,17.128 37.137,17.128 C37.683,17.128 38.047,16.933 38.229,16.543 C38.411,16.127 38.528,15.269 38.58,13.943 L35.395,13.943 C35.135,14.918 34.771,15.698 34.316,16.283 C33.757,16.933 32.925,17.531 31.807,18.064 L31.222,17.323 C32.236,16.881 33.003,16.387 33.523,15.854 C33.965,15.36 34.29,14.723 34.524,13.943 Z M34.576,11.343 C34.082,11.993 33.523,12.578 32.899,13.085 L39.373,13.085 C38.697,12.513 38.19,11.941 37.826,11.343 L34.576,11.343 Z M33.016,6.117 C33.38,6.663 33.705,7.235 33.965,7.859 L33.211,8.21 C32.899,7.521 32.574,6.91 32.21,6.377 L33.016,6.117 Z" id="优惠券" fill="#FFFFFF" fill-rule="nonzero"></path>
            </g>
        </g>
    </g>
</svg>