<?xml version="1.0" standalone="no"?><!DOCTYPE svg PUBLIC "-//W3C//DTD SVG 1.1//EN" "http://www.w3.org/Graphics/SVG/1.1/DTD/svg11.dtd"><svg t="1554257964491" class="icon" style="" viewBox="0 0 1024 1024" version="1.1" xmlns="http://www.w3.org/2000/svg" p-id="2542" xmlns:xlink="http://www.w3.org/1999/xlink" width="200" height="200"><defs><style type="text/css"></style></defs><path d="M512 953.7c-59.6 0-117.5-11.7-171.9-34.7-52.6-22.2-99.8-54.1-140.4-94.7-40.6-40.6-72.4-87.8-94.7-140.4C82 629.5 70.3 571.6 70.3 512S82 394.5 105 340.1c22.2-52.6 54.1-99.8 94.7-140.4 40.6-40.6 87.8-72.4 140.4-94.7C394.5 82 452.4 70.3 512 70.3S629.5 82 683.9 105c52.6 22.2 99.8 54.1 140.4 94.7 40.6 40.6 72.4 87.8 94.7 140.4 23 54.5 34.7 112.3 34.7 171.9S942 629.5 919 683.9c-22.2 52.6-54.1 99.8-94.7 140.4-40.6 40.6-87.8 72.4-140.4 94.7-54.4 23-112.3 34.7-171.9 34.7z m0-841.4c-54 0-106.3 10.6-155.6 31.4-47.6 20.1-90.3 49-127.1 85.7s-65.5 79.5-85.7 127.1C122.9 405.7 112.3 458 112.3 512s10.6 106.3 31.4 155.6c20.1 47.6 49 90.3 85.7 127.1s79.5 65.5 127.1 85.7c49.3 20.8 101.6 31.4 155.6 31.4s106.3-10.6 155.6-31.4c47.6-20.1 90.3-49 127.1-85.7s65.5-79.5 85.7-127.1c20.8-49.3 31.4-101.6 31.4-155.6s-10.6-106.3-31.4-155.6c-20.1-47.6-49-90.3-85.7-127.1s-79.5-65.5-127.1-85.7C618.3 122.9 566 112.3 512 112.3z" fill="#FFFFFF" p-id="2543"></path><path d="M627.2 367L512 482.3 396.9 367.2l-29.7 29.7L482.3 512 367 627.2l29.8 29.8L512 541.7l115.1 115.1 29.7-29.7L541.7 512 657 396.8z" fill="#FFFFFF" p-id="2544"></path></svg>