<?xml version="1.0" encoding="UTF-8"?>
<svg width="32px" height="32px" viewBox="0 0 32 32" version="1.1" xmlns="http://www.w3.org/2000/svg" xmlns:xlink="http://www.w3.org/1999/xlink">
    <!-- Generator: Sketch 55.2 (78181) - https://sketchapp.com -->
    <title>53E1D017-4304-4C16-AE70-C30A7DAC854A</title>
    <desc>Created with Sketch.</desc>
    <g id="页面1" stroke="none" stroke-width="1" fill="none" fill-rule="evenodd">
        <g id="v1.0_企业扫码-弹框" transform="translate(-172.000000, -538.000000)" fill-rule="nonzero">
            <g id="关闭" transform="translate(172.000000, 538.000000)">
                <path d="M15.92,31.84 C7.12762678,31.84 0,24.7123732 0,15.92 C0,7.12762678 7.12762678,0 15.92,0 C24.7123732,0 31.84,7.12762678 31.84,15.92 C31.84,24.7123732 24.7123732,31.84 15.92,31.84 Z M15.92,30.4 C23.9170832,30.4 30.4,23.9170832 30.4,15.92 C30.4,7.92291682 23.9170832,1.44 15.92,1.44 C7.92291682,1.44 1.44,7.92291682 1.44,15.92 C1.44,23.9170832 7.92291682,30.4 15.92,30.4 Z" id="Oval-4" fill="#FFFFFF"></path>
                <path d="M16.0806799,15.0624461 L19.943126,11.2 L20.9613597,12.2182338 L17.0989136,16.0806799 L20.9613597,19.943126 L19.943126,20.9613597 L16.0806799,17.0989136 L12.2182338,20.9613597 L11.2,19.943126 L15.0624461,16.0806799 L11.2,12.2182338 L12.2182338,11.2 L16.0806799,15.0624461 Z" id="Combined-Shape" fill="#F8F8F8"></path>
            </g>
        </g>
    </g>
</svg>