<?xml version="1.0" standalone="no"?><!DOCTYPE svg PUBLIC "-//W3C//DTD SVG 1.1//EN" "http://www.w3.org/Graphics/SVG/1.1/DTD/svg11.dtd"><svg t="1560534072194" class="icon" style="" viewBox="0 0 1024 1024" version="1.1" xmlns="http://www.w3.org/2000/svg" p-id="3556" xmlns:xlink="http://www.w3.org/1999/xlink" width="200" height="200"><defs><style type="text/css"></style></defs><path d="M823.1 773.8L561.4 512l261.8-261.8c13.6-13.6 13.6-35.7 0-49.4-13.6-13.6-35.7-13.6-49.4 0L512 462.6 250.2 200.9c-13.6-13.6-35.7-13.6-49.4 0-13.6 13.6-13.6 35.7 0 49.4L462.6 512 200.9 773.8c-13.6 13.6-13.6 35.7 0 49.4 13.6 13.6 35.7 13.6 49.4 0L512 561.4l261.8 261.8c13.6 13.6 35.7 13.6 49.4 0 13.6-13.7 13.6-35.8-0.1-49.4z" fill="#A3A5AD" p-id="3557" data-spm-anchor-id="a313x.7781069.0.i0" class="selected"></path></svg>