<?xml version="1.0" standalone="no"?><!DOCTYPE svg PUBLIC "-//W3C//DTD SVG 1.1//EN" "http://www.w3.org/Graphics/SVG/1.1/DTD/svg11.dtd"><svg t="1553568098993" class="icon" style="" viewBox="0 0 1024 1024" version="1.1" xmlns="http://www.w3.org/2000/svg" p-id="1882" xmlns:xlink="http://www.w3.org/1999/xlink" width="200" height="200"><defs><style type="text/css"></style></defs><path d="M512 957C270.4 957 67 759.9 67 512 67 270.4 264.1 67 512 67c241.6 0 445 197.1 445 445S753.6 957 512 957z m0-826.4c-209.8 0-381.4 171.6-381.4 381.4S302.2 893.4 512 893.4 893.4 721.8 893.4 512 721.8 130.6 512 130.6z" fill="#FFFFFF" p-id="1883"></path><path d="M461.1 308.6c0 25.4 19.1 50.9 50.9 50.9s50.9-19.1 50.9-50.9-25.4-50.9-50.9-50.9c-25.4 0-50.9 19.1-50.9 50.9zM512 766.3c-19.1 0-31.8-12.7-31.8-31.8V448.4c0-19.1 12.7-31.8 31.8-31.8s31.8 12.7 31.8 31.8v286.1c0 19.1-12.7 31.8-31.8 31.8z" fill="#FFFFFF" p-id="1884"></path><path d="M390.5 460.2h-257c-39.4 0-71.5-32.1-71.5-71.5v-257c0-39.4 32.1-71.5 71.5-71.5h257c39.4 0 71.5 32.1 71.5 71.5v257c0 39.5-32.1 71.5-71.5 71.5z m-257-330c-0.8 0-1.5 0.7-1.5 1.5v257c0 0.8 0.7 1.5 1.5 1.5h257c0.8 0 1.5-0.7 1.5-1.5v-257c0-0.8-0.7-1.5-1.5-1.5h-257zM390.5 963.8h-257c-39.4 0-71.5-32.1-71.5-71.5v-257c0-39.4 32.1-71.5 71.5-71.5h257c39.4 0 71.5 32.1 71.5 71.5v257c0 39.4-32.1 71.5-71.5 71.5z m-257-330c-0.8 0-1.5 0.7-1.5 1.5v257c0 0.8 0.7 1.5 1.5 1.5h257c0.8 0 1.5-0.7 1.5-1.5v-257c0-0.8-0.7-1.5-1.5-1.5h-257zM890.5 460.2h-257c-39.4 0-71.5-32.1-71.5-71.5v-257c0-39.4 32.1-71.5 71.5-71.5h257c39.4 0 71.5 32.1 71.5 71.5v257c0 39.5-32.1 71.5-71.5 71.5z m-257-330c-0.8 0-1.5 0.7-1.5 1.5v257c0 0.8 0.7 1.5 1.5 1.5h257c0.8 0 1.5-0.7 1.5-1.5v-257c0-0.8-0.7-1.5-1.5-1.5h-257zM603.5 963.8c-19.3 0-35-15.7-35-35V635.9c0-19.3 15.7-35 35-35s35 15.7 35 35v292.8c0 19.4-15.6 35.1-35 35.1zM762 963.8c-19.3 0-35-15.7-35-35V743.3c0-19.3 15.7-35 35-35s35 15.7 35 35v185.5c0 19.3-15.7 35-35 35zM920.5 963.8c-19.3 0-35-15.7-35-35V595.2c0-19.3 15.7-35 35-35s35 15.7 35 35v333.6c0 19.3-15.7 35-35 35z" fill="#292928" p-id="1885"></path></svg>