<?xml version="1.0" standalone="no"?><!DOCTYPE svg PUBLIC "-//W3C//DTD SVG 1.1//EN" "http://www.w3.org/Graphics/SVG/1.1/DTD/svg11.dtd"><svg t="1558957126040" class="icon" style="" viewBox="0 0 1024 1024" version="1.1" xmlns="http://www.w3.org/2000/svg" p-id="4001" xmlns:xlink="http://www.w3.org/1999/xlink" width="200" height="200"><defs><style type="text/css"></style></defs><path d="M327.8 748.2h-84c-21.8 0-39.5-17.7-39.5-39.5v-82.6c0-10.6 4.1-20.5 11.6-27.9l451.6-451.6c8.4-8.4 19.6-13 31.5-13s23.1 4.6 31.5 13l76.2 76.2c8.4 8.4 13 19.6 13 31.5 0 11.9-4.6 23.1-13 31.5l-451 450.9c-7.4 7.4-17.4 11.5-27.9 11.5z m-64.5-59h56.4l435-435-55.7-55.6-435.7 435.7v54.9zM842.7 890.4H181.3c-16.6 0-30-13.4-30-30s13.4-30 30-30h661.4c16.6 0 30 13.4 30 30s-13.4 30-30 30z" fill="#B8B8B8" p-id="4002"></path></svg>