<?xml version="1.0" encoding="utf-8"?>
<!-- Generator: Adobe Illustrator 23.0.1, SVG Export Plug-In . SVG Version: 6.00 Build 0)  -->
<svg version="1.1" id="图层_1" xmlns="http://www.w3.org/2000/svg" xmlns:xlink="http://www.w3.org/1999/xlink" x="0px" y="0px"
	 viewBox="0 0 1024 1024" style="enable-background:new 0 0 1024 1024;" xml:space="preserve">
<style type="text/css">
	.st0{fill:#67686B;}
</style>
<g>
	<path class="st0" d="M931.2,198.3H740v-82.1c0-55.1-44.9-100-100-100H384c-55.1,0-100,44.9-100,100v82.1H92.8
		c-22.1,0-40,17.9-40,40l0,0c0,22.1,17.9,40,40,40h37.5v559.6c0,93.7,76.3,170,170,170h423.3c93.7,0,170-76.3,170-170V278.2h37.5
		c22.1,0,40-17.9,40-40l0,0C971.2,216.2,953.3,198.3,931.2,198.3z M364,116.1c0-11,9-20,20-20h256c11,0,20,9,20,20v82.1H364V116.1z
		 M813.6,837.9c0,49.6-40.4,90-90,90H300.4c-49.6,0-90-40.4-90-90V278.2h603.3L813.6,837.9L813.6,837.9z"/>
	<path class="st0" d="M400.5,792.8L400.5,792.8c20.4,0,37-16.6,37-37V471.2c0-20.4-16.6-37-37-37l0,0c-20.4,0-37,16.6-37,37v284.6
		C363.5,776.2,380,792.8,400.5,792.8z"/>
	<path class="st0" d="M623.5,792.8L623.5,792.8c20.4,0,37-16.6,37-37V471.2c0-20.4-16.6-37-37-37l0,0c-20.4,0-37,16.6-37,37v284.6
		C586.5,776.2,603.1,792.8,623.5,792.8z"/>
</g>
</svg>
