<?xml version="1.0" standalone="no"?><!DOCTYPE svg PUBLIC "-//W3C//DTD SVG 1.1//EN" "http://www.w3.org/Graphics/SVG/1.1/DTD/svg11.dtd"><svg t="1559011212557" class="icon" style="" viewBox="0 0 1024 1024" version="1.1" xmlns="http://www.w3.org/2000/svg" p-id="3458" xmlns:xlink="http://www.w3.org/1999/xlink" width="200" height="200"><defs><style type="text/css"></style></defs><path d="M168.2 43.2h687.5c69 0 125 56 125 125v687.5c0 69-56 125-125 125H168.2c-69 0-125-56-125-125V168.2c0-69 56-125 125-125z" fill="#47CCB6" opacity=".12" p-id="3459"></path><path d="M855.8 1012H168.2C82.1 1012 12 941.9 12 855.8V168.2C12 82.1 82.1 12 168.2 12h687.5c86.2 0 156.2 70.1 156.2 156.2v687.5c0.1 86.2-70 156.3-156.1 156.3zM168.2 74.5c-51.7 0-93.8 42.1-93.8 93.8v687.5c0 51.7 42.1 93.8 93.8 93.8h687.5c51.7 0 93.8-42.1 93.8-93.8V168.2c0-51.7-42.1-93.8-93.8-93.8H168.2z" fill="#47CCB6" p-id="3460"></path><path d="M385.5 797.1c17.9-29.8 32.5-58 44-84.6 11.5-26.6 20.4-54.7 26.8-84.2 6.4-29.6 10.9-62 13.4-97.3s3.8-76.8 3.8-124.4V275.2c0-5 1.6-9.4 4.8-13.1s7.3-5.5 12.4-5.5h39.9c5 0 9.4 1.8 13.1 5.5s5.5 8 5.5 13.1v8.2c36.7-9.2 70.7-19.4 102.1-30.6s58.1-22.8 80.1-34.7c11.5-6.4 22.7-5.3 33.7 3.4 6.4 5 12.3 10.2 17.5 15.5 5.3 5.3 10 10.4 14.1 15.5 5.5 5.5 7.6 10.7 6.2 15.5s-4.6 7.9-9.6 9.3c-11.5 3.2-26.2 6.5-44.3 10-18.1 3.4-38 6.9-59.8 10.3-21.8 3.4-44.7 6.6-68.7 9.6s-47.8 5.2-71.2 6.5V424c0 5.7-0.2 11.3-0.7 16.8H814c2.8 0 5.3 1.1 7.6 3.4s3.4 4.6 3.4 6.9v11.7c0 3.2-1.1 5.8-3.4 7.9s-4.8 3.1-7.6 3.1h-81.1v323.1c0 5-1.9 9.5-5.8 13.4-3.9 3.9-8.1 5.8-12.7 5.8H677c-5 0-9.5-1.9-13.4-5.8-3.9-3.9-5.8-8.4-5.8-13.4v-323h-110c-1.4 38-4.8 72.9-10.3 104.5-5.5 31.6-13.7 61.1-24.8 88.3-11 27.3-25.3 53.1-43 77.3-17.6 24.3-39.5 48.1-65.7 71.5-1.8 1.4-4.1 1.7-6.9 1-2.8-0.7-5.3-2.1-7.6-4.1-2.3-2.1-4-4.5-5.2-7.2-0.9-2.6-0.6-5.4 1.2-8.1z m-176-453.8c0-3.2 1.4-5.8 4.1-7.9 2.8-2.1 5.7-3.1 8.9-3.1h73.6V226.4c0-13.8 8-20.6 24.1-20.6h23.4c8.3 0 14.2 1.8 17.9 5.5 3.7 3.7 5.5 8.7 5.5 15.1v105.9h66.7c3.7 0 6.6 1 8.9 3.1 2.3 2.1 3.4 4.7 3.4 7.9v11c0 3.2-1.3 6-3.8 8.2s-5.4 3.4-8.6 3.4H367v118.2l73.6-18.6c4.1-0.9 7.1-0.7 8.9 0.7 1.8 1.4 3.4 3.9 4.8 7.6 3.2 6.9 1.8 12.4-4.1 16.5-9.2 6-21.1 12.9-35.8 21-14.7 8-30.5 16.6-47.4 25.8v183.6c0 24.3-2.1 42.5-6.2 54.7-4.1 12.1-14 21.9-29.6 29.2-6.4 3.2-14.7 6-24.8 8.2s-19 3.9-26.8 4.8c-8.3 0.9-13.7 0.6-16.5-1s-6-4.9-9.6-10c-3.7-6-7.4-12.5-11.3-19.6-3.9-7.1-7.4-13.9-10.7-20.3-1.8-4.1-2.3-7.8-1.4-11 0.9-3.2 3.9-5.3 8.9-6.2l28.9-3.4c11-2.3 18.4-6 22.3-11 3.9-5 5.8-15.4 5.8-30.9v-132c-10.5 5-20.5 9.7-29.9 14.1-9.4 4.4-17.8 8.1-25.1 11.3-7.3 3.2-12.9 4.1-16.8 2.8-3.9-1.4-7.7-5.5-11.3-12.4-0.5-1.4-1.3-3.6-2.4-6.5-1.1-3-2.4-6.4-3.8-10.3-1.4-3.9-2.6-7.8-3.8-11.7-1.1-3.9-1.9-7.2-2.4-10-1.8-7.8-1.9-13.9-0.3-18.2 1.6-4.4 6.3-7.4 14.1-9.3l81.8-19.9V366h-73.6c-3.2 0-6.2-1.1-8.9-3.4-2.8-2.3-4.1-5-4.1-8.2v-11.1z" fill="#47CCB6" p-id="3461"></path></svg>