<?xml version="1.0" standalone="no"?><!DOCTYPE svg PUBLIC "-//W3C//DTD SVG 1.1//EN" "http://www.w3.org/Graphics/SVG/1.1/DTD/svg11.dtd"><svg t="1559791580400" class="icon" style="" viewBox="0 0 1024 1024" version="1.1" xmlns="http://www.w3.org/2000/svg" p-id="3541" xmlns:xlink="http://www.w3.org/1999/xlink" width="200" height="200"><defs><style type="text/css"></style></defs><path d="M69.2 581.6c0-108.1 74.8-239.1 193.3-372.1C360.2 101.4 468.3 12 512 12c39.5 0 147.6 91.5 245.3 197.5 120.6 135.1 197.5 264 197.5 372.1 0 237-197.5 430.4-440.7 430.4S69.2 820.7 69.2 581.6zM509.9 99.3c-2.1 2.1-4.2 2.1-6.2 4.2-12.5 8.3-29.1 20.8-47.8 35.3-41.6 33.3-87.3 79-131 126.8-106 118.5-172.6 234.9-172.6 316 0 191.3 160.1 347.2 357.6 347.2s357.6-155.9 357.6-347.2c0-81.1-66.5-197.5-176.7-316-43.7-47.8-89.4-93.6-131-126.8-18.7-14.6-35.3-27-45.7-35.3 0-2.1-2.1-4.2-4.2-4.2z m-33.2 694.4l66.5-197.5h-183l201.7-251.6-33.3 172.6 153.8 14.6-205.7 261.9z" fill="#47CCB6" p-id="3542"></path></svg>