<?xml version="1.0" encoding="UTF-8"?>
<svg width="18px" height="18px" viewBox="0 0 18 18" version="1.1" xmlns="http://www.w3.org/2000/svg" xmlns:xlink="http://www.w3.org/1999/xlink">
    <!-- Generator: Sketch 55.2 (78181) - https://sketchapp.com -->
    <title>C8744A68-C59B-47BF-8504-5010FD22A2FE</title>
    <desc>Created with Sketch.</desc>
    <g id="页面1" stroke="none" stroke-width="1" fill="none" fill-rule="evenodd">
        <g id="v1.03_地址管理" transform="translate(-339.000000, -96.000000)" fill="#A0A1A3">
            <g id="编组" transform="translate(0.000000, 64.000000)">
                <g id="editor" transform="translate(339.000000, 32.000000)">
                    <g id="路径">
                        <path d="M17.1704819,7.63373494 C16.7204819,7.63373494 16.3572289,7.99698795 16.3572289,8.44698795 L16.3572289,15.8123494 C16.3572289,16.113253 16.113253,16.3572289 15.8123494,16.3572289 L2.17138554,16.3572289 C1.87048193,16.3572289 1.62650602,16.113253 1.62650602,15.8123494 L1.62650602,2.17138554 C1.62921687,1.87048193 1.87319277,1.62650602 2.17138554,1.62650602 L9.53674699,1.62650602 C9.98674699,1.62650602 10.35,1.26325301 10.35,0.813253012 C10.35,0.363253012 9.98674699,0 9.53674699,0 L2.17138554,0 C0.975903614,0 0.00271084337,0.973192771 0.00271084337,2.17138554 L0.00271084337,15.8123494 C0.00271084337,17.0078313 0.975903614,17.9837349 2.17409639,17.9837349 L15.8150602,17.9837349 C17.0105422,17.9837349 17.9864458,17.0105422 17.9864458,15.8123494 L17.9864458,8.44698795 C17.9837349,7.99698795 17.6204819,7.63373494 17.1704819,7.63373494 Z" fill-rule="nonzero"></path>
                        <path d="M7.01024096,10.973494 L7.01024096,10.973494 C7.32740964,11.2906627 7.84246988,11.2906627 8.15963855,10.973494 L17.7451807,1.38795181 C18.0623494,1.07078313 18.0623494,0.555722892 17.7451807,0.238554217 L17.7451807,0.238554217 C17.428012,-0.0786144578 16.9129518,-0.0786144578 16.5957831,0.238554217 L7.01024096,9.82138554 C6.69307229,10.1385542 6.69307229,10.6536145 7.01024096,10.973494 Z" fill-rule="nonzero"></path>
                    </g>
                </g>
            </g>
        </g>
    </g>
</svg>