<?xml version="1.0" standalone="no"?><!DOCTYPE svg PUBLIC "-//W3C//DTD SVG 1.1//EN" "http://www.w3.org/Graphics/SVG/1.1/DTD/svg11.dtd"><svg t="1555992846988" class="icon" style="" viewBox="0 0 1024 1024" version="1.1" xmlns="http://www.w3.org/2000/svg" p-id="3309" xmlns:xlink="http://www.w3.org/1999/xlink" width="200" height="200"><defs><style type="text/css"></style></defs><path d="M512 512m-440.5 0a440.5 440.5 0 1 0 881 0 440.5 440.5 0 1 0-881 0Z" fill="#D1D1D1" p-id="3310"></path><path d="M651.8 322.7L512 462.5 372.7 323.2c-5.1-5.1-13.3-5.1-18.3 0l-31.2 31.2c-5.1 5.1-5.1 13.3 0 18.3L462.5 512 322.7 651.8c-4.8 4.8-4.8 12.6 0 17.4l32.1 32.1c4.8 4.8 12.6 4.8 17.4 0L512 561.5l139.3 139.3c5.1 5.1 13.3 5.1 18.3 0l31.2-31.2c5.1-5.1 5.1-13.3 0-18.3L561.5 512l139.8-139.8c4.8-4.8 4.8-12.6 0-17.4l-32.1-32.1c-4.8-4.8-12.6-4.8-17.4 0z" fill="#FFFFFF" p-id="3311"></path></svg>