<?xml version="1.0" encoding="UTF-8"?>
<svg width="52px" height="30px" viewBox="0 0 52 30" version="1.1" xmlns="http://www.w3.org/2000/svg" xmlns:xlink="http://www.w3.org/1999/xlink">
    <!-- Generator: Sketch 55.2 (78181) - https://sketchapp.com -->
    <title>领券</title>
    <desc>Created with Sketch.</desc>
    <defs>
        <linearGradient x1="-1.11022302e-14%" y1="50%" x2="100%" y2="50%" id="linearGradient-1">
            <stop stop-color="#FF764D" offset="0%"></stop>
            <stop stop-color="#FF5A52" offset="100%"></stop>
        </linearGradient>
        <path d="M21.0500091,24 L2.5,24 C1.11928813,24 1.69088438e-16,22.8807119 0,21.5 L0,2.5 C-1.69088438e-16,1.11928813 1.11928813,2.53632657e-16 2.5,0 L21.0500091,0 C21.0172151,0.16155497 21,0.328767081 21,0.5 C21,1.88071187 22.1192881,3 23.5,3 C24.8807119,3 26,1.88071187 26,0.5 C26,0.328767081 25.9827849,0.16155497 25.9499909,-8.60422844e-16 L43.5,0 C44.8807119,-2.53632657e-16 46,1.11928813 46,2.5 L46,21.5 C46,22.8807119 44.8807119,24 43.5,24 L25.9499909,24 C25.9827849,23.838445 26,23.6712329 26,23.5 C26,22.1192881 24.8807119,21 23.5,21 C22.1192881,21 21,22.1192881 21,23.5 C21,23.6712329 21.0172151,23.838445 21.0500091,24 Z" id="path-2"></path>
        <filter x="-10.9%" y="-16.7%" width="121.7%" height="141.7%" filterUnits="objectBoundingBox" id="filter-3">
            <feOffset dx="0" dy="1" in="SourceAlpha" result="shadowOffsetOuter1"></feOffset>
            <feGaussianBlur stdDeviation="1.5" in="shadowOffsetOuter1" result="shadowBlurOuter1"></feGaussianBlur>
            <feColorMatrix values="0 0 0 0 0.744904891   0 0 0 0 0.169808413   0 0 0 0 0.117526915  0 0 0 0.34 0" type="matrix" in="shadowBlurOuter1"></feColorMatrix>
        </filter>
    </defs>
    <g id="页面1" stroke="none" stroke-width="1" fill="none" fill-rule="evenodd">
        <g id="v1.01_首页" transform="translate(-313.000000, -72.000000)">
            <g id="领券" transform="translate(316.000000, 74.000000)">
                <g>
                    <g id="形状结合">
                        <use fill="black" fill-opacity="1" filter="url(#filter-3)" xlink:href="#path-2"></use>
                        <use fill="url(#linearGradient-1)" fill-rule="evenodd" xlink:href="#path-2"></use>
                    </g>
                    <path d="M16.256,6.528 L22.016,6.528 L22.016,7.608 L19.712,7.608 C19.664,7.968 19.604,8.328 19.532,8.664 L21.74,8.664 L21.74,14.472 L20.636,14.472 L20.636,9.72 L17.816,9.72 L17.816,14.592 L16.7,14.592 L16.7,8.664 L18.416,8.664 C18.488,8.316 18.548,7.968 18.596,7.608 L16.256,7.608 L16.256,6.528 Z M20.216,14.424 C21.008,15.096 21.68,15.768 22.232,16.44 L21.416,17.256 C20.948,16.608 20.288,15.912 19.448,15.168 L20.216,14.424 Z M18.668,10.344 L19.736,10.344 L19.736,12.432 C19.688,13.728 19.436,14.772 18.968,15.564 C18.512,16.284 17.756,16.836 16.724,17.244 L16.124,16.296 C17.084,15.912 17.744,15.432 18.104,14.844 C18.44,14.232 18.632,13.428 18.668,12.432 L18.668,10.344 Z M13.4,6.18 L14.252,6.18 C15.068,7.128 15.836,8.124 16.58,9.156 L15.824,9.96 C15.08,8.784 14.444,7.884 13.94,7.272 C13.292,8.4 12.536,9.48 11.648,10.488 L11,9.576 C11.864,8.616 12.668,7.476 13.4,6.18 Z M11.696,11.376 L16.112,11.376 L16.112,12.336 C15.62,13.368 15.056,14.292 14.432,15.108 C14.864,15.516 15.26,15.936 15.62,16.344 L14.804,17.16 C14.108,16.272 13.124,15.324 11.876,14.304 L12.632,13.56 C12.992,13.848 13.34,14.136 13.676,14.424 C14.084,13.872 14.48,13.212 14.888,12.444 L11.696,12.444 L11.696,11.376 Z M13.892,8.832 C14.396,9.528 14.78,10.128 15.044,10.632 L14.228,11.208 C13.94,10.644 13.556,10.02 13.076,9.336 L13.892,8.832 Z M27.044,13.5 L25.544,13.5 L25.544,12.876 C24.968,13.308 24.356,13.68 23.684,14.004 L23.06,13.044 C24.212,12.552 25.172,11.904 25.952,11.088 L23.456,11.088 L23.456,10.056 L26.78,10.056 C27.008,9.708 27.212,9.348 27.392,8.976 L24.116,8.976 L24.116,7.968 L25.856,7.968 C25.592,7.38 25.304,6.864 25.016,6.408 L26,6.084 C26.312,6.588 26.588,7.116 26.828,7.68 L26.204,7.968 L27.8,7.968 C28.004,7.344 28.16,6.696 28.268,6 L29.396,6.144 C29.276,6.792 29.132,7.392 28.952,7.968 L31.076,7.968 L30.548,7.68 C30.92,7.2 31.22,6.66 31.46,6.036 L32.408,6.372 C32.156,6.972 31.856,7.512 31.508,7.968 L33.188,7.968 L33.188,8.976 L28.58,8.976 C28.412,9.348 28.232,9.708 28.04,10.056 L33.848,10.056 L33.848,11.088 L31.484,11.088 C32.072,11.796 32.996,12.432 34.244,13.008 L33.5,13.932 C32.9,13.584 32.372,13.224 31.916,12.852 C31.88,13.812 31.82,14.592 31.748,15.216 C31.652,15.912 31.484,16.392 31.256,16.668 C31.028,16.932 30.668,17.088 30.188,17.112 L28.268,17.112 L27.968,16.044 C28.568,16.068 29.12,16.092 29.636,16.092 C30.092,16.092 30.38,15.924 30.524,15.612 C30.668,15.276 30.776,14.58 30.824,13.5 L28.112,13.5 C27.872,14.352 27.548,15.036 27.152,15.54 C26.636,16.164 25.868,16.716 24.848,17.208 L24.128,16.308 C25.04,15.912 25.724,15.48 26.204,15.012 C26.564,14.628 26.84,14.124 27.044,13.5 Z M27.344,11.088 C26.96,11.58 26.528,12.036 26.072,12.444 L31.448,12.444 C30.968,12 30.584,11.544 30.296,11.088 L27.344,11.088 Z" fill="#FFFFFF" fill-rule="nonzero"></path>
                </g>
            </g>
        </g>
    </g>
</svg>