<?xml version="1.0" standalone="no"?><!DOCTYPE svg PUBLIC "-//W3C//DTD SVG 1.1//EN" "http://www.w3.org/Graphics/SVG/1.1/DTD/svg11.dtd"><svg t="1555991342752" class="icon" style="" viewBox="0 0 1024 1024" version="1.1" xmlns="http://www.w3.org/2000/svg" p-id="3200" xmlns:xlink="http://www.w3.org/1999/xlink" width="200" height="200"><defs><style type="text/css"></style></defs><path d="M952.6 922L783.4 752.8c33.8-36.4 60.7-77.8 80-123.6 22.2-52.4 33.4-108.1 33.4-165.4s-11.2-113-33.4-165.4c-21.4-50.6-52-96.1-91.1-135.1s-84.5-69.7-135.1-91.1c-52.3-22.2-108-33.4-165.3-33.4S358.9 50 306.4 72.2c-50.6 21.4-96.1 52-135.1 91.1s-69.7 84.5-91.1 135.1C58 350.8 46.8 406.5 46.8 463.8s11.2 113 33.4 165.4c21.4 50.6 52 96.1 91.1 135.1s84.5 69.7 135.1 91.1c52.4 22.2 108.1 33.4 165.4 33.4s113-11.2 165.4-33.4c30.8-13 59.7-29.5 86.4-49.2L896 978.5c15.6 15.6 40.9 15.6 56.6 0 15.6-15.6 15.6-40.9 0-56.5zM471.9 808.8c-92.2 0-178.8-35.9-244-101-65.2-65.2-101-151.8-101-244s35.9-178.8 101-244c65.2-65.2 151.8-101 244-101s178.8 35.9 244 101c65.2 65.2 101 151.8 101 244s-35.9 178.8-101 244-151.9 101-244 101z" fill="#161616" p-id="3201"></path></svg>