<?xml version="1.0" encoding="utf-8"?>
<!-- Generator: Adobe Illustrator 23.0.1, SVG Export Plug-In . SVG Version: 6.00 Build 0)  -->
<svg version="1.1" id="图层_1" xmlns="http://www.w3.org/2000/svg" xmlns:xlink="http://www.w3.org/1999/xlink" x="0px" y="0px"
	 viewBox="0 0 1024 1024" style="enable-background:new 0 0 1024 1024;" xml:space="preserve">
<style type="text/css">
	.st0{fill:#FFA333;}
</style>
<g id="页面1">
	<g id="v1.0_首页" transform="translate(-12.000000, -504.000000)">
		<g id="soundsize" transform="translate(12.000000, 504.000000)">
			<path id="形状" class="st0" d="M861.4,247.6c50,79.7,76.4,171.9,76.2,266c0.1,95.7-27.2,189.4-78.8,270
				c-3.4,5.2-8.9,8.7-15.1,9.3c-6.2,0.7-12.3-1.5-16.7-5.9l-16.2-16.2c-7.1-7-8.3-18-3-26.5l4-6.4c40.6-67.8,62-145.4,61.8-224.4
				c0-80.4-21.7-155.7-59.5-220.4c-2-3.5-4.2-6.9-6.3-10.3c-5.3-8.4-4.1-19.4,3-26.5l15.5-15.5c4.6-4.6,10.9-6.8,17.3-6.1
				c6.4,0.7,12.2,4.2,15.7,9.6L861.4,247.6L861.4,247.6z M753.3,360.5c23.1,47.7,35,100.1,34.9,153.1c0.1,55.4-13,109.9-38,159.3
				c-2.9,5.8-8.4,9.8-14.8,10.8c-6.4,1-12.9-1.1-17.4-5.7l-17.1-17.1c-6.4-6.4-8.1-16.2-4.1-24.4c1.3-2.7,2.4-5,3.2-7
				c16.1-36.5,24.4-76,24.3-116c0-38.8-7.7-75.8-21.6-109.5c-1.9-4.5-3.9-9-6.1-13.4c-3.9-8.2-2.2-17.9,4.2-24.3l16-16
				c4.8-4.8,11.6-7,18.4-6s12.5,5.2,15.7,11.3C751.8,357.4,752.6,359,753.3,360.5L753.3,360.5z M150.4,629.4h121.7
				c5.1,0,10,1.8,13.9,5.1l248.5,213.3V176.1l-249,213.3c-3.9,3.3-8.8,5.1-13.9,5.1H150.4V629.4L150.4,629.4z M86.4,672V352
				c0-11.8,9.6-21.3,21.3-21.3h148.1L563.3,67.1c6.3-5.4,15.2-6.7,22.8-3.2c7.6,3.5,12.4,11.1,12.4,19.4v857.3
				c0,8.3-4.9,15.9-12.4,19.4c-7.6,3.5-16.5,2.2-22.8-3.2l-307-263.5H107.7C95.9,693.4,86.4,683.8,86.4,672z"/>
		</g>
	</g>
</g>
</svg>
