<?xml version="1.0" encoding="UTF-8"?>
<svg width="20px" height="20px" viewBox="0 0 20 20" version="1.1" xmlns="http://www.w3.org/2000/svg" xmlns:xlink="http://www.w3.org/1999/xlink">
    <!-- Generator: Sketch 58 (84663) - https://sketch.com -->
    <title>0E394666-AD73-43C3-AA9A-AB8A5AD732E2</title>
    <desc>Created with Sketch.</desc>
    <g id="页面1" stroke="none" stroke-width="1" fill="none" fill-rule="evenodd">
        <g id="v1.04-加入会员-有默认邀请码" transform="translate(-28.000000, -539.000000)" fill="#38BCFF" fill-rule="nonzero">
            <path d="M47.1455461,539.000495 C47.3452908,538.992063 47.5340813,539.091915 47.6395326,539.261765 C47.7513542,539.434718 47.8176536,539.633125 47.832273,539.838558 C47.8451245,540.060724 47.7962024,540.282109 47.6909301,540.478171 C47.5914929,540.688224 47.4087659,540.84714 47.1869496,540.916477 C46.9622741,540.992285 46.7647298,541.132254 46.6187224,541.31909 C46.4792307,541.497588 46.3913355,541.710906 46.3645906,541.93586 C46.3442093,542.167378 46.3993037,542.399276 46.5216383,542.596888 C46.654415,542.809616 46.8728541,542.970947 47.1869496,543.073742 C47.4173497,543.176374 47.6135405,543.342839 47.7523214,543.553451 C47.8882993,543.747177 47.9692169,543.974141 47.9864653,544.210196 C47.9990138,544.436637 47.9454412,544.66184 47.832273,544.858375 C47.7025559,545.064053 47.4993769,545.212608 47.2640458,545.273838 C46.977972,545.33887 46.7226335,545.499527 46.5401985,545.729276 C46.3852713,545.934195 46.2912538,546.178641 46.2689342,546.434563 C46.2658495,546.688852 46.3335733,546.938985 46.4645301,547.156983 C46.6152895,547.398171 46.8440072,547.580541 47.1127089,547.673813 C47.3519184,547.768019 47.5556192,547.934774 47.6952132,548.150667 C47.8227263,548.3571 47.8963631,548.592247 47.9093692,548.834538 C47.922438,549.06875 47.8747318,549.302363 47.7708816,549.512699 C47.6757382,549.72082 47.5112031,549.889393 47.3054493,549.989553 C46.6601259,550.312214 46.3203317,550.699123 46.294633,551.150278 C46.2617957,551.602861 46.508789,551.962643 47.0299019,552.233908 C47.2634886,552.339167 47.4599911,552.512288 47.593846,552.730749 C47.733826,552.947188 47.8159201,553.195928 47.832273,553.453169 C47.8500758,553.686657 47.8010514,553.92039 47.6909301,554.127047 C47.5868794,554.331089 47.4053296,554.484866 47.1869496,554.553931 C46.9036866,554.616593 46.6488598,554.770593 46.4616746,554.992237 C46.3071368,555.184767 46.2149957,555.419851 46.1975489,555.666114 C46.1808924,555.921536 46.2486111,556.175356 46.3902893,556.388534 C46.5564924,556.649445 46.7923929,556.85864 47.0713054,556.992454 C47.2773507,557.096256 47.4375882,557.272771 47.521033,557.487868 C47.6100129,557.696657 47.6453504,557.924388 47.6238279,558.150324 C47.5959064,558.357409 47.519606,558.555008 47.4011056,558.727117 C47.2970201,558.896967 47.1089938,558.996993 46.9099745,558.988388 L46.9099745,558.988388 L29,558.988388 C28.4477153,558.988388 28,558.540672 28,557.988388 L28,557.988388 L28,540.000495 C28,539.44821 28.4477153,539.000495 29,539.000495 L29,539.000495 Z M32.8718674,550.463693 L32.8718674,550.463693 L32.7625022,550.470486 C32.3326045,550.524286 32,550.891081 32,551.33556 C32,551.817079 32.3903483,552.207427 32.8718674,552.207427 L32.8718674,552.207427 L40.3005216,552.207427 L40.3005216,553.998093 L40.3076658,554.051261 C40.3309503,554.13591 40.4084742,554.198093 40.5005216,554.198093 C40.5567555,554.198093 40.6103913,554.174419 40.648287,554.132872 L40.648287,554.132872 L43.6896441,550.798472 L43.7247115,550.744895 C43.758723,550.668346 43.7419446,550.575476 43.6766577,550.515927 C43.6398144,550.482322 43.591746,550.463693 43.5418787,550.463693 L43.5418787,550.463693 Z M35.4944795,544 C35.4382456,544 35.3846099,544.023674 35.3467141,544.065221 L35.3467141,544.065221 L32.3053571,547.399621 L32.2702896,547.453197 C32.2362781,547.529747 32.2530565,547.622616 32.3183434,547.682165 C32.3551867,547.715771 32.4032552,547.7344 32.4531225,547.7344 L32.4531225,547.7344 L43.1231337,547.7344 L43.2324989,547.727607 C43.6623966,547.673807 43.9950011,547.307012 43.9950011,546.862533 C43.9950011,546.381014 43.6046528,545.990665 43.1231337,545.990665 L43.1231337,545.990665 L35.6944795,545.990665 L35.6944795,544.2 L35.6873353,544.146832 C35.6640509,544.062183 35.586527,544 35.4944795,544 Z" id="形状结合"></path>
        </g>
    </g>
</svg>