<?xml version="1.0" encoding="UTF-8"?>
<svg width="174px" height="127px" viewBox="0 0 174 127" version="1.1" xmlns="http://www.w3.org/2000/svg" xmlns:xlink="http://www.w3.org/1999/xlink">
    <!-- Generator: Sketch 57.1 (83088) - https://sketch.com -->
    <title>图标</title>
    <desc>Created with Sketch.</desc>
    <defs>
        <linearGradient x1="40.1752864%" y1="100%" x2="59.8247136%" y2="25.2144771%" id="linearGradient-1">
            <stop stop-color="#F2CF9B" offset="0%"></stop>
            <stop stop-color="#F0DBBF" offset="100%"></stop>
        </linearGradient>
        <linearGradient x1="40.1752864%" y1="24.1488962%" x2="59.8247136%" y2="100%" id="linearGradient-2">
            <stop stop-color="#EBC388" offset="0%"></stop>
            <stop stop-color="#F2CF9B" offset="100%"></stop>
        </linearGradient>
        <linearGradient x1="50.021791%" y1="100.017537%" x2="50.021791%" y2="-0.0123173278%" id="linearGradient-3">
            <stop stop-color="#D69F58" offset="20.74%"></stop>
            <stop stop-color="#DCA966" offset="27.94%"></stop>
            <stop stop-color="#E6BA7D" offset="43.01%"></stop>
            <stop stop-color="#EDC68E" offset="59.13%"></stop>
            <stop stop-color="#F1CD98" offset="76.9%"></stop>
            <stop stop-color="#F2CF9B" offset="99.49%"></stop>
        </linearGradient>
    </defs>
    <g id="页面1" stroke="none" stroke-width="1" fill="none" fill-rule="evenodd">
        <g id="v1.04-加入成功" transform="translate(-101.000000, -160.000000)">
            <g id="图标" transform="translate(101.000000, 160.000000)">
                <g id="我家会员" transform="translate(35.000000, 14.000000)" fill-rule="nonzero">
                    <g id="编组">
                        <path d="M99.7948029,32.7399642 C99.7948029,29.6204301 98.1290323,26.7129032 95.4335125,25.1682796 L54.3344086,1.4234767 C52.9715054,0.636021505 51.4571685,0.242293907 49.9731183,0.242293907 L49.9731183,112.63638 C51.4874552,112.63638 53.0017921,112.242652 54.3344086,111.455197 L95.4335125,87.740681 C98.1290323,86.1657706 99.7948029,83.2885305 99.7948029,80.1689964 L99.7948029,32.7399642 Z" id="路径" fill="url(#linearGradient-1)"></path>
                        <path d="M0.151433692,32.7399642 C0.151433692,29.6204301 1.8172043,26.7129032 4.51272401,25.1682796 L45.611828,1.45376344 C46.9747312,0.666308244 48.4890681,0.272580645 49.9731183,0.272580645 L49.9731183,112.666667 C48.4587814,112.666667 46.9444444,112.272939 45.611828,111.485484 L4.51272401,87.740681 C1.8172043,86.1657706 0.151433692,83.2885305 0.151433692,80.1689964 L0.151433692,32.7399642 Z" id="路径" fill="url(#linearGradient-2)"></path>
                    </g>
                    <g id="编组" transform="translate(12.720430, 26.046595)">
                        <path d="M33.0731183,63.2992832 L1.48405018,25.6225806 C-0.18172043,23.6539427 -0.212007168,20.8069892 1.36290323,18.7777778 L14.3256272,2.15035842 C15.3553763,0.817741935 16.9302867,0.0605734767 18.6263441,0.0605734767 L55.8487455,0.0605734767 C57.5145161,0.0605734767 59.1197133,0.848028674 60.1494624,2.15035842 L73.1121864,18.7777778 C74.6870968,20.8069892 74.65681,23.6539427 72.9910394,25.6225806 L41.4322581,63.2992832 C39.2516129,65.9039427 35.2537634,65.9039427 33.0731183,63.2992832 Z" id="路径" fill="#27292B"></path>
                        <g transform="translate(24.229391, 15.143369)" id="路径">
                            <polygon fill="url(#linearGradient-3)" points="2.57437276 0.212007168 0.0302867384 0.212007168 0.0302867384 3.51326165 2.57437276 3.51326165 2.57437276 29.2267025 10.1763441 29.2267025 10.1763441 0.212007168"></polygon>
                            <polygon fill="#F2CF9B" points="2.57437276 24.7139785 23.381362 0.151433692 34.5268817 0.151433692 10.1763441 29.2267025 2.57437276 29.2267025"></polygon>
                        </g>
                    </g>
                </g>
                <path d="M8.20791893,95.6812394 L5.97388707,105.119195 L5.97388707,105.119195 L0.215429206,107.118057 C0.16325463,107.136168 0.135640418,107.193145 0.153751136,107.24532 C0.16198169,107.269031 0.178827727,107.28878 0.200944622,107.300646 L5.97388707,110.397915 L5.97388707,110.397915 L8.20989264,118.085568 C8.24074141,118.19163 8.3517293,118.252602 8.45779104,118.221753 C8.51614221,118.204781 8.56361191,118.1622 8.5868008,118.106029 L11.7689182,110.397915 L11.7689182,110.397915 L18.0684841,107.302529 C18.118052,107.278173 18.1384903,107.218246 18.1141344,107.168678 C18.1021189,107.144225 18.0806458,107.125733 18.0546804,107.117478 L11.7689182,105.119195 L11.7689182,105.119195 L8.59212704,95.6636125 C8.55694913,95.558907 8.44355117,95.5025437 8.33884562,95.5377216 C8.27334007,95.5597295 8.22383642,95.6139939 8.20791893,95.6812394 Z" id="路径-6" fill="#ECC58B"></path>
                <path d="M22.2928414,0.681239373 L20.3207079,9.01277132 L20.3207079,9.01277132 L15.2154292,10.7849039 C15.1632546,10.8030146 15.1356404,10.8599921 15.1537511,10.9121666 C15.1619817,10.9358778 15.1788277,10.9556269 15.2009446,10.9674929 L20.3207079,13.7143215 L20.3207079,13.7143215 L22.2948151,20.5015367 C22.3256639,20.6075985 22.4366518,20.6685706 22.5427135,20.6377219 C22.6010647,20.62075 22.6485344,20.5781689 22.6717233,20.5219979 L25.4821158,13.7143215 L25.4821158,13.7143215 L31.0684841,10.9693759 C31.118052,10.94502 31.1384903,10.8850929 31.1141344,10.835525 C31.1021189,10.8110716 31.0806458,10.7925797 31.0546804,10.7843252 L25.4821158,9.01277132 L25.4821158,9.01277132 L22.6770495,0.663612537 C22.6418716,0.558906988 22.5284737,0.502543704 22.4237681,0.537721619 C22.3582625,0.559729515 22.3087589,0.613993866 22.2928414,0.681239373 Z" id="路径-6备份-2" fill="#ECC58B"></path>
                <path d="M161.038074,11.6812394 L158.280245,23.3320409 L158.280245,23.3320409 L151.215429,25.7843636 C151.163255,25.8024744 151.13564,25.8594518 151.153751,25.9116264 C151.161982,25.9353376 151.178828,25.9550866 151.200945,25.9669527 L158.280245,29.7651021 L158.280245,29.7651021 L161.040048,39.2536301 C161.070896,39.3596918 161.181884,39.420664 161.287946,39.3898152 C161.346297,39.3728434 161.393767,39.3302623 161.416956,39.2740913 L165.342523,29.7651021 L165.342523,29.7651021 L173.068484,25.9688357 C173.118052,25.9444797 173.13849,25.8845527 173.114134,25.8349848 C173.102119,25.8105314 173.080646,25.7920395 173.05468,25.7837849 L165.342523,23.3320409 L165.342523,23.3320409 L161.422282,11.6636125 C161.387104,11.558907 161.273706,11.5025437 161.169001,11.5377216 C161.103495,11.5597295 161.053991,11.6139939 161.038074,11.6812394 Z" id="路径-6备份" fill="#ECC58B"></path>
            </g>
        </g>
    </g>
</svg>