<?xml version="1.0" encoding="UTF-8"?>
<svg width="15px" height="15px" viewBox="0 0 15 15" version="1.1" xmlns="http://www.w3.org/2000/svg" xmlns:xlink="http://www.w3.org/1999/xlink">
    <!-- Generator: Sketch 58 (84663) - https://sketch.com -->
    <title>2DECF7D0-1457-4DCF-BBA6-A3DFE04E0CC0</title>
    <desc>Created with Sketch.</desc>
    <g id="页面1" stroke="none" stroke-width="1" fill="none" fill-rule="evenodd">
        <g id="v1.0_申请售后" transform="translate(-282.000000, -400.000000)" fill="#FFA333" fill-rule="nonzero">
            <g id="客服" transform="translate(282.000000, 400.000000)">
                <path d="M13.125,4.65047022 L13.0568182,4.65047022 C12.4090909,1.55015673 10.5340909,0 7.5,0 C4.46590909,0 2.55681819,1.55015673 1.80681819,4.65047022 C0.818181826,4.68416928 0,5.4929467 0,6.50391849 L0,9.46943573 C0,10.4804075 0.852272725,11.322884 1.875,11.322884 L2.625,11.322884 C3.64772728,11.322884 4.5,10.4804075 4.5,9.46943573 L4.5,6.50391849 C4.5,5.56034483 3.78409091,4.78526646 2.86363636,4.65047022 C3.51136364,2.19043887 5.04545455,1.01097179 7.5,1.01097179 C9.95454545,1.01097179 11.4545454,2.22413793 12,4.68416928 C11.1477273,4.85266458 10.4659091,5.59404389 10.4659091,6.50391849 L10.4659091,9.46943573 C10.4659091,10.4130094 11.1477273,11.1543887 12.0681818,11.289185 C11.9318182,11.9968652 11.4886364,12.4012539 10.7386364,12.6034483 C10.5,12.0642633 9.98863636,11.6935737 9.34090909,11.6935737 L7.84090909,11.6935737 C7.02272728,11.6935737 6.34090909,12.3675549 6.34090909,13.1763323 C6.34090909,13.9851097 7.02272728,14.6590909 7.84090909,14.6590909 L9.34090909,14.6590909 C9.98863636,14.6590909 10.5681818,14.2210031 10.7727273,13.6481191 C12.4090909,13.3111285 12.9886364,12.3001567 13.125,11.322884 C14.1477273,11.322884 15,10.4804075 15,9.46943573 L15,6.50391849 C15,5.4929467 14.1477273,4.65047022 13.125,4.65047022 Z M3.47727272,6.50391849 L3.47727272,9.46943573 C3.47727272,9.94122257 3.10227272,10.3119122 2.625,10.3119122 L1.875,10.3119122 C1.39772728,10.3119122 1.02272728,9.94122257 1.02272728,9.46943573 L1.02272728,6.50391849 C1.02272728,6.03213166 1.39772728,5.66144201 1.875,5.66144201 L2.625,5.66144201 C3.10227272,5.66144201 3.47727272,6.03213166 3.47727272,6.50391849 Z M9.375,13.6481191 L7.875,13.6481191 C7.60227272,13.6481191 7.39772728,13.4459248 7.39772728,13.1763323 C7.39772728,12.9067398 7.60227272,12.7045455 7.875,12.7045455 L9.375,12.7045455 C9.64772728,12.7045455 9.85227272,12.9067398 9.85227272,13.1763323 C9.85227272,13.4459248 9.64772728,13.6481191 9.375,13.6481191 Z M13.9772727,9.46943573 C13.9772727,9.94122257 13.6022727,10.3119122 13.125,10.3119122 L12.375,10.3119122 C11.8977273,10.3119122 11.5227273,9.94122257 11.5227273,9.46943573 L11.5227273,6.50391849 C11.5227273,6.03213166 11.8977273,5.66144201 12.375,5.66144201 L13.125,5.66144201 C13.6022727,5.66144201 13.9772727,6.03213166 13.9772727,6.50391849 L13.9772727,9.46943573 Z" id="形状"></path>
            </g>
        </g>
    </g>
</svg>