<?xml version="1.0" encoding="UTF-8"?>
<svg width="20px" height="20px" viewBox="0 0 20 20" version="1.1" xmlns="http://www.w3.org/2000/svg" xmlns:xlink="http://www.w3.org/1999/xlink">
    <!-- Generator: Sketch 58 (84663) - https://sketch.com -->
    <title>0A4E7DA9-59E7-4606-9CD8-D7A8836762C3</title>
    <desc>Created with Sketch.</desc>
    <g id="页面1" stroke="none" stroke-width="1" fill="none" fill-rule="evenodd">
        <g id="v1.05_个人中心" transform="translate(-221.000000, -1107.000000)" fill="#2B2D33" fill-rule="nonzero">
            <g id="我的服务" transform="translate(12.000000, 981.000000)">
                <g id="联系客服" transform="translate(209.000000, 126.000000)">
                    <path d="M18.0454545,6.92424242 C17.4090909,3.06060606 14.0454545,0.106060606 10,0.106060606 C5.95454545,0.106060606 2.59090909,3.06060606 1.95454545,6.92424242 C0.848484848,7.1969697 0.0303030303,8.1969697 0.0303030303,9.39393939 L0.0303030303,12.1212121 C0.0303030303,13.530303 1.16666667,14.6666667 2.57575758,14.6666667 C3.98484848,14.6666667 5.12121212,13.530303 5.12121212,12.1212121 L5.12121212,9.39393939 C5.12121212,8.28787879 4.40909091,7.34848485 3.42424242,7 C4.01515152,3.90909091 6.74242424,1.56060606 10,1.56060606 C13.2575758,1.56060606 15.9848485,3.90909091 16.5757576,7 C15.5909091,7.34848485 14.8787879,8.28787879 14.8787879,9.39393939 L14.8787879,12.1212121 C14.8787879,13.1969697 15.5454545,14.1212121 16.4848485,14.4848485 C16.1212121,15.6212121 15.2575758,16.530303 14.1212121,16.9242424 C13.7727273,16.2424242 13.0757576,15.7878788 12.2575758,15.7878788 L10.1515152,15.7878788 C9,15.7878788 8.06060606,16.7272727 8.06060606,17.8787879 C8.06060606,19.030303 9,19.969697 10.1515152,19.969697 L12.2727273,19.969697 C13.2424242,19.969697 14.0606061,19.3030303 14.2878788,18.4090909 C16.1060606,17.8939394 17.5151515,16.4393939 17.969697,14.6060606 C19.1060606,14.3484848 19.969697,13.3333333 19.969697,12.1212121 L19.969697,9.39393939 C19.969697,8.1969697 19.1515152,7.1969697 18.0454545,6.92424242 Z M3.66666667,12.1212121 C3.66666667,12.7272727 3.18181818,13.2121212 2.57575758,13.2121212 C1.96969697,13.2121212 1.48484848,12.7272727 1.48484848,12.1212121 L1.48484848,9.39393939 C1.48484848,8.78787879 1.96969697,8.3030303 2.57575758,8.3030303 C3.18181818,8.3030303 3.66666667,8.78787879 3.66666667,9.39393939 L3.66666667,12.1212121 Z M12.2727273,18.5151515 L10.1515152,18.5151515 C9.8030303,18.5151515 9.51515152,18.2272727 9.51515152,17.8787879 C9.51515152,17.530303 9.8030303,17.2424242 10.1515152,17.2424242 L12.2727273,17.2424242 C12.6212121,17.2424242 12.9090909,17.530303 12.9090909,17.8787879 C12.9090909,18.2272727 12.6212121,18.5151515 12.2727273,18.5151515 Z M18.5151515,12.1212121 C18.5151515,12.7272727 18.030303,13.2121212 17.4242424,13.2121212 C16.8181818,13.2121212 16.3333333,12.7272727 16.3333333,12.1212121 L16.3333333,9.39393939 C16.3333333,8.78787879 16.8181818,8.3030303 17.4242424,8.3030303 C18.030303,8.3030303 18.5151515,8.78787879 18.5151515,9.39393939 L18.5151515,12.1212121 Z" id="形状"></path>
                </g>
            </g>
        </g>
    </g>
</svg>