<?xml version="1.0" standalone="no"?><!DOCTYPE svg PUBLIC "-//W3C//DTD SVG 1.1//EN" "http://www.w3.org/Graphics/SVG/1.1/DTD/svg11.dtd"><svg t="1559296400170" class="icon" style="" viewBox="0 0 1024 1024" version="1.1" xmlns="http://www.w3.org/2000/svg" p-id="6646" xmlns:xlink="http://www.w3.org/1999/xlink" width="200" height="200"><defs><style type="text/css"></style></defs><path d="M190.6 47.7h642.9c78.9 0 142.9 64 142.9 142.9v642.9c0 78.9-64 142.9-142.9 142.9H190.6c-78.9 0-142.9-64-142.9-142.9V190.6c0-78.9 64-142.9 142.9-142.9z" fill="#6D6DF2" opacity=".12" p-id="6647"></path><path d="M833.4 1012H190.6C92.1 1012 12 931.9 12 833.4V190.6C12 92.1 92.1 12 190.6 12h642.9c98.5 0 178.6 80.1 178.6 178.6v642.9c-0.1 98.4-80.2 178.5-178.7 178.5zM190.6 83.4c-59.1 0-107.1 48.1-107.1 107.1v642.9c0 59.1 48.1 107.1 107.1 107.1h642.9c59.1 0 107.1-48.1 107.1-107.1V190.6c0-59.1-48.1-107.1-107.1-107.1H190.6z" fill="#6D6DF2" p-id="6648"></path><path d="M344.8 811.9c28.1-19 53.2-37.7 75.3-55.7 22.1-18.1 41.5-36.6 58.2-55.4 16.6-18.8 30.8-38.4 42.5-58.9 11.6-20.5 21.1-42.6 28.3-66.5h-52.2v9.3c0 5.3-2 9.8-5.7 13.6-3.8 3.8-8.4 5.7-13.5 5.7h-29.3c-4.7 0-9.2-1.9-13.3-5.7s-6.1-8.3-6.1-13.6V396.2c-9.6 7.1-18.8 13.6-27.8 19.3-1.4 1.4-3.1 1.7-5 0.7s-3.6-2.4-5-4.3V739c0 5.7-1.9 10.5-5.7 14.3-3.8 3.8-8.3 5.7-13.5 5.7h-25.7c-4.8 0-9.2-1.9-13.3-5.7-4-3.8-6.1-8.6-6.1-14.3v-24.3h-62.2V759c0 5.2-2 9.8-5.7 13.6-3.8 3.8-8.4 5.7-13.5 5.7h-27.2c-4.7 0-9.1-1.9-13.2-5.7-4-3.8-6.1-8.4-6.1-13.6V248.3c0-5.2 1.9-9.7 5.7-13.5 3.8-3.8 8.3-5.7 13.5-5.7h27.2c4.7 0 9 1.7 12.8 5 3.8 3.3 5.9 7.6 6.4 12.8h62.2c0-5.7 1.9-10.5 5.7-14.3 3.8-3.8 8.3-5.7 13.6-5.7h25.7c5.2 0 9.8 2 13.5 5.7 3.8 3.8 5.7 8.6 5.7 14.3v147.9c13.4-16.7 25.1-32.5 35.4-47.5 10.2-15 19.4-29.9 27.5-44.6 8.1-14.8 15.7-29.9 22.9-45.4 7.1-15.4 14-32.2 20.6-50.4 2-6.6 5.4-11 10.3-13.2 5-2.2 10.9-2.2 17.6-0.3l36.4 12.1c5.2 1.4 8.8 4.4 10.7 8.9 1.8 4.5 1.7 8.9-0.8 13.2-2.9 5.7-5.8 11.2-8.9 16.5-3.1 5.2-6.3 10.5-9.6 15.7h98.6l3.6-8.6c2.8-6.6 6.8-11 12.1-12.8 5.2-1.9 10.5-1.7 15.6 0.7 8.1 3.8 15.1 7.4 20.8 10.7 5.7 3.3 11.2 6.9 16.4 10.7 10 7.7 10 17.4 0 29.3-10.5 13.4-24.2 28.6-41.1 45.8-16.9 17.1-33.6 32.6-50.4 46.4h87.9c0-5.2 2-9.8 6.1-13.5 4-3.8 8.4-5.7 13.2-5.7h29.3c5.3 0 9.8 2 13.6 6.1 3.8 4 5.7 8.6 5.7 14v192.8c0 5.3-1.8 9.8-5.7 13.6s-8.3 5.7-13.6 5.7h-29.3c-4.7 0-9.1-1.9-13.2-5.7s-6.1-8.3-6.1-13.6h-95.7c-8.6 29.6-20 56.6-34.3 81.1-14.2 24.5-32.1 47.2-53.6 68.2-21.4 21-46.9 40.2-76.5 57.9-29.5 17.6-63.5 34-102.1 49.2-2.4 0.5-4.5 0-6.4-1.4s-3.5-3.3-4.6-5.7c-1.3-2.4-1.8-4.7-1.8-7.1 0.3-2.7 1.3-4.6 3.2-6z m-80-347.2H327V276.2h-62.2v188.5z m0 220.7H327V493.3h-62.2v192.1z m267.8-394.9c-20.9 29.5-44.5 55.9-70.7 79.2h15.8c8.1 0 13.8 4 17.2 12.1H592c9.5-16.7 18-32.6 25.4-47.9 7.3-15.2 14.4-29.7 21.1-43.5H532.6z m24.3 254.2c4.3-19 7.5-39.4 9.6-61.1 2.2-21.6 3.7-45.3 4.7-71h-74.3v132.1h60z m54.3 81.4c0-8.1 2-14.2 5.7-18.2 3.8-4 10.5-6.1 20-6.1h21.4c13.8 0 20.7 7.2 20.7 21.4v78.6c0 9.1 0.5 16.2 1.5 21.4 1 5.2 2.9 9.3 6 12.1 3.1 2.9 7.7 4.7 13.7 5.7 5.9 1 13.9 1.7 23.9 2.2 17.2 0.5 32.2 0.3 45.1-0.3 12.8-0.8 27.8-1.5 44.9-2.5 10 0 13.1 5.2 9.3 15.7-1.5 4.3-3.1 8.9-5 14-2 5-4.5 10.8-7.8 17.5-3.9 6.6-7.4 11.2-10.7 13.5-3.3 2.4-8.6 3.8-15.8 4.3-7.1 0.9-13.8 1.5-19.9 1.7-6.2 0.3-12.8 0.5-19.7 0.7-6.9 0.3-14.2 0.3-22.2 0-7.8-0.2-17-0.6-27.5-1-13.3-0.5-25.1-2-35.3-4.6-10.3-2.7-19-7.2-26.1-13.6-7.1-6.4-12.6-15.3-16.5-26.4-3.8-11.2-5.7-25.8-5.7-43.9v-92.2z m32.1-213.5c-0.9 24.3-2.4 47.4-4.7 69.3-2.1 21.9-5.3 42.8-9.6 62.8h87.9V412.6h-73.6z" fill="#6D6DF2" p-id="6649"></path></svg>