<?xml version="1.0" encoding="UTF-8"?>
<svg width="188px" height="188px" viewBox="0 0 188 188" version="1.1" xmlns="http://www.w3.org/2000/svg" xmlns:xlink="http://www.w3.org/1999/xlink">
    <!-- Generator: Sketch 55.2 (78181) - https://sketchapp.com -->
    <title>编组 6</title>
    <desc>Created with Sketch.</desc>
    <defs>
        <radialGradient cx="50%" cy="50%" fx="50%" fy="50%" r="70.6139247%" gradientTransform="translate(0.500000,0.500000),rotate(90.000000),scale(1.000000,0.704932),translate(-0.500000,-0.500000)" id="radialGradient-1">
            <stop stop-color="#FFFFFF" offset="0%"></stop>
            <stop stop-color="#F0FAFF" offset="100%"></stop>
        </radialGradient>
        <circle id="path-2" cx="92" cy="92" r="92"></circle>
        <linearGradient x1="50%" y1="0%" x2="50%" y2="82.497077%" id="linearGradient-4">
            <stop stop-color="#FAE81E" offset="0%"></stop>
            <stop stop-color="#F9DD0C" offset="100%"></stop>
        </linearGradient>
        <linearGradient x1="50%" y1="100%" x2="50%" y2="9.59976201%" id="linearGradient-5">
            <stop stop-color="#FFF7ED" offset="0%"></stop>
            <stop stop-color="#FEE8D6" offset="100%"></stop>
        </linearGradient>
        <linearGradient x1="50%" y1="0%" x2="50%" y2="100%" id="linearGradient-6">
            <stop stop-color="#FFF7ED" offset="0%"></stop>
            <stop stop-color="#FEE8D6" offset="100%"></stop>
        </linearGradient>
        <linearGradient x1="50%" y1="0%" x2="50%" y2="100%" id="linearGradient-7">
            <stop stop-color="#FFF7ED" offset="0%"></stop>
            <stop stop-color="#FEEBD6" offset="100%"></stop>
        </linearGradient>
        <linearGradient x1="-1.11022302e-14%" y1="50%" x2="100%" y2="50%" id="linearGradient-8">
            <stop stop-color="#656368" offset="0%"></stop>
            <stop stop-color="#5B5B60" offset="100%"></stop>
        </linearGradient>
    </defs>
    <g id="页面1" stroke="none" stroke-width="1" fill="none" fill-rule="evenodd">
        <g id="v1.0_我的_开通刷脸" transform="translate(-94.000000, -214.000000)">
            <g id="编组-6" transform="translate(96.000000, 216.000000)">
                <g id="编组-2">
                    <mask id="mask-3" fill="white">
                        <use xlink:href="#path-2"></use>
                    </mask>
                    <circle stroke="#44D7B6" stroke-width="2" cx="92" cy="92" r="93"></circle>
                    <g id="编组" mask="url(#mask-3)">
                        <g transform="translate(36.000000, 46.000000)">
                            <path d="M80.1658438,100.828754 C81.4343011,101.27084 82.7821564,101.77284 84.2511198,102.342615 C94.7052637,106.397527 107.398131,112.377203 111.054783,124.816218 L112.512005,148.525057 L1.13686838e-13,148.525057 C1.13686838e-13,140.213655 1.13686838e-13,132.535488 1.13686838e-13,125.490557 C6.91847261,111.125575 15.0403609,108.248182 25.6030294,103.765508 C27.959691,102.765368 30.1794958,101.905552 32.3425516,101.173478 C38.1646643,104.393911 46.5854314,106.417476 55.9514563,106.417476 C65.6473865,106.417476 74.3302951,104.248845 80.1658438,100.828754 Z" id="形状结合" fill="url(#linearGradient-4)"></path>
                            <path d="M45.1479509,78.9902913 C45.3697763,83.1396378 45.1999581,87.4246063 44.6384962,91.8451965 C44.0770344,96.2657868 41.6150137,98.8812951 37.2524342,99.6917215 C40.626524,101.771556 47.1374153,102.811473 56.7851079,102.811473 C66.4328006,102.811473 72.5483774,101.609473 75.1318384,99.2054712 C70.760093,97.9259102 68.5742203,95.4724853 68.5742203,91.8451965 C68.5742203,88.2179078 68.77188,83.8147237 69.1671995,78.6356442 L45.1479509,78.9902913 Z" id="路径-10" fill="url(#linearGradient-5)"></path>
                            <ellipse id="椭圆形" fill="url(#linearGradient-6)" cx="56.5819113" cy="52.1786005" rx="29.0728155" ry="36.2038835"></ellipse>
                            <path d="M28.2711071,56.2906396 C27.3446255,46.4086361 28.6296716,39.372014 32.1262455,35.1807732 C37.3711063,28.893912 44.8535722,28.2822755 56.8521176,30.3236455 C63.4951663,31.5584641 73.9630266,30.1821735 77.1889978,23.5984008 C79.2338241,19.4570062 80.8897179,14.0917847 78.3374689,10.4117502 C74.043068,4.68944613 64.5862006,2.83616608 54.8631677,2.80940946 C41.415593,2.76654516 33.8028212,8.30106301 30.8214506,11.2428839 C20.0675341,21.5972772 21.592845,36.5183973 22.7608015,44.3251823 C23.5394392,49.5297057 25.3762077,53.5181914 28.2711071,56.2906396 Z" id="路径-8" fill="#52525A"></path>
                            <path d="M83.2643975,54.7243807 C83.2643975,41.6800488 80.7510234,32.2290212 75.7242752,26.3712979 C70.1899161,19.4996123 71.9358072,14.0847624 76.4553953,13.8086761 C80.9749834,13.5325899 83.1175781,15.4653314 85.1788663,18.8954422 C87.2401546,22.3255529 88.1660787,25.7803123 88.1660787,29.9728836 C88.1660787,34.1654549 87.4692949,50.3942138 85.6815521,53.1470213 C84.4897235,54.9822263 83.6840053,55.5080128 83.2643975,54.7243807 Z" id="路径-9" fill="#52525A"></path>
                            <path d="M30.8305476,47.8647865 C27.0900014,45.3909461 24.481939,45.3112647 23.0063605,47.6257422 C20.8746419,50.7820845 22.1293223,57.0471913 25.1276024,61.7241051 C27.1264558,64.8420476 29.0274375,65.5288752 30.8305476,63.7845876 L30.8305476,47.8647865 Z" id="路径-7" fill="url(#linearGradient-7)"></path>
                            <path d="M91.2522647,47.8647865 C87.5117185,45.3909461 84.9036561,45.3112647 83.4280776,47.6257422 C81.296359,50.7820845 82.5510394,57.0471913 85.5493195,61.7241051 C87.5481729,64.8420476 89.4491546,65.5288752 91.2522647,63.7845876 L91.2522647,47.8647865 Z" id="路径-7备份" fill="url(#linearGradient-7)" transform="translate(86.807865, 55.335434) scale(-1, 1) translate(-86.807865, -55.335434) "></path>
                            <path d="M32.8438957,25.153544 C36.8441074,22.6899159 40.6086363,22.1946567 44.1374823,23.6677665 C49.4307513,25.8774311 56.7834635,32.2526416 65.9447104,30.3778725 C75.1059572,28.5031034 80.1626444,24.0346745 79.6360408,14.5185894 C79.1094373,5.00250429 67.6683409,0 60.0934737,0 C52.5186066,0 41.1417023,0.768842472 36.9503896,3.04499622 C35.1791064,4.01302097 33.7515629,4.43717384 32.6677592,4.31745482 L36.9503896,6.69367659 C33.149214,10.1115776 31.1308085,14.2083172 30.8951731,18.9838955 C30.6595378,23.7594738 30.6595378,26.4900382 30.8951731,27.1755886 L32.8438957,25.153544 Z" id="路径-6" fill="url(#linearGradient-8)"></path>
                            <path d="M32.3418365,101.171662 C38.6392074,104.668871 46.7192324,106.417476 56.5819113,106.417476 C66.4445902,106.417476 74.2880545,104.554568 80.1123042,100.828754 L75.1318384,99.2054712 C69.3867692,101.535435 63.2034601,102.700417 56.5819113,102.700417 C49.9603624,102.700417 43.5172034,101.697518 37.2524342,99.6917215 L32.3418365,101.171662 Z" id="路径-12" fill="#FFFFFF"></path>
                        </g>
                    </g>
                </g>
                <g id="编组-3" transform="translate(42.000000, 39.000000)" fill="#44D7B6" fill-rule="nonzero">
                    <polygon id="路径-13" points="8.1 2 8.1 1.84741111e-13 -4.26325641e-14 1.84741111e-13 -4.26325641e-14 8.1 2 8.1 2 2"></polygon>
                    <polygon id="路径-13备份-2" transform="translate(4.050000, 89.050000) scale(1, -1) translate(-4.050000, -89.050000) " points="8.1 87 8.1 85 -4.26325641e-14 85 -4.26325641e-14 93.1 2 93.1 2 87"></polygon>
                    <polygon id="路径-13备份" transform="translate(93.050000, 4.050000) scale(-1, 1) translate(-93.050000, -4.050000) " points="97.1 2 97.1 1.84741111e-13 89 1.84741111e-13 89 8.1 91 8.1 91 2"></polygon>
                    <polygon id="路径-13备份-3" transform="translate(93.050000, 89.050000) scale(-1, -1) translate(-93.050000, -89.050000) " points="97.1 87 97.1 85 89 85 89 93.1 91 93.1 91 87"></polygon>
                </g>
            </g>
        </g>
    </g>
</svg>