<?xml version="1.0" standalone="no"?><!DOCTYPE svg PUBLIC "-//W3C//DTD SVG 1.1//EN" "http://www.w3.org/Graphics/SVG/1.1/DTD/svg11.dtd"><svg t="1554195251665" class="icon" style="" viewBox="0 0 1024 1024" version="1.1" xmlns="http://www.w3.org/2000/svg" p-id="2323" xmlns:xlink="http://www.w3.org/1999/xlink" width="200" height="200"><defs><style type="text/css"></style></defs><path d="M512 62C263.9 62 62 263.9 62 512s201.9 450 450 450 450-201.9 450-450S760.1 62 512 62z m0 771.8c-26.6 0-48.2-21.6-48.2-48.2s21.6-48.2 48.2-48.2 48.2 21.6 48.2 48.2-21.6 48.2-48.2 48.2z m89-328.6c-28 27.9-56.8 56.8-56.8 82.7v54.4c0 17.7-14.4 32.1-32.1 32.1S480 660 480 642.3v-54.4c0-52.6 40.2-92.8 75.7-128.2 26-26 52.9-52.9 52.9-74.3 0-53.6-43.3-97.2-96.4-97.2-54.1 0-96.4 41.7-96.4 95 0 17.7-14.4 32.1-32.1 32.1-17.7 0-32.1-14.4-32.1-32.1 0-87.8 72.1-159.3 160.7-159.3S673 296.3 673 385.4c-0.3 48-36.8 84.5-72 119.8z" fill="#292928" p-id="2324"></path></svg>