<?xml version="1.0" encoding="UTF-8"?>
<svg width="13px" height="11px" viewBox="0 0 13 11" version="1.1" xmlns="http://www.w3.org/2000/svg" xmlns:xlink="http://www.w3.org/1999/xlink">
    <!-- Generator: Sketch 55.2 (78181) - https://sketchapp.com -->
    <title>70625D81-87FB-466C-9EDC-D9575E553C3A</title>
    <desc>Created with Sketch.</desc>
    <defs>
        <linearGradient x1="50%" y1="0%" x2="50%" y2="100%" id="linearGradient-1">
            <stop stop-color="#00DDFF" offset="0%"></stop>
            <stop stop-color="#0D72FF" offset="100%"></stop>
        </linearGradient>
    </defs>
    <g id="页面1" stroke="none" stroke-width="1" fill="none" fill-rule="evenodd">
        <g id="v1.0_个人中心备份" transform="translate(-81.000000, -109.000000)" fill="url(#linearGradient-1)" fill-rule="nonzero">
            <g id="编组-4" transform="translate(76.000000, 105.000000)">
                <g id="会员" transform="translate(5.000000, 4.000000)">
                    <path d="M6.34686747,10.9933735 C5.91614458,10.9933735 5.5,10.8171084 5.20048193,10.506988 L0.457228916,5.6060241 C-0.100722892,5.02951807 -0.14313253,4.12301205 0.360481928,3.49746988 L2.68903614,0.603012048 C2.99385542,0.223975904 3.44710843,0.00795180723 3.93216867,0.00795180723 L8.39445783,0.00795180723 C8.86096386,0.00795180723 9.30361446,0.212048193 9.60710843,0.565903614 L12.0138554,3.37951807 C12.2643373,3.67373494 12.4008434,4.04746988 12.3969519,4.43445783 C12.3928916,4.82012048 12.2484337,5.19253012 11.9913253,5.48012048 L7.53566265,10.4606024 C7.24144578,10.7892771 6.82,10.9840964 6.3773494,10.9920482 C6.36807229,10.9920482 6.35746988,10.9933735 6.34686747,10.9933735 Z M3.93216867,1.06686747 C3.76915663,1.06686747 3.61674699,1.13975904 3.5146988,1.26698795 L1.18614458,4.16144578 C1.01783133,4.37084337 1.03108434,4.67566265 1.21927711,4.86915663 L5.96253012,9.77012048 C6.06722892,9.87746988 6.20771084,9.93578313 6.35746988,9.93321909 C6.50722892,9.93048193 6.64506024,9.86686747 6.74578313,9.75421687 L11.1987952,4.77240964 C11.3763855,4.57361446 11.3803614,4.27144578 11.206747,4.0686747 L8.8013253,1.25506024 C8.69927711,1.13578313 8.55084337,1.06819277 8.39445783,1.06819277 L3.93216867,1.06819277 L3.93216867,1.06686747 Z M6.20771084,8.0353012 C5.96385542,8.0353012 5.7186747,7.94253012 5.53313253,7.75566265 L3.1926506,5.41385542 C2.98590361,5.20710843 2.98590361,4.87180723 3.1926506,4.66373494 C3.39939759,4.45698795 3.7346988,4.45698795 3.94277108,4.66373494 L6.20903614,6.93 L8.46337349,4.67566265 C8.67012048,4.46891566 9.00542169,4.46891566 9.21349398,4.67566265 C9.42156627,4.88240964 9.42024096,5.21771084 9.21349398,5.42578313 L6.88228916,7.75566265 C6.69674699,7.94120482 6.45289157,8.0353012 6.20771084,8.0353012 Z" id="形状结合"></path>
                </g>
            </g>
        </g>
    </g>
</svg>