<?xml version="1.0" standalone="no"?><!DOCTYPE svg PUBLIC "-//W3C//DTD SVG 1.1//EN" "http://www.w3.org/Graphics/SVG/1.1/DTD/svg11.dtd"><svg t="1555654927213" class="icon" style="" viewBox="0 0 1024 1024" version="1.1" xmlns="http://www.w3.org/2000/svg" p-id="3211" xmlns:xlink="http://www.w3.org/1999/xlink" width="200" height="200"><defs><style type="text/css"></style></defs><path d="M522.9 926.5c-32.5 0-63.9-13.3-86.5-36.7L78.5 520c-42.1-43.5-45.3-111.9-7.3-159.1l175.7-218.4c23-28.6 57.2-44.9 93.8-44.9h336.7c35.2 0 68.6 15.4 91.5 42.1L950.5 352c18.9 22.2 29.2 50.4 28.9 79.6-0.3 29.1-11.2 57.2-30.6 78.9L612.6 886.3c-22.2 24.8-54 39.5-87.4 40.1-0.7 0-1.5 0.1-2.3 0.1z m-182.2-749c-12.3 0-23.8 5.5-31.5 15.1L133.5 411c-12.7 15.8-11.7 38.8 2.5 53.4l357.9 369.8c7.9 8.1 18.5 12.5 29.8 12.3 11.3-0.2 21.7-5 29.3-13.5l336-375.9c13.4-15 13.7-37.8 0.6-53.1L708.1 191.7c-7.7-9-18.9-14.1-30.7-14.1H340.7z" fill="#353534" p-id="3212"></path><path d="M512.4 703.3c-18.4 0-36.9-7-50.9-21.1L284.9 505.5c-15.6-15.6-15.6-40.9 0-56.6 15.6-15.6 40.9-15.6 56.6 0l171 171 170.1-170.1c15.6-15.6 40.9-15.6 56.6 0s15.6 40.9 0 56.6L563.3 682.2c-14 14-32.4 21.1-50.9 21.1z" fill="#727270" p-id="3213"></path></svg>