<?xml version="1.0" standalone="no"?><!DOCTYPE svg PUBLIC "-//W3C//DTD SVG 1.1//EN" "http://www.w3.org/Graphics/SVG/1.1/DTD/svg11.dtd"><svg t="1559296393571" class="icon" style="" viewBox="0 0 1024 1024" version="1.1" xmlns="http://www.w3.org/2000/svg" p-id="6418" xmlns:xlink="http://www.w3.org/1999/xlink" width="200" height="200"><defs><style type="text/css"></style></defs><path d="M190.6 47.7h642.9c78.9 0 142.9 64 142.9 142.9v642.9c0 78.9-64 142.9-142.9 142.9H190.6c-78.9 0-142.9-64-142.9-142.9V190.6c0-78.9 64-142.9 142.9-142.9z" fill="#47CCB6" opacity=".117" p-id="6419"></path><path d="M833.4 1012H190.6C92.1 1012 12 931.9 12 833.4V190.6C12 92.1 92.1 12 190.6 12h642.9c98.5 0 178.6 80.1 178.6 178.6v642.9c-0.1 98.4-80.2 178.5-178.7 178.5zM190.6 83.4c-59.1 0-107.1 48.1-107.1 107.1v642.9c0 59.1 48.1 107.1 107.1 107.1h642.9c59.1 0 107.1-48.1 107.1-107.1V190.6c0-59.1-48.1-107.1-107.1-107.1H190.6z" fill="#47CCB6" p-id="6420"></path><path d="M192.7 639.2c0-2.9 1.2-5.5 3.6-7.9 2.4-2.4 5-3.6 7.9-3.6h265V522H351.3v5c0 5.7-1.9 10.5-5.7 14.3-3.8 3.8-8.4 5.7-13.6 5.7h-41.4c-4.7 0-9.1-2-13.2-5.7-4-3.8-6.1-8.6-6.1-14.3V226.3c0-5.7 1.9-10.5 5.7-14.3 3.8-3.8 8.3-5.7 13.5-5.7H332c4.3 0 8.4 1.9 12.5 5.7 4 3.8 6.3 8.4 6.8 13.6H667c0-5.7 2-10.5 6.1-14.3 4-3.8 8.4-5.7 13.2-5.7h41.4c5.2 0 9.8 1.9 13.6 5.7 3.8 3.8 5.7 8.6 5.7 14.3v298.5c0 5.2-1.9 9.8-5.7 13.5-3.8 3.8-8.4 5.7-13.6 5.7h-41.4c-4.7 0-9.1-1.9-13.2-5.7-4-3.8-6.1-8.3-6.1-13.5V522H550.5v105.7h269.3c2.9 0 5.4 1.2 7.9 3.6 2.4 2.4 3.6 5 3.6 7.9v10.7c0 2.9-1.2 5.4-3.6 7.5-2.4 2.1-5 3.2-7.9 3.2H550.5v138.5c0 5.7-1.9 10.4-5.7 14-3.8 3.6-8.4 5.4-13.6 5.4h-42.8c-5.3 0-9.8-1.8-13.6-5.4-3.8-3.6-5.7-8-5.7-13.2V660.6h-265c-2.9 0-5.5-1.1-7.9-3.2-2.4-2.2-3.6-4.7-3.6-7.5v-10.7z m158.6-281.5H667V257H351.3v100.7z m0 132.9H667V389.2H351.3v101.4z" fill="#47CCB6" p-id="6421"></path></svg>