<?xml version="1.0" encoding="UTF-8"?>
<svg width="14px" height="12px" viewBox="0 0 14 12" version="1.1" xmlns="http://www.w3.org/2000/svg" xmlns:xlink="http://www.w3.org/1999/xlink">
    <!-- Generator: Sketch 58 (84663) - https://sketch.com -->
    <title>7435A307-4703-43B8-AD50-BBE757315B9B</title>
    <desc>Created with Sketch.</desc>
    <defs>
        <linearGradient x1="31.8896191%" y1="100%" x2="68.1103809%" y2="25.2144771%" id="linearGradient-1">
            <stop stop-color="#F2CF9B" offset="0%"></stop>
            <stop stop-color="#F0DBBF" offset="100%"></stop>
        </linearGradient>
        <linearGradient x1="50%" y1="0%" x2="50%" y2="100%" id="linearGradient-2">
            <stop stop-color="#F2CF9B" offset="0%"></stop>
            <stop stop-color="#D69F58" offset="100%"></stop>
        </linearGradient>
    </defs>
    <g id="页面1" stroke="none" stroke-width="1" fill="none" fill-rule="evenodd">
        <g id="v1.04_个人中心备份" transform="translate(-88.000000, -115.000000)" fill-rule="nonzero">
            <g id="编组-6" transform="translate(82.000000, 112.000000)">
                <g id="会员" transform="translate(6.000000, 3.000000)">
                    <path d="M13.1813559,3.57118644 C13.1101695,3.40508475 12.9322034,3.33389831 12.7661017,3.40508475 L10.2271186,4.49661017 C10.0966102,4.5559322 9.94237288,4.50847458 9.85932203,4.40169492 L7.24915254,1.10338983 C7.23728814,1.07966102 7.21355932,1.06779661 7.20169492,1.0559322 C7.14237288,1.00847458 7.07118644,0.984745763 7,0.984745763 L7,11.3067797 L10.559322,11.3067797 C11.1644068,11.3067797 11.6745763,10.8915254 11.7932203,10.2983051 L13.2050847,3.74915254 C13.2169492,3.68983051 13.2169492,3.63050847 13.1813559,3.57118644 Z" id="路径" fill="url(#linearGradient-1)"></path>
                    <path d="M0.818644068,3.57118644 C0.889830508,3.40508475 1.06779661,3.33389831 1.23389831,3.40508475 L3.77288136,4.49661017 C3.90338983,4.5559322 4.05762712,4.50847458 4.14067797,4.40169492 L6.75084746,1.10338983 C6.76271186,1.07966102 6.78644068,1.06779661 6.79830508,1.0559322 C6.85762712,1.00847458 6.92881356,0.984745763 7,0.984745763 L7,11.3067797 L3.44067797,11.3067797 C2.83559322,11.3067797 2.32542373,10.8915254 2.20677966,10.2983051 L0.794915254,3.76101695 C0.783050847,3.68983051 0.783050847,3.63050847 0.818644068,3.57118644 Z" id="路径" fill="url(#linearGradient-2)"></path>
                    <circle id="椭圆形" fill="#E9BF84" cx="0.949152542" cy="3.57118644" r="1"></circle>
                    <circle id="椭圆形" fill="#F0DABB" cx="12.9677966" cy="3.57118644" r="1"></circle>
                    <path d="M7,0 L7,2.13559322 C7.59322034,2.13559322 8.06779661,1.66101695 8.06779661,1.06779661 C8.06779661,0.486440678 7.59322034,0 7,0 Z" id="路径" fill="#F0D8B6"></path>
                    <path d="M7,0 L7,2.13559322 C6.40677966,2.13559322 5.93220339,1.66101695 5.93220339,1.06779661 C5.93220339,0.486440678 6.40677966,0 7,0 Z" id="路径" fill="#EFCA94"></path>
                </g>
            </g>
        </g>
    </g>
</svg>