<?xml version="1.0" encoding="UTF-8"?>
<svg width="8px" height="12px" viewBox="0 0 8 12" version="1.1" xmlns="http://www.w3.org/2000/svg" xmlns:xlink="http://www.w3.org/1999/xlink">
    <!-- Generator: Sketch 55.2 (78181) - https://sketchapp.com -->
    <title>BD81040A-F65B-49EC-8527-18263E46017F</title>
    <desc>Created with Sketch.</desc>
    <g id="页面1" stroke="none" stroke-width="1" fill="none" fill-rule="evenodd">
        <g id="v1.03_新增地址" transform="translate(-351.000000, -182.000000)">
            <g id="编组-77" transform="translate(351.000000, 182.000000)">
                <g>
                    <path d="M6.10891334,11.9849971 L0.0155126066,6.17105491 C-0.00494447447,6.06476486 -0.005396031,5.93622276 0.0155126066,5.82905831 L6.10891334,0.0151161481 C6.15594302,-0.0044277162 6.28845394,-0.00564059438 6.46734868,0.0151161481 L7.18421935,0.699109344 C7.20463996,0.877729214 7.20561374,1.00656315 7.18421935,1.04110594 L2.16612463,5.82905831 C2.0941435,5.93494932 2.09271298,6.06422364 2.16612463,6.17105491 L7.18421935,10.9590073 C7.20418322,10.9926098 7.20631035,11.1212125 7.18421935,11.3010039 L6.46734868,11.9849971 C6.29012433,12.0045823 6.15639458,12.0054153 6.10891334,11.9849971 Z" id="Rectangle-复制-4备份-2" fill="#A0A1A3" transform="translate(3.600000, 6.000000) scale(-1, 1) translate(-3.600000, -6.000000) "></path>
                    <rect id="矩形" x="0" y="0" width="7" height="12"></rect>
                </g>
            </g>
        </g>
    </g>
</svg>