<?xml version="1.0" standalone="no"?><!DOCTYPE svg PUBLIC "-//W3C//DTD SVG 1.1//EN" "http://www.w3.org/Graphics/SVG/1.1/DTD/svg11.dtd"><svg t="1559296396621" class="icon" style="" viewBox="0 0 1024 1024" version="1.1" xmlns="http://www.w3.org/2000/svg" p-id="6532" xmlns:xlink="http://www.w3.org/1999/xlink" width="200" height="200"><defs><style type="text/css"></style></defs><path d="M190.6 47.7h642.9c78.9 0 142.9 64 142.9 142.9v642.9c0 78.9-64 142.9-142.9 142.9H190.6c-78.9 0-142.9-64-142.9-142.9V190.6c0-78.9 64-142.9 142.9-142.9z" fill="#FFA333" opacity=".12" p-id="6533"></path><path d="M833.4 1012H190.6C92.1 1012 12 931.9 12 833.4V190.6C12 92.1 92.1 12 190.6 12h642.9c98.5 0 178.6 80.1 178.6 178.6v642.9c-0.1 98.4-80.2 178.5-178.7 178.5zM190.6 83.4c-59.1 0-107.1 48.1-107.1 107.1v642.9c0 59.1 48.1 107.1 107.1 107.1h642.9c59.1 0 107.1-48.1 107.1-107.1V190.6c0-59.1-48.1-107.1-107.1-107.1H190.6z" fill="#FFA333" p-id="6534"></path><path d="M225.9 457.3c11.9-20 23.2-39.6 33.9-58.6s20.7-38.3 30-57.8 17.8-39.6 25.4-60.1c7.6-20.4 14.5-42.3 20.7-65.7 4.3-16.6 14-23.6 29.3-20.7 5.2 1 11.4 2.3 18.6 4 7.1 1.7 14 3.4 20.7 5.4 9.1 2.4 14.5 6.1 16.5 11.4 1.9 5.3 1.1 11.9-2.2 20-2.9 7.2-6.2 14.8-10 22.9-3.8 8.1-7.8 16.2-12.1 24.3h383.6c3.8 0 6.9 1.2 9.3 3.6s3.6 5.2 3.6 8.6v10c0 3.3-1.3 6.2-3.6 8.6-2.4 2.4-5.4 3.6-9.3 3.6H565.9v212.9h250.7c3.8 0 6.9 1.2 9.3 3.6 2.4 2.4 3.6 5.5 3.6 9.3V553c0 3.3-1.2 6.2-3.6 8.6-2.4 2.4-5.5 3.6-9.3 3.6H565.9v245c0 5.7-1.9 10.5-5.7 14.3-3.8 3.8-8.3 5.7-13.5 5.7h-43.6c-5.2 0-9.8-1.9-13.5-5.7-3.8-3.8-5.7-8.6-5.7-14.3v-245H207.4c-3.8 0-6.9-1-9.3-3.2-2.4-2.2-3.6-5.1-3.6-8.9v-10.7c0-3.8 1.2-6.9 3.6-9.3 2.4-2.4 5.4-3.6 9.3-3.6h276.4V316.6h-105c-16.7 29.1-36.2 57.8-58.5 86.1-22.4 28.4-47.6 52.5-75.8 72.5-1.9 1.4-4.3 1.7-7.1 0.7-2.9-1-5.4-2.4-7.5-4.3-2.1-2-3.7-4.2-4.6-6.8-1-2.6-0.8-5.1 0.6-7.5z" fill="#FFA333" p-id="6535"></path></svg>