<?xml version="1.0" encoding="utf-8"?>
<!-- Generator: Adobe Illustrator 23.0.1, SVG Export Plug-In . SVG Version: 6.00 Build 0)  -->
<svg version="1.1" id="图层_1" xmlns="http://www.w3.org/2000/svg" xmlns:xlink="http://www.w3.org/1999/xlink" x="0px" y="0px"
	 viewBox="0 0 144 144" style="enable-background:new 0 0 144 144;" xml:space="preserve">
<style type="text/css">
	.st0{fill-rule:evenodd;clip-rule:evenodd;fill:#EDEEEF;}
	.st1{fill-rule:evenodd;clip-rule:evenodd;fill:#DBDBDB;}
	.st2{fill-rule:evenodd;clip-rule:evenodd;fill:#D6D6D6;}
</style>
<rect class="st0" width="144" height="144"/>
<g>
	<g>
		<g>
			<path class="st1" d="M442,64.6c-1.2,0-2.2,1-2.2,2.2c0,1.2,1,2.2,2.2,2.2h8v-4.5H442z"/>
		</g>
		<g>
			<path class="st1" d="M449.9,61.1c0-1.2-1-2.2-2.2-2.2c-1.2,0-2.2,1-2.2,2.2v8h4.5V61.1z"/>
		</g>
		<g>
			<path class="st1" d="M457.9,73.5c1.2,0,2.2-1,2.2-2.2c0-1.2-1-2.2-2.2-2.2h-8v4.5H457.9z"/>
		</g>
		<g>
			<path class="st1" d="M449.9,77c0,1.2,1,2.2,2.2,2.2c1.2,0,2.2-1,2.2-2.2v-8h-4.5V77z"/>
		</g>
	</g>
	<polygon class="st1" points="423.7,58.8 436.1,58.8 419.4,105.1 407,105.1 	"/>
	<polygon class="st1" points="393.4,60.1 383.4,88 395.7,88 399.6,77.2 	"/>
	<polygon class="st1" points="365.1,40.2 347.9,88 360.2,88 371.3,57.3 	"/>
	<polygon class="st1" points="389.1,69.6 378,38.9 365.6,38.9 382.9,86.7 	"/>
	<polygon class="st1" points="414.5,81.7 406.3,58.8 393.9,58.8 404.4,88 412.3,88 	"/>
</g>
<g>
	<g>
		<path class="st2" d="M17.4,92.9c-0.1,0.3-0.3,0.7-0.4,1.2c0-0.1-0.1-0.2-0.1-0.3c-0.2-0.4-0.3-0.7-0.3-0.8l-2.7-6.8h-2v10h1.5v-6
			c0-0.7,0-1.4-0.1-2.2h0.1c0.1,0.5,0.3,1.1,0.5,1.7l2.5,6.4h1.2l2.5-6.4c0.3-0.6,0.5-1.2,0.6-1.7h0c-0.1,1-0.1,1.7-0.1,2.2v6h1.6
			v-10h-2L17.4,92.9z"/>
		<path class="st2" d="M28.4,90.4c0,0-0.1,0.1-0.1,0.1c0,0.1-0.1,0.1-0.1,0.1c-0.1-0.2-0.1-0.3-0.1-0.3c0,0,0-0.1,0-0.1l-2.8-4.2
			h-1.9l4.1,6v4.1h1.6v-4.1l4.3-5.9h-2.1C29.5,88.8,28.6,90.3,28.4,90.4z"/>
		<polygon class="st2" points="44.5,90.3 39.6,90.3 39.6,86.1 38,86.1 38,96.2 39.6,96.2 39.6,91.7 44.5,91.7 44.5,96.2 46.2,96.2 
			46.2,86.1 44.5,86.1 		"/>
		<path class="st2" d="M52.5,86c-3.2,0.2-4.9,1.9-5.1,5.2c0.1,3.3,1.8,5,5,5.1c3.3-0.1,5-1.8,5.1-5.2C57.2,87.9,55.6,86.1,52.5,86z
			 M52.4,95c-2-0.2-3.1-1.4-3.2-3.8c0.1-2.4,1.2-3.6,3.3-3.8c2,0.2,3.1,1.5,3.3,3.8C55.6,93.6,54.5,94.9,52.4,95z"/>
		<path class="st2" d="M67.1,86.1h-1.6V92c0.1,2-0.8,3-2.6,3c-1.6,0.1-2.5-0.9-2.4-3v-5.8h-1.7V92c-0.1,3,1.3,4.5,4.1,4.4
			c2.9,0.1,4.3-1.3,4.2-4.4V86.1z"/>
		<path class="st2" d="M72.8,90.3c-1.7-0.3-2.4-0.7-2.3-1.4c0-0.9,0.7-1.3,2.1-1.3c1.2,0,1.9,0.6,2.2,1.8l1.7-0.5
			c-0.5-1.8-1.8-2.7-4-2.7c-2.4,0.1-3.7,1-3.8,2.8c-0.1,1.4,1.2,2.4,3.8,2.9c1.8,0.4,2.7,0.9,2.5,1.6c0,1-0.7,1.5-2.2,1.5
			c-1.7,0.1-2.6-0.6-2.8-2.1l-1.7,0.5c0.5,2.1,1.9,3.2,4.5,3.1c2.5-0.1,3.8-1,3.9-2.9C76.9,91.8,75.5,90.8,72.8,90.3z"/>
		<path class="st2" d="M95.9,92.9c-0.1,0.3-0.3,0.7-0.4,1.2c0-0.1-0.1-0.2-0.1-0.3c-0.2-0.4-0.3-0.7-0.3-0.8l-2.7-6.8h-2v10h1.5v-6
			c0-0.7,0-1.4-0.1-2.2h0c0.1,0.5,0.3,1.1,0.5,1.7l2.5,6.4H96l2.5-6.4c0.3-0.6,0.5-1.2,0.6-1.7h0C99,89,99,89.7,99,90.2v6h1.6v-10
			h-2L95.9,92.9z"/>
		<polygon class="st2" points="123.7,86.1 123.7,87.6 127.1,87.6 127.1,96.2 128.8,96.2 128.8,87.6 132.1,87.6 132.1,86.1 		"/>
		<rect x="78.1" y="86.1" class="st2" width="7.6" height="1.5"/>
		<rect x="78.1" y="90.3" class="st2" width="7.6" height="1.5"/>
		<rect x="78.1" y="94.7" class="st2" width="7.6" height="1.5"/>
		<path class="st2" d="M106,86.1l-4.2,10.1h1.7l0.4-1l2.1-5.2l0.5-1.2c0.2-0.4,0.3-0.7,0.3-1h0c0,0.2,0.1,0.6,0.2,1l0.5,1.2
			c0,0.1,1.9,4.9,2.1,5.2l0.4,1h1.8l-4.2-10.1H106z"/>
		<path class="st2" d="M121.4,89c-0.1-1.8-1.3-2.8-3.5-2.9h-4.7v10.1h1.7v-3.7v-0.5v-1.5v-0.9v-2h2.8c1.4,0,2.1,0.5,2.1,1.3
			c0,1-0.7,1.5-2.1,1.5h-1.3l-0.6,1.5h1.1l3.4,4.3h2.2l-3.7-4.4C120.5,91.6,121.4,90.6,121.4,89z"/>
	</g>
	<g>
		<g>
			<g>
				<path class="st2" d="M91.5,60.9c-0.6,0-1.1,0.5-1.1,1.1c0,0.6,0.5,1.1,1.1,1.1h4.1v-2.3H91.5z"/>
			</g>
			<g>
				<path class="st2" d="M95.6,59.1c0-0.6-0.5-1.1-1.2-1.1c-0.6,0-1.1,0.5-1.1,1.1v4.1h2.3V59.1z"/>
			</g>
			<g>
				<path class="st2" d="M99.7,65.4c0.6,0,1.1-0.5,1.1-1.1c0-0.6-0.5-1.1-1.1-1.1h-4.1v2.3H99.7z"/>
			</g>
			<g>
				<path class="st2" d="M95.6,67.2c0,0.6,0.5,1.1,1.1,1.1c0.6,0,1.1-0.5,1.1-1.1v-4.1h-2.3V67.2z"/>
			</g>
		</g>
		<polygon class="st2" points="82.1,57.9 88.5,57.9 79.9,81.7 73.5,81.7 		"/>
		<polygon class="st2" points="66.6,58.6 61.4,72.9 67.8,72.9 69.7,67.4 		"/>
		<polygon class="st2" points="52,48.3 43.2,72.9 49.5,72.9 55.2,57.1 		"/>
		<polygon class="st2" points="64.3,63.4 58.6,47.7 52.3,47.7 61.2,72.2 		"/>
		<polygon class="st2" points="77.4,69.7 73.2,57.9 66.8,57.9 72.2,72.9 76.2,72.9 		"/>
	</g>
</g>
</svg>
