<?xml version="1.0" encoding="utf-8"?>
<!-- Generator: Adobe Illustrator 23.0.1, SVG Export Plug-In . SVG Version: 6.00 Build 0)  -->
<svg version="1.1" id="bc1f3139-0466-4655-9cee-0348334ffa8f"
	 xmlns="http://www.w3.org/2000/svg" xmlns:xlink="http://www.w3.org/1999/xlink" x="0px" y="0px" viewBox="0 0 977.5 801.9"
	 style="enable-background:new 0 0 977.5 801.9;" xml:space="preserve">
<style type="text/css">
	.st0{fill:#F2F2F2;}
	.st1{fill:#FAFAFA;}
	.st2{fill:#A8AAAF;}
	.st3{fill:#FFFFFF;}
	.st4{fill:#FFDD33;}
</style>
<title>download</title>
<g>
	
		<rect x="193.8" y="99.7" transform="matrix(0.9777 -0.2098 0.2098 0.9777 -75.0896 95.4269)" class="st0" width="437" height="603.8"/>
	
		<rect x="206.1" y="114.3" transform="matrix(0.9777 -0.2098 0.2098 0.9777 -74.6594 95.2857)" class="st1" width="411.5" height="570.5"/>
	
		<rect x="251.9" y="93.8" transform="matrix(0.9777 -0.2098 0.2098 0.9777 -16.7976 76.4206)" class="st2" width="199.8" height="47.3"/>
	<path class="st2" d="M337.2,49.1c-15.1,3.2-24.7,18.1-21.4,33.2s18.1,24.7,33.2,21.4c15.1-3.2,24.7-18.1,21.4-33.2
		C367.1,55.5,352.3,45.9,337.2,49.1C337.2,49.1,337.2,49.1,337.2,49.1z M346.4,92.2c-8.7,1.9-17.3-3.7-19.1-12.4
		c-1.9-8.7,3.7-17.3,12.4-19.1c8.7-1.9,17.3,3.7,19.1,12.4c0,0,0,0,0,0C360.7,81.8,355.1,90.4,346.4,92.2z"/>
	<rect x="324" y="133.7" class="st0" width="437" height="603.8"/>
	<rect x="336.8" y="148.2" class="st3" width="411.5" height="570.5"/>
	<rect x="443.2" y="121.4" class="st2" width="199.8" height="47.3"/>
	<path class="st2" d="M543.1,75.2c-15.4,0-27.9,12.5-27.9,27.9s12.5,27.9,27.9,27.9s27.9-12.5,27.9-27.9l0,0
		C571,87.7,558.5,75.2,543.1,75.2z M543.1,119.3c-8.9,0-16.1-7.2-16.1-16.1c0-8.9,7.2-16.1,16.1-16.1c8.9,0,16.1,7.2,16.1,16.1
		C559.2,112,552,119.2,543.1,119.3C543.1,119.2,543.1,119.2,543.1,119.3L543.1,119.3z"/>
	<rect x="359.2" y="212.6" class="st0" width="355" height="20"/>
	<rect x="359.2" y="262.3" class="st0" width="283.9" height="20"/>
	<rect x="359.2" y="312" class="st0" width="222.6" height="20"/>
	<g>
		<path class="st4" d="M536.8,445.2c-10.7,0-10.7,16.6,0,16.6C547.6,461.8,547.6,445.2,536.8,445.2z"/>
		<g>
			<path class="st4" d="M702.7,381.7c-50.9-53-135.2-54.6-188.2-3.7c-0.8,0.7-1.5,1.5-2.3,2.3c-50.4,50.8-51.2,133.5-2,185.3
				c44.7,47,116.8,55,170.7,18.8l96.2,100.1c2.5,2.6,6.6,2.7,9.2,0.2l24-23.1c2.6-2.5,2.7-6.6,0.2-9.2l-96.2-100.1
				C752.3,500.3,747.4,428.3,702.7,381.7z M672.7,542.6c-37.9,36.4-98.2,35.2-134.6-2.7s-35.2-98.2,2.7-134.6
				c37.9-36.4,98.2-35.2,134.6,2.6C711.8,445.9,710.6,506.1,672.7,542.6C672.7,542.6,672.7,542.6,672.7,542.6z"/>
			<path class="st4" d="M610.8,394.2c-28.8-0.6-55,13.8-69,35.6c-4.6,7.1,8.4,13.4,12.9,6.3c11.5-18.1,33.5-29.5,57.2-28.9
				c24.9,0.6,47.5,14.8,59.5,34.6c4.5,7.5,16.5,0.7,12-6.8C668.8,411.1,640.6,394.9,610.8,394.2z"/>
		</g>
	</g>
</g>
</svg>
