<?xml version="1.0" encoding="UTF-8"?>
<svg width="44px" height="44px" viewBox="0 0 44 44" version="1.1" xmlns="http://www.w3.org/2000/svg" xmlns:xlink="http://www.w3.org/1999/xlink">
    <!-- Generator: Sketch 58 (84663) - https://sketch.com -->
    <title>24E802CB-0E86-4579-BF1B-0320289219A4</title>
    <desc>Created with Sketch.</desc>
    <g id="组件" stroke="none" stroke-width="1" fill="none" fill-rule="evenodd">
        <g id="会员权益icon" transform="translate(-267.000000, 0.000000)" fill="#C29D70" fill-rule="nonzero">
            <g id="敬请期待">
                <g transform="translate(267.000000, 0.000000)">
                    <path d="M22,0.189655172 C9.97586207,0.189655172 0.189655172,9.97586207 0.189655172,22 C0.189655172,34.0241379 9.97586207,43.8103448 22,43.8103448 C34.0241379,43.8103448 43.8103448,34.0241379 43.8103448,22 C43.8103448,9.97586207 34.0241379,0.189655172 22,0.189655172 Z M22,41.9137931 C11.037931,41.9137931 2.0862069,33 2.0862069,22 C2.0862069,11 11.037931,2.0862069 22,2.0862069 C32.962069,2.0862069 41.9137931,11.037931 41.9137931,22 C41.9137931,32.962069 33,41.9137931 22,41.9137931 Z" id="形状"></path>
                    <g id="编组" transform="translate(7.206897, 18.206897)">
                        <path d="M3.98275862,0.113793103 C2.99655172,0.113793103 2.0862069,0.493103448 1.36551724,1.17586207 C0.682758621,1.85862069 0.303448276,2.80689655 0.303448276,3.79310345 C0.303448276,4.77931034 0.682758621,5.68965517 1.36551724,6.41034483 C2.0862069,7.13103448 3.03448276,7.47241379 3.98275862,7.47241379 C4.93103448,7.47241379 5.87931034,7.13103448 6.6,6.41034483 C8.04137931,4.96896552 8.04137931,2.65517241 6.6,1.2137931 C5.87931034,0.493103448 4.96896552,0.113793103 3.98275862,0.113793103 Z M5.19655172,5.00689655 C4.5137931,5.68965517 3.4137931,5.68965517 2.69310345,5.00689655 C2.35172414,4.66551724 2.16206897,4.24827586 2.16206897,3.75517241 C2.16206897,3.3 2.35172414,2.84482759 2.69310345,2.50344828 C3.03448276,2.16206897 3.45172414,1.97241379 3.94482759,1.97241379 C4.4,1.97241379 4.85517241,2.16206897 5.19655172,2.50344828 C5.91724138,3.22413793 5.91724138,4.32413793 5.19655172,5.00689655 Z" id="形状"></path>
                        <path d="M14.7931034,0.113793103 C13.8068966,0.113793103 12.8965517,0.493103448 12.1758621,1.17586207 C11.4931034,1.85862069 11.1137931,2.80689655 11.1137931,3.79310345 C11.1137931,4.77931034 11.4931034,5.68965517 12.1758621,6.41034483 C12.8965517,7.13103448 13.8448276,7.47241379 14.7931034,7.47241379 C15.7413793,7.47241379 16.6896552,7.13103448 17.4103448,6.41034483 C18.8517241,4.96896552 18.8517241,2.65517241 17.4103448,1.2137931 C16.6896552,0.493103448 15.7793103,0.113793103 14.7931034,0.113793103 Z M16.0068966,5.00689655 C15.3241379,5.68965517 14.2241379,5.68965517 13.5034483,5.00689655 C13.162069,4.66551724 12.9724138,4.24827586 12.9724138,3.75517241 C12.9724138,3.3 13.162069,2.84482759 13.5034483,2.50344828 C13.8448276,2.16206897 14.262069,1.97241379 14.7551724,1.97241379 C15.2103448,1.97241379 15.6655172,2.16206897 16.0068966,2.50344828 C16.7275862,3.22413793 16.7275862,4.32413793 16.0068966,5.00689655 Z" id="形状"></path>
                        <path d="M25.6034483,0.113793103 C24.6172414,0.113793103 23.7068966,0.493103448 22.9862069,1.17586207 C22.3034483,1.85862069 21.9241379,2.80689655 21.9241379,3.79310345 C21.9241379,4.77931034 22.3034483,5.68965517 22.9862069,6.41034483 C23.7068966,7.13103448 24.6551724,7.47241379 25.6034483,7.47241379 C26.5517241,7.47241379 27.5,7.13103448 28.2206897,6.41034483 C29.662069,4.96896552 29.662069,2.65517241 28.2206897,1.2137931 C27.5,0.493103448 26.5896552,0.113793103 25.6034483,0.113793103 Z M26.8172414,5.00689655 C26.1344828,5.68965517 25.0344828,5.68965517 24.3137931,5.00689655 C23.9724138,4.66551724 23.7827586,4.24827586 23.7827586,3.75517241 C23.7827586,3.3 23.9724138,2.84482759 24.3137931,2.50344828 C24.6551724,2.16206897 25.0724138,1.97241379 25.5655172,1.97241379 C26.0206897,1.97241379 26.4758621,2.16206897 26.8172414,2.50344828 C27.537931,3.22413793 27.537931,4.32413793 26.8172414,5.00689655 Z" id="形状"></path>
                    </g>
                </g>
            </g>
        </g>
    </g>
</svg>