<?xml version="1.0" encoding="UTF-8"?>
<svg width="17px" height="12px" viewBox="0 0 17 12" version="1.1" xmlns="http://www.w3.org/2000/svg" xmlns:xlink="http://www.w3.org/1999/xlink">
    <!-- Generator: Sketch 52.4 (67378) - http://www.bohemiancoding.com/sketch -->
    <title>卡包券</title>
    <desc>Created with Sketch.</desc>
    <g id="页面1" stroke="none" stroke-width="1" fill="none" fill-rule="evenodd">
        <g id="v1.04_首页" transform="translate(-290.000000, -81.000000)" fill="#FFD3A1">
            <g id="编组-2" transform="translate(279.000000, 72.000000)">
                <g id="卡包券" transform="translate(11.000000, 9.000000)">
                    <path d="M15.4,0 C16.2836556,0 17,0.7163444 17,1.6 L17,4 C15.8954305,4 15,4.8954305 15,6 C15,7.1045695 15.8954305,8 17,8 L17,10.4 C17,11.2836556 16.2836556,12 15.4,12 L1.6,12 C0.7163444,12 0,11.2836556 0,10.4 L0,8 C1.1045695,8 2,7.1045695 2,6 C2,4.8954305 1.1045695,4 0,4 L0,1.6 C0,0.7163444 0.7163444,0 1.6,0 L15.4,0 Z M16,1.6 C16,1.26862915 15.7313708,1 15.4,1 L1.6,1 C1.26862915,1 1,1.26862915 1,1.6 L1,3.17070571 C2.16519237,3.58254212 3,4.69378117 3,6 C3,7.30621883 2.16519237,8.41745788 1,8.82929429 L1,10.4 C1,10.7313708 1.26862915,11 1.6,11 L15.4,11 C15.7313708,11 16,10.7313708 16,10.4 L16,8.82929429 C14.8348076,8.41745788 14,7.30621883 14,6 C14,4.69378117 14.8348076,3.58254212 16,3.17070571 L16,1.6 Z" id="形状结合" fill-rule="nonzero"></path>
                    <rect id="矩形" x="6" y="7" width="5" height="1"></rect>
                    <rect id="矩形备份" x="6" y="4" width="5" height="1"></rect>
                </g>
            </g>
        </g>
    </g>
</svg>