<?xml version="1.0" standalone="no"?><!DOCTYPE svg PUBLIC "-//W3C//DTD SVG 1.1//EN" "http://www.w3.org/Graphics/SVG/1.1/DTD/svg11.dtd"><svg t="1561531214301" class="icon" viewBox="0 0 1024 1024" version="1.1" xmlns="http://www.w3.org/2000/svg" p-id="3668" xmlns:xlink="http://www.w3.org/1999/xlink" width="200" height="200"><defs><style type="text/css"></style></defs><path d="M897.13 458.22c-17.67 0-32-14.33-32-32V173.1c0-15.44-12.56-28-28-28H158.4c-15.44 0-28 12.56-28 28v253.12c0 17.67-14.33 32-32 32s-32-14.33-32-32V173.1c0-50.73 41.27-92 92-92h678.73c50.73 0 92 41.27 92 92v253.12c0 17.67-14.33 32-32 32zM837.13 943.72H158.4c-50.73 0-92-41.27-92-92V598.61c0-17.67 14.33-32 32-32s32 14.33 32 32v253.12c0 15.44 12.56 28 28 28h678.73c15.44 0 28-12.56 28-28V598.61c0-17.67 14.33-32 32-32s32 14.33 32 32v253.12c0 50.72-41.28 91.99-92 91.99z" fill="#292928" p-id="3669"></path><path d="M759.82 790.47c-17.67 0-32-14.33-32-32V272.32c0-17.67 14.33-32 32-32s32 14.33 32 32v486.15c0 17.67-14.33 32-32 32zM594.42 790.47c-17.67 0-32-14.33-32-32V272.32c0-17.67 14.33-32 32-32s32 14.33 32 32v486.15c0 17.67-14.33 32-32 32zM429.01 790.47c-17.67 0-32-14.33-32-32V272.32c0-17.67 14.33-32 32-32s32 14.33 32 32v486.15c0 17.67-14.33 32-32 32zM263.61 790.47c-17.67 0-32-14.33-32-32V272.32c0-17.67 14.33-32 32-32s32 14.33 32 32v486.15c0 17.67-14.33 32-32 32z" fill="#FFD814" p-id="3670"></path></svg>