<?xml version="1.0" encoding="UTF-8"?>
<svg width="18px" height="17px" viewBox="0 0 18 17" version="1.1" xmlns="http://www.w3.org/2000/svg" xmlns:xlink="http://www.w3.org/1999/xlink">
    <!-- Generator: Sketch 54.1 (76490) - https://sketchapp.com -->
    <title>我的钱包</title>
    <desc>Created with Sketch.</desc>
    <defs>
        <linearGradient x1="-1.11022302e-14%" y1="50%" x2="100%" y2="50%" id="linearGradient-1">
            <stop stop-color="#FFDF0D" offset="0%"></stop>
            <stop stop-color="#FFC60D" offset="100%"></stop>
        </linearGradient>
    </defs>
    <g id="页面1" stroke="none" stroke-width="1" fill="none" fill-rule="evenodd">
        <g id="v1.0_付款码" transform="translate(-98.000000, -540.000000)" fill-rule="nonzero">
            <g id="我的钱包" transform="translate(98.000000, 540.000000)">
                <path d="M11.2885135,12.8024747 L17.9837838,12.8024747 L17.9837838,7.38020247 L11.2885135,7.38020247 C9.78851351,7.38020247 8.57432432,8.59505062 8.57432432,10.0913386 C8.57432432,11.5876265 9.78851351,12.8024747 11.2885135,12.8024747 Z" id="路径" fill="url(#linearGradient-1)"></path>
                <ellipse id="椭圆形" fill="#353534" cx="11.2824324" cy="10.0913386" rx="1.01351351" ry="1.01237345"></ellipse>
                <path d="M17.9635135,6.77480315 L17.9635135,5.02947132 C17.9635135,3.99077615 17.1182432,3.14645669 16.0783784,3.14645669 L13.5587838,3.14645669 L12.2777027,0.951631046 C11.9412162,0.374578178 11.3168919,0.0161979753 10.647973,0.0161979753 L1.90337838,0.0161979753 C0.863513514,0.0161979753 0.0182432432,0.860517435 0.0182432432,1.8992126 L0.0182432432,4.56175478 L0.0263513514,4.56175478 L0.0263513514,15.1066367 C0.0263513514,16.1453318 0.871621622,16.9896513 1.91148649,16.9896513 L16.0804054,16.9896513 C17.1202703,16.9896513 17.9655405,16.1453318 17.9655405,15.1066367 L17.9655405,13.3633296 L16.5466216,13.3633296 L16.5466216,15.1086614 C16.5466216,15.3658043 16.3378378,15.5743532 16.0804054,15.5743532 L1.91148649,15.5743532 C1.65405405,15.5743532 1.44527027,15.3658043 1.44527027,15.1086614 L1.44527027,4.56377953 L16.0804054,4.56377953 C16.3378378,4.56377953 16.5466216,4.77232846 16.5466216,5.02947132 L16.5466216,6.77480315 L17.9635135,6.77480315 Z M1.43716216,1.90123735 C1.43716216,1.64409449 1.64594595,1.43554556 1.90337838,1.43554556 L10.65,1.43554556 C10.8162162,1.43554556 10.9702703,1.52463442 11.0533784,1.6663667 L11.9168919,3.14645669 L1.43716216,3.14645669 L1.43716216,1.90123735 Z" id="形状" fill="#404040"></path>
            </g>
        </g>
    </g>
</svg>