<?xml version="1.0" encoding="UTF-8"?>
<svg width="15px" height="15px" viewBox="0 0 15 15" version="1.1" xmlns="http://www.w3.org/2000/svg" xmlns:xlink="http://www.w3.org/1999/xlink">
    <!-- Generator: Sketch 58 (84663) - https://sketch.com -->
    <title>E66E5579-5C21-4CD5-9CEC-C458A272354A</title>
    <desc>Created with Sketch.</desc>
    <g id="页面1" stroke="none" stroke-width="1" fill="none" fill-rule="evenodd">
        <g id="v1.05_售后" transform="translate(-272.000000, -381.000000)" fill="#FFA333" fill-rule="nonzero">
            <g id="填写信息" transform="translate(12.000000, 365.000000)">
                <g id="电-话" transform="translate(260.000000, 16.000000)">
                    <path d="M10.7274105,6.61400728 C10.7274105,6.93049144 10.9381156,7.1412155 11.2545998,7.1412155 C11.5710839,7.1412155 11.7818271,6.93049144 11.7818271,6.61400728 L11.7818271,6.61404929 C11.7768212,4.86864147 10.3631572,3.45493256 8.61774364,3.44989005 C8.30125948,3.44989005 8.09053542,3.6606141 8.09053542,3.97709827 C8.09053542,4.29358244 8.30209358,4.50432544 8.61774364,4.50432544 L8.61774356,4.50432544 C9.78156741,4.50752262 10.7242447,5.45018753 10.7274484,6.61401138 L10.7274105,6.61400728 Z M12.8370964,6.61400728 C12.8370964,6.93049144 13.0478015,7.1412155 13.3642857,7.1412155 C13.6807699,7.1412155 13.8915129,6.93049144 13.8915129,6.61400728 C13.8915129,3.71391659 11.5177963,1.34020001 8.61772457,1.34020001 C8.30122144,1.34020001 8.09049739,1.55175816 8.09049739,1.86824233 C8.09049739,2.1847265 8.30205554,2.39545055 8.61770561,2.39545055 C10.9381156,2.39545055 12.8370964,4.29443139 12.8370964,6.61400728 L12.8370964,6.61400728 Z M5.71761492,4.76833302 C6.29812973,4.18865232 6.35060221,3.29163438 5.82339399,2.65864709 L4.18844379,0.602267744 C3.66123557,-0.0832109951 2.65927266,-0.18899007 1.97297878,0.338237106 C1.9205063,0.391543693 1.86803381,0.391543693 1.86803381,0.444016181 L0.443807656,1.86824233 C-0.927111908,3.2391619 1.02432246,6.93049144 4.55823455,10.4635884 C8.09051635,13.9966664 11.7285204,15.8956093 13.0994399,14.5771622 L14.5236661,13.1529361 C15.1566723,12.5199488 15.1566723,11.5179859 14.5236661,10.9383052 L14.4187211,10.8325261 L12.3615266,9.19757588 C11.7293545,8.67038662 10.8331706,8.72284015 10.2526558,9.30335496 L9.35647198,10.2003729 C8.40698156,9.61985809 7.56328917,8.98687079 6.8245228,8.24893852 C6.08659053,7.51017215 5.45441838,6.66646081 4.87390357,5.71697039 L5.71761492,4.76831407 L5.71761492,4.76833302 Z M4.97968265,3.34410687 C5.13793421,3.55566502 5.13793421,3.87214919 4.92637606,4.03040075 L3.76618055,5.24306876 L3.76618052,5.24306879 C3.60194732,5.41120159 3.56004591,5.6639387 3.66123554,5.87607504 L3.66123566,5.87607525 C4.28289625,7.01804567 5.06423017,8.0655315 5.98164564,8.98688999 L5.98164575,8.9868901 C6.9030213,9.90428851 7.95050144,10.6856205 9.09246049,11.3073001 L9.09246052,11.3073001 C9.30475609,11.4082571 9.55749415,11.3660206 9.72542886,11.201521 L10.9381158,9.98885302 C11.149674,9.77812897 11.4128515,9.77812897 11.6244097,9.93636158 L13.680789,11.6237843 C13.680789,11.6237843 13.7332615,11.6237843 13.7332615,11.6762568 L13.7332615,11.6762567 C13.9372654,11.8702495 13.9453827,12.1928908 13.7513888,12.3968966 C13.7454993,12.40309 13.739455,12.4091343 13.7332616,12.4150238 L12.3090354,13.8392499 C11.6244097,14.5238756 8.35452828,12.7839994 5.24287944,9.72482305 C2.13206469,6.6664808 0.444642005,3.34494201 1.13010179,2.65866708 L2.60596633,1.18194949 C2.81752448,1.02369792 3.18648113,1.02369792 3.3447327,1.28772856 L4.9796829,3.34494201 L4.97968265,3.34410687 Z" id="形状"></path>
                </g>
            </g>
        </g>
    </g>
</svg>