<?xml version="1.0" standalone="no"?><!DOCTYPE svg PUBLIC "-//W3C//DTD SVG 1.1//EN" "http://www.w3.org/Graphics/SVG/1.1/DTD/svg11.dtd"><svg t="1558767046681" class="icon" style="" viewBox="0 0 1024 1024" version="1.1" xmlns="http://www.w3.org/2000/svg" p-id="3780" xmlns:xlink="http://www.w3.org/1999/xlink" width="200" height="200"><defs><style type="text/css"></style></defs><path d="M168.2 43.2h687.5c69 0 125 56 125 125v687.5c0 69-56 125-125 125H168.2c-69 0-125-56-125-125V168.2c0-69 56-125 125-125z" fill="#6D6DF2" opacity=".124" p-id="3781"></path><path d="M855.8 1012H168.2C82.1 1012 12 941.9 12 855.8V168.2C12 82.1 82.1 12 168.2 12h687.5c86.2 0 156.2 70.1 156.2 156.2v687.5c0.1 86.2-70 156.3-156.1 156.3zM168.2 74.5c-51.7 0-93.8 42.1-93.8 93.8v687.5c0 51.7 42.1 93.8 93.8 93.8h687.5c51.7 0 93.8-42.1 93.8-93.8V168.2c0-51.7-42.1-93.8-93.8-93.8H168.2z" fill="#6D6DF2" p-id="3782"></path><path d="M358.3 800.9c26.6-41.3 45.6-83.9 57.1-127.9s18.8-90.3 22-138.9c0-6.4 2.2-11 6.5-13.8 4.4-2.7 9.1-3.7 14.1-2.7l34.4 5.5c6.9 0.9 11.6 3.3 14.1 7.2 2.5 3.9 3.3 9.1 2.4 15.5-2.3 16-4.6 31.3-6.9 45.7-2.3 14.4-5.3 28.3-8.9 41.6 13.3 21.5 26.1 38.6 38.5 51.2s28 21.9 46.8 27.8V452.3h-72.2v15.8c0 5-1.9 9.4-5.8 13.1-3.9 3.7-8.1 5.5-12.7 5.5H454c-4.6 0-8.8-1.8-12.7-5.5-3.9-3.7-5.8-8-5.8-13.1V241.9c0-5 1.9-9.5 5.8-13.4 3.9-3.9 8.1-5.8 12.7-5.8h33.7c4.6 0 8.8 1.9 12.7 5.8s5.8 8.4 5.8 13.4v2.1h205.6v-4.1c0-5.5 1.8-10.1 5.5-13.8 3.7-3.7 8-5.5 13.1-5.5h33c4.6 0 8.8 1.8 12.7 5.5 3.9 3.7 5.8 8.2 5.8 13.8v222.8c0 5-1.8 9.5-5.5 13.4-3.7 3.9-8 5.8-13.1 5.8h-33c-5 0-9.4-1.9-13.1-5.8-3.7-3.9-5.5-8.4-5.5-13.4v-10.3h-61.9v115.5H801c2.8 0 5.3 1.1 7.6 3.4s3.4 4.8 3.4 7.6v9.6c0 2.8-1.1 5.2-3.4 7.2s-4.8 3.1-7.6 3.1H649.8v125.1c2.3 0.5 4.8 0.7 7.6 0.7h8.2c11.5 0.5 23.8 0.7 37.1 0.7s26.8-0.2 40.6-0.7c13.8-0.5 27.4-0.9 40.9-1.4 13.5-0.5 26.2-1.1 38.2-2.1 8.7 0.9 11.5 6 8.2 15.1-1.8 5-4.6 11.9-8.2 20.6-3.7 8.7-7.3 16.5-11 23.4-2.8 6-6.1 9.9-10 11.7-3.9 1.8-9.1 3.2-15.5 4.1-11.9 0.9-27.4 1.5-46.4 1.7-19 0.2-41.4-0.1-67-1-30.3-0.9-55.5-4.1-75.6-9.6-20.2-5.5-37.4-13.5-51.6-24.1-14.2-10.5-26-23.8-35.4-39.9-9.4-16-18.4-35.1-27.2-57.1-10.5 30.7-24.4 58.2-41.6 82.5-17.2 24.3-39.3 47.4-66.3 69.4-1.8 1.4-4 1.6-6.5 0.7-2.5-0.9-4.8-2.3-6.9-4.1-2.1-1.8-3.6-4-4.5-6.5-0.9-2.4-0.5-4.8 1.4-7.1zM194 528.6c17.4-30.7 32.7-59.9 45.7-87.7 13.1-27.7 24.6-54.3 34.7-79.8 10.1-25.4 18.7-50 25.8-73.6 7.1-23.6 13.4-46.6 18.9-69.1 0.9-5.5 3.7-9.4 8.2-11.7 4.6-2.3 9.9-2.8 15.8-1.4 7.8 1.8 15.2 3.9 22.3 6.2 7.1 2.3 12.9 4.6 17.5 6.9 11.5 4.6 15.4 12.4 11.7 23.4-9.6 26.1-19.4 50.3-29.2 72.5-9.9 22.2-20.1 43.7-30.6 64.3 2.3 1.8 4.4 4.1 6.2 6.9 1.8 2.8 2.8 5.7 2.8 8.9v402.9c0 5-1.8 9.5-5.5 13.4-3.7 3.9-8 5.8-13.1 5.8h-34.4c-5 0-9.4-1.9-13.1-5.8-3.7-3.9-5.5-8.4-5.5-13.4V477c-10.1 12.8-20.3 24.9-30.6 36.1-10.3 11.2-21.2 22.1-32.7 32.7-1.4 1.4-3.3 1.8-5.8 1.4-2.5-0.5-4.7-1.6-6.5-3.4-1.8-1.8-3.2-4.1-4.1-6.9-0.8-2.8-0.4-5.5 1.5-8.3z m312.1-105.9h205.6V273.5H506.1v149.2z" fill="#6D6DF2" p-id="3783"></path></svg>