<?xml version="1.0" standalone="no"?><!DOCTYPE svg PUBLIC "-//W3C//DTD SVG 1.1//EN" "http://www.w3.org/Graphics/SVG/1.1/DTD/svg11.dtd"><svg t="1563788415336" class="icon" viewBox="0 0 1024 1024" version="1.1" xmlns="http://www.w3.org/2000/svg" p-id="3816" xmlns:xlink="http://www.w3.org/1999/xlink" width="32" height="32"><defs><style type="text/css"></style></defs><path d="M512 12C236.3 12 12 236.3 12 512s224.3 500 500 500 500-224.3 500-500S787.7 12 512 12z m0 928.6C275.7 940.6 83.4 748.3 83.4 512S275.7 83.4 512 83.4 940.6 275.7 940.6 512 748.3 940.6 512 940.6z m-35.7-250h71.4V762h-71.4v-71.4zM512 262c-61.5 0-105.7 26.2-131 70.9-16.9 29.7-23.4 62.9-23.8 95.4l71.4 0.8c0.7-56.9 22.7-95.6 83.4-95.6 53.1 0 83.4 26.6 83.4 71.4 0 21.9-8.1 35.4-34.2 60.4-2.3 2.2-11.8 11.3-14.3 13.6-48.3 46.3-70.5 85.9-70.5 152.2h71.4c0-43.4 12.9-66.5 48.5-100.7 2.2-2.1 11.8-11.3 14.4-13.6 38.7-37.2 56.1-66.1 56.1-111.8 0-86.6-64.1-143-154.8-143z" fill="#A0A1A3" p-id="3817"></path></svg>