<?xml version="1.0" encoding="UTF-8"?>
<svg width="12px" height="12px" viewBox="0 0 12 12" version="1.1" xmlns="http://www.w3.org/2000/svg" xmlns:xlink="http://www.w3.org/1999/xlink">
    <!-- Generator: Sketch 55.2 (78181) - https://sketchapp.com -->
    <title>形状</title>
    <desc>Created with Sketch.</desc>
    <g id="页面1" stroke="none" stroke-width="1" fill="none" fill-rule="evenodd">
        <g id="v1.01_自提-确认订单" transform="translate(-68.000000, -942.000000)" fill="#A0A1A3" fill-rule="nonzero">
            <g id="编组-51" transform="translate(0.000000, 921.000000)">
                <g id="编组-36" transform="translate(12.000000, 18.000000)">
                    <path d="M61.7750067,3 C58.5910186,3 56,5.59101864 56,8.77500672 C56,11.9589948 58.5910186,14.5500134 61.7750067,14.5500134 C64.9589948,14.5500134 67.5500134,11.9589948 67.5500134,8.77500672 C67.5500134,5.59101864 64.9589948,3 61.7750067,3 Z M61.7750067,13.7250125 C59.0460582,13.7250125 56.825001,11.5039552 56.825001,8.77500672 C56.825001,6.04605823 59.0460582,3.82500096 61.7750067,3.82500096 C64.5039552,3.82500096 66.7250125,6.04605823 66.7250125,8.77500672 C66.7250125,11.5039552 64.5039552,13.7250125 61.7750067,13.7250125 Z M61.3625062,10.8375091 L62.1875072,10.8375091 L62.1875072,11.6625101 L61.3625062,11.6625101 L61.3625062,10.8375091 Z M61.7750067,5.88750336 C61.0647325,5.88750336 60.5542631,6.1904334 60.2616456,6.706059 C60.0669969,7.04895002 59.9909421,7.4330911 59.987075,7.80820872 L60.8120759,7.81723217 C60.8198103,7.15980953 61.0737559,6.71250432 61.7750067,6.71250432 C62.3886012,6.71250432 62.7379375,7.01930155 62.7379375,7.53750528 C62.7379375,7.79016182 62.6438359,7.94613857 62.3434839,8.2348889 C62.3164136,8.26067018 62.2068432,8.36508437 62.1784838,8.39215471 C61.620319,8.92711627 61.3637953,9.38473399 61.3637953,10.150438 L62.1887963,10.150438 C62.1887963,9.64899211 62.3383277,9.38215586 62.7495391,8.98770228 C62.7753204,8.96321006 62.8861799,8.85750682 62.9158284,8.83043647 C63.3631336,8.40117816 63.5642276,8.06731058 63.5642276,7.53879434 C63.5629385,6.53848068 62.8230158,5.88750336 61.7750067,5.88750336 Z" id="形状"></path>
                </g>
            </g>
        </g>
    </g>
</svg>