<?xml version="1.0" encoding="utf-8"?>
<!-- Generator: Adobe Illustrator 23.0.1, SVG Export Plug-In . SVG Version: 6.00 Build 0)  -->
<svg version="1.1" id="图层_1" xmlns="http://www.w3.org/2000/svg" xmlns:xlink="http://www.w3.org/1999/xlink" x="0px" y="0px"
	 viewBox="0 0 1024 1024" style="enable-background:new 0 0 1024 1024;" xml:space="preserve">
<style type="text/css">
	.st0{fill:#C0A181;}
</style>
<path class="st0" d="M392.4,588.7H215.7c-23.1,0-39-23.1-30.8-44.6L360.5,83.2c4.9-12.8,17.1-21.2,30.8-21.2h296.3
	c23.4,0,39.3,23.7,30.5,45.3l-102.3,251h192.5c28.3,0,43.4,33.4,24.7,54.6L361.1,950.6c-22.9,26.1-65.5,3.5-56.6-30.1L392.4,588.7
	L392.4,588.7z M414,127.8l-150.5,395h171.7c21.6,0,37.4,20.5,31.8,41.3l-62.9,237.6L735.6,424H566.9c-23.4,0-39.3-23.7-30.5-45.3
	l102.2-250.9L414,127.8L414,127.8z"/>
</svg>
