<?xml version="1.0" encoding="utf-8"?>
<!-- Generator: Adobe Illustrator 23.0.1, SVG Export Plug-In . SVG Version: 6.00 Build 0)  -->
<svg version="1.1" id="图层_1" xmlns="http://www.w3.org/2000/svg" xmlns:xlink="http://www.w3.org/1999/xlink" x="0px" y="0px"
	 viewBox="0 0 1024 1024" style="enable-background:new 0 0 1024 1024;" xml:space="preserve">
<style type="text/css">
	.st0{opacity:0.121;fill-rule:evenodd;clip-rule:evenodd;fill:#FF7459;enable-background:new    ;}
	.st1{fill:#FF7459;}
</style>
<g>
	<path class="st0" d="M168.2,43.2h687.5c69,0,125,56,125,125v687.5c0,69-56,125-125,125H168.2c-69,0-125-56-125-125V168.2
		C43.2,99.2,99.2,43.2,168.2,43.2z"/>
	<g>
		<path class="st1" d="M855.8,1012H168.2C82.1,1012,12,941.9,12,855.8V168.2C12,82.1,82.1,12,168.2,12h687.5
			c86.2,0,156.2,70.1,156.2,156.2v687.5C1012,941.9,941.9,1012,855.8,1012z M168.2,74.5c-51.7,0-93.8,42.1-93.8,93.8v687.5
			c0,51.7,42.1,93.8,93.8,93.8h687.5c51.7,0,93.8-42.1,93.8-93.8V168.2c0-51.7-42.1-93.8-93.8-93.8H168.2V74.5z"/>
	</g>
	<path class="st1" d="M367.2,679.9c14.3-25,26.1-49,35.5-72c9.4-22.9,16.9-46.2,22.3-69.8c5.5-23.6,9.3-48,11.6-73.3
		c2.2-25.2,3.3-52.4,3.2-81.6l-0.4-124.9c0-5.1,1.5-9.6,4.5-13.5c3-3.9,7-5.9,12.1-5.9l38.2-0.1c5.1,0,9.4,1.9,12.9,5.9
		s5.2,8.4,5.2,13.5l0,9.7c18-3.3,36.9-7.1,56.5-11.3c19.7-4.2,38.8-8.8,57.6-13.7s36.3-10.1,52.7-15.4c16.4-5.4,30.6-10.9,42.6-16.4
		c12-5.1,23.1-3.5,33.3,4.8c6,4.1,11.4,8.5,16,13.1c4.6,4.6,8.8,9.2,12.5,13.8c4.6,5.1,6,10,4.2,14.9c-1.8,4.9-6,8-12.5,9.4
		c-14.3,2.8-31.9,5.8-52.7,8.8c-20.8,3.1-43,5.9-66.6,8.5c-23.6,2.6-47.9,4.9-72.9,6.8c-25,1.9-48.6,3.2-70.8,3.7l0.3,85.4
		l183.9-0.6l1.4-4.2c0.9-5.1,3.8-9,8.6-11.8c4.9-2.8,9.8-3.7,14.9-2.8l38.9,11c4.6,0.9,8.2,3.6,10.8,8c2.6,4.4,3.2,9.1,1.8,14.2
		c-11.5,36.1-24.1,68.4-37.9,96.9c-13.8,28.5-30.1,54.6-49,78.2c17.6,11.1,33.7,21.5,48.3,31.4c14.6,9.9,26.1,18.8,34.4,26.6
		c7.9,7.4,12.8,14.5,14.6,21.5c1.9,6.9,1.9,14.3,0.1,22.2c-1.4,6-2.9,11.5-4.5,16.3c-1.6,4.9-4,9.8-7.2,14.9
		c-4.6,7.9-11,11.9-19.1,12.2c-8.1,0.3-16.1-4.2-24-13.5c-12.5-14.8-25.7-29.4-39.4-44c-13.7-14.5-28.4-29.2-44.2-43.9
		c-24,22.3-51.6,42-82.8,59.3c-31.2,17.2-67.1,33.3-107.8,48.2c-2.3,0.9-4.6,0.6-6.9-1c-2.3-1.6-4.2-3.8-5.6-6.6
		c-1.4-2.8-2.1-5.5-2.1-8.3c0-2.8,1.1-4.9,3.5-6.3c33.3-20.9,62.6-41.8,88-62.7c25.4-20.9,47.8-42.5,67.1-64.8
		c-13-11.1-26.4-22.1-40.4-33.2c-13.9-11.1-28.3-22.4-43.1-33.9c-1.4-1.4-1.9-3.3-1.4-5.9c0.5-2.5,1.4-5,2.8-7.3
		c1.4-2.3,3.1-4.3,5.2-5.9s4.3-2,6.6-1.1c12.5,5.5,27.5,12.6,44.8,21.4c17.4,8.7,35.6,18.4,54.6,29c12.9-18.1,24.1-37.1,33.5-57
		c9.4-19.9,18-41.2,25.8-63.9l-174.9,0.5c-1.3,28.7-4.5,55.9-9.5,81.6c-5,25.7-12.5,50.2-22.3,73.6c-9.9,23.4-22.7,45.8-38.3,67.1
		c-15.7,21.3-34.6,42-56.7,62c-1.4,1.9-3.3,2.3-5.9,1.4c-2.5-0.9-5-2.4-7.3-4.5c-2.3-2.1-4.1-4.5-5.2-7.3
		C365.7,684.7,365.8,682.2,367.2,679.9z M192.5,770.6c-2.3-5.1-3.2-9.6-2.5-13.5s4-7.5,10-10.8c29.1-14.9,54.3-29.3,75.5-43.3
		l-0.7-236.7l-61.1,0.2c-3.2,0-6-1-8.3-3.1c-2.3-2.1-3.5-4.7-3.5-8l0-11.8c0-3.2,1.1-6,3.4-8.3c2.3-2.3,5.1-3.5,8.3-3.5l61.1-0.2
		l0-3.5c0-5.1,1.8-9.5,5.5-13.2c3.7-3.7,7.9-5.6,12.5-5.6l34.7-0.8c4.6,0,8.8,1.8,12.5,5.5c3.7,3.7,5.6,8.1,5.6,13.2l0.8,270.7
		c7.9,6.9,15.4,12.6,22.6,16.9c7.2,4.4,15.5,7.9,25,10.7c9.5,2.7,20.5,4.8,33,6.1c12.5,1.4,28.2,2.7,47.2,4
		c11.6,0.4,26.3,0.7,44.1,0.9c17.8,0.2,37.4,0.2,58.7,0.2s43.5-0.4,66.6-0.9c23.1-0.5,45.7-1.1,67.7-1.6c22-0.5,42.6-1.2,61.8-1.9
		c19.2-0.8,35.5-1.4,48.9-1.9c6.5-0.5,10.3,0.5,11.5,3.1c1.2,2.5,0.8,5.9-1,10.1c-2.3,5.6-4.9,11.9-7.9,19.1
		c-3,7.2-6.3,13.8-10,19.8c-3.7,5.6-7.8,9.3-12.5,11.1c-4.6,1.9-11.6,3.3-20.8,4.2c-8.3,0.5-20.5,1-36.4,1.5s-33.7,0.9-53.1,1.2
		c-19.4,0.3-39.9,0.5-61.4,0.5c-21.5,0.1-42.1,0-61.8-0.2c-19.7-0.2-37.7-0.5-54.1-0.9c-16.4-0.4-29.3-1.1-38.5-2
		c-21.3-1.8-39.7-4.4-55.2-7.8c-15.5-3.4-29.3-8.2-41.3-14.5c-12.1-6.2-22.7-14.2-32-23.9c-9.3-9.7-18.3-21.5-27.2-35.3
		c-4.6,6.5-9.9,13.8-15.9,21.9c-6,8.1-12.2,16.2-18.7,24.4c-6.5,8.1-13,16.1-19.7,24c-6.7,7.9-13,14.8-19,20.9
		c-5.5,5.6-11.2,8.2-17,8c-5.8-0.2-11-3.3-15.6-9.3c-0.9-1.4-2.4-3.8-4.5-7.3s-4.3-7.2-6.6-11.1c-2.3-3.9-4.5-7.5-6.6-10.7
		C194.3,774.3,193,772,192.5,770.6z M245,227.7c-2.3-3.7-1.4-8.1,2.7-13.2c4.1-5.1,8.5-6.7,13.2-4.9c9.7,4.1,19.5,9,29.2,14.5
		c9.7,5.5,18.8,11.2,27.1,16.9c8.3,5.8,15.7,11.5,21.9,17.3c6.3,5.8,11.3,11,15,15.6c5.1,6.9,8,13.6,8.7,20.1
		c0.7,6.5-1,14.3-5.1,23.6c-1.8,3.7-4.1,8-6.9,12.9c-2.8,4.9-6.4,9.6-11.1,14.3c-6.5,6.5-13.9,9.1-22.2,7.7
		c-8.3-1.4-14.4-8.1-18.1-20.1c-6.5-17.1-14.1-34.1-22.7-51C268.2,264.5,257.6,246.6,245,227.7z"/>
</g>
</svg>
