<?xml version="1.0" standalone="no"?><!DOCTYPE svg PUBLIC "-//W3C//DTD SVG 1.1//EN" "http://www.w3.org/Graphics/SVG/1.1/DTD/svg11.dtd"><svg t="1559011217137" class="icon" style="" viewBox="0 0 1024 1024" version="1.1" xmlns="http://www.w3.org/2000/svg" p-id="3572" xmlns:xlink="http://www.w3.org/1999/xlink" width="200" height="200"><defs><style type="text/css"></style></defs><path d="M168.2 43.2h687.5c69 0 125 56 125 125v687.5c0 69-56 125-125 125H168.2c-69 0-125-56-125-125V168.2c0-69 56-125 125-125z" fill="#FF7459" opacity=".12" p-id="3573"></path><path d="M855.8 1012H168.2C82.1 1012 12 941.9 12 855.8V168.2C12 82.1 82.1 12 168.2 12h687.5c86.2 0 156.2 70.1 156.2 156.2v687.5c0.1 86.2-70 156.3-156.1 156.3zM168.2 74.5c-51.7 0-93.8 42.1-93.8 93.8v687.5c0 51.7 42.1 93.8 93.8 93.8h687.5c51.7 0 93.8-42.1 93.8-93.8V168.2c0-51.7-42.1-93.8-93.8-93.8H168.2z" fill="#FF7459" p-id="3574"></path><path d="M197.5 486.4c4.1-16 7.8-33.2 11-51.6 3.2-18.3 6-36.8 8.2-55.3 2.3-18.6 4.4-36.7 6.2-54.3 1.8-17.6 3.2-33.6 4.1-47.8 0.5-6.9 1.9-11.8 4.5-14.8s7.7-4 15.5-3.1l24.1 4.8c6.4 1.4 10.7 4 12.7 7.9 2.1 3.9 2.6 9.1 1.7 15.5-3.7 22-7.8 43.3-12.4 63.9h36.4V225.1c0-5.5 1.8-10.1 5.5-13.8s8-5.5 13.1-5.5H359c4.6 0 8.8 1.8 12.7 5.5s5.8 8.2 5.8 13.8v126.5H432c2.8 0 5.3 1.1 7.6 3.4s3.4 4.6 3.4 6.9v12.4c0 2.8-1.1 5.2-3.4 7.2-2.3 2.1-4.8 3.1-7.6 3.1h-54.3v162.9l50.2-11c2.3-0.5 4.4 0.3 6.2 2.4s3.2 4.5 4.1 7.2c0.9 2.8 1.1 5.6 0.7 8.6-0.5 3-1.8 4.9-4.1 5.8-6.9 3.7-15.2 7.8-25.1 12.4s-20.5 9.4-32 14.4V797c0 5.5-1.8 10.1-5.5 13.8-3.7 3.7-8 5.5-13.1 5.5h-30.9c-5 0-9.4-1.8-13.1-5.5-3.7-3.7-5.5-8.2-5.5-13.8V617c-14.7 6.4-28.4 12.1-41.2 17.2s-24.3 9.4-34.4 13.1c-6 2.3-11.2 2.9-15.8 1.7-4.6-1.1-8-4.9-10.3-11.3-1.4-3.7-3-8.1-4.8-13.4s-3.7-11.6-5.5-18.9c-1.4-6.4-1-11.6 1-15.5 2.1-3.9 6.8-6.3 14.1-7.2l96.9-20.6V384.6h-45.4c-6.4 22-13.6 42.4-21.7 61.2-8 18.8-16.8 35.3-26.5 49.5-1.4 1.4-3.2 2.1-5.5 2.1s-4.5-0.6-6.5-1.7-3.8-2.5-5.2-4.1c-1.3-1.7-1.7-3.4-1.3-5.2z m257.9-181.5c0-2.8 1.3-5.3 3.8-7.6s5.4-3.4 8.6-3.4h114.1v-67.4c0-6.9 2.2-11.9 6.5-15.1 4.4-3.2 9.7-4.8 16.2-4.8h24.8c6.4 0 11.9 1.6 16.5 4.8 4.6 3.2 6.9 8.2 6.9 15.1v67.4H782c3.7 0 6.8 1.1 9.3 3.4 2.5 2.3 3.8 4.8 3.8 7.6v8.9c0 3.2-1.3 5.8-3.8 7.9-2.5 2.1-5.4 3.1-8.6 3.1h-130v99.7h161.6c3.7 0 6.8 1 9.3 3.1 2.5 2.1 3.8 4.7 3.8 7.9v11c0 3.2-1.3 5.8-3.8 7.9-2.5 2.1-5.4 3.1-8.6 3.1H437.5c-3.2 0-6.1-1-8.6-3.1s-3.8-4.7-3.8-7.9v-11c0-3.2 1.3-5.8 3.8-7.9 2.5-2.1 5.4-3.1 8.6-3.1h144.4v-99.7H467.7c-3.2 0-6.1-1-8.6-3.1s-3.8-4.7-3.8-7.9v-8.9z m138.1 464.7c-1.8-3.7-2.1-7.1-0.7-10.3 1.4-3.2 4.6-5.3 9.6-6.2l30.9-4.1c14.2-2.3 23-6.6 26.5-13.1 3.4-6.4 5.2-16.3 5.2-29.6V582.6H454.7c-3.2 0-6.1-1-8.6-3.1s-3.8-4.7-3.8-7.9v-11c0-2.8 1.3-5.2 3.8-7.2s5.4-3.1 8.6-3.1H665V507c0-6.4 1.4-12.1 4.1-17.2 2.7-5 8.7-7.3 17.9-6.9h26.8c8.7 0 14.7 2.5 17.9 7.6 3.2 5 4.8 10.5 4.8 16.5v43.3h66.7c3.7 0 6.6 1 8.9 3.1s3.4 4.5 3.4 7.2v11c0 2.8-1.3 5.3-3.8 7.6s-5.4 3.4-8.6 3.4h-66.7v148.5c0 22.9-3.4 40.2-10.3 51.9-6.9 11.7-18.8 20.5-35.8 26.5-6.9 2.3-15.4 4.1-25.4 5.5-10.1 1.4-19 2.3-26.8 2.7-7.8 0.9-13.2 0.3-16.2-1.7-3-2.1-6.3-6.1-10-12-3.7-6-7.1-12.1-10.3-18.6-3-6.4-5.8-11.7-8.1-15.8zM484.9 614.9c-2.8-4.1-2.1-8.6 2.1-13.4 4.1-4.8 8.5-6.3 13.1-4.5 19.3 8.7 36.6 18.2 51.9 28.5 15.4 10.3 26 18.9 32 25.8 6 7.3 9.1 14.1 9.3 20.3 0.2 6.2-1.5 14.3-5.2 24.4-3.2 8.7-8.2 16.5-15.1 23.4-6 6.4-12.5 9.9-19.6 10.3-7.1 0.5-12.7-4.6-16.8-15.1-6.4-14.7-13.5-30.1-21.3-46.4-7.9-16.3-18-34-30.4-53.3z" fill="#FF7459" p-id="3575"></path></svg>