<?xml version="1.0" encoding="utf-8"?>
<!-- Generator: Adobe Illustrator 23.0.1, SVG Export Plug-In . SVG Version: 6.00 Build 0)  -->
<svg version="1.1" id="图层_1" xmlns="http://www.w3.org/2000/svg" xmlns:xlink="http://www.w3.org/1999/xlink" x="0px" y="0px"
	 viewBox="0 0 1024 1024" style="enable-background:new 0 0 1024 1024;" xml:space="preserve">
<style type="text/css">
	.st0{fill:#C0A181;}
</style>
<g>
	<path class="st0" d="M483.9,568.2v-45h-84.4c-18.6,0-33.7-15.1-33.7-33.8s15.1-33.7,33.7-33.7h49.8l-75.7-90.9
		c-11.9-14.3-10-35.6,4.3-47.5s35.6-10,47.5,4.3L512,425.5l86.6-103.9c11.9-14.3,33.2-16.3,47.5-4.3c14.3,11.9,16.3,33.2,4.3,47.5
		l-75.7,90.9h49.8c18.6,0,33.8,15.1,33.8,33.7s-15.1,33.8-33.8,33.8h-73.1v45h73.1c18.6,0,33.8,15.1,33.8,33.7
		c0,18.6-15.1,33.8-33.8,33.8h-73.1v45c0,18.6-15.1,33.8-33.8,33.8s-33.7-15.1-33.7-33.8v-45h-84.4c-18.6,0-33.8-15.1-33.8-33.8
		c0-18.6,15.1-33.7,33.8-33.7C399.5,568.2,483.9,568.2,483.9,568.2z"/>
	<g>
		<path class="st0" d="M512,962c-60.7,0-119.7-11.9-175.2-35.4c-53.6-22.7-101.7-55.1-143-96.4c-41.3-41.3-73.8-89.4-96.4-143
			C73.9,631.7,62,572.7,62,512s11.9-119.7,35.4-175.2c22.7-53.6,55.1-101.7,96.4-143s89.4-73.8,143-96.4C392.3,73.9,451.3,62,512,62
			s119.7,11.9,175.2,35.4c53.6,22.7,101.7,55.1,143,96.4s73.8,89.4,96.4,143C950.1,392.3,962,451.3,962,512s-11.9,119.7-35.4,175.2
			c-22.7,53.6-55.1,101.7-96.4,143c-41.3,41.3-89.4,73.8-143,96.4C631.7,950.1,572.7,962,512,962z M512,132
			c-101.5,0-196.9,39.5-268.7,111.3S132,410.5,132,512s39.5,196.9,111.3,268.7S410.5,892,512,892s196.9-39.5,268.7-111.3
			S892,613.5,892,512s-39.5-196.9-111.3-268.7S613.5,132,512,132z"/>
	</g>
</g>
</svg>
