<?xml version="1.0" standalone="no"?><!DOCTYPE svg PUBLIC "-//W3C//DTD SVG 1.1//EN" "http://www.w3.org/Graphics/SVG/1.1/DTD/svg11.dtd"><svg t="1563526418883" class="icon" viewBox="0 0 1024 1024" version="1.1" xmlns="http://www.w3.org/2000/svg" p-id="3734" xmlns:xlink="http://www.w3.org/1999/xlink" width="200" height="200"><defs><style type="text/css"></style></defs><path d="M372 832c-28.6 0-55 15.3-69.3 40-14.3 24.8-14.3 55.3 0 80 14.3 24.8 40.7 40 69.3 40 44.2 0 80-35.8 80-80s-35.8-80-80-80z m400 0c-28.6 0-55 15.3-69.3 40-14.3 24.8-14.3 55.3 0 80 14.3 24.8 40.7 40 69.3 40 44.2 0 80-35.8 80-80s-35.8-80-80-80zM282.8 512l-64.3-240h701.2l-64.3 240H282.8zM1012 232c0-22.1-17.9-40-40-40H197L154.2 32H12v80h80.8L275 792h617v-80H336.4l-32.1-120h612.6l15.2-56.7 80-298.6-1-0.2c0.1-1.6 0.9-2.9 0.9-4.5z" fill="#67686B" p-id="3735"></path><path d="M452 432h240v-80H452z" fill="#67686B" p-id="3736"></path></svg>