<?xml version="1.0" encoding="utf-8"?>
<!-- Generator: Adobe Illustrator 23.0.1, SVG Export Plug-In . SVG Version: 6.00 Build 0)  -->
<svg version="1.1" id="图层_1" xmlns="http://www.w3.org/2000/svg" xmlns:xlink="http://www.w3.org/1999/xlink" x="0px" y="0px"
	 viewBox="0 0 1024 1024" style="enable-background:new 0 0 1024 1024;" xml:space="preserve">
<style type="text/css">
	.st0{fill:#FFEB0D;}
</style>
<g id="页面1">
	<g id="v1.0_套餐_2" transform="translate(-22.000000, -621.000000)">
		<g id="编组-2" transform="translate(0.000000, 615.000000)">
			<g id="icon_collect" transform="translate(22.000000, 6.000000)">
				<path id="路径" class="st0" d="M656.4,108.4c-20.5,0-41,3.4-61.6,10.3c-44.5-30.8-99.2-47.9-153.9-47.9
					c-126.6,0-239.4,85.5-273.6,205.2l58.1,17.1c27.4-95.8,112.9-160.8,212.1-160.8c109.5,0,198.4,78.7,218.9,184.7l61.6-10.3
					c-10.3-51.3-30.8-99.2-65-136.8c71.8,0,130,51.3,140.2,123.1l61.6-6.8C844.5,183.6,759,108.4,656.4,108.4z"/>
				<path id="形状" class="st0" d="M765.8,953.3H259.6c-37.6,0-71.8-27.4-78.7-65L64.6,371.8c-6.8-23.9,0-51.3,17.1-68.4
					c17.1-17.1,41-30.8,65-30.8h732c23.9,0,47.9,10.3,65,30.8c17.1,20.5,20.5,44.5,17.1,68.4L844.5,888.3
					C837.7,925.9,803.5,953.3,765.8,953.3z M146.7,334.1c-10.3,0-13.7,3.4-17.1,6.8c-3.4,3.4-6.8,10.3-3.4,17.1l112.9,516.5
					c3.4,10.3,10.3,17.1,20.5,17.1h506.2c10.3,0,17.1-6.8,20.5-17.1l112.9-516.5c3.4-6.8-3.4-13.7-3.4-17.1
					c-3.4-3.4-6.8-6.8-17.1-6.8H146.7z"/>
				<path class="st0" d="M642.7,494.9h-260c-17.1,0-30.8-13.7-30.8-30.8l0,0c0-17.1,13.7-30.8,30.8-30.8h260
					c17.1,0,30.8,13.7,30.8,30.8l0,0C673.5,481.2,659.8,494.9,642.7,494.9z"/>
			</g>
		</g>
	</g>
</g>
</svg>
