<?xml version="1.0" encoding="utf-8"?>
<!-- Generator: Adobe Illustrator 23.0.1, SVG Export Plug-In . SVG Version: 6.00 Build 0)  -->
<svg version="1.1" id="图层_1" xmlns="http://www.w3.org/2000/svg" xmlns:xlink="http://www.w3.org/1999/xlink" x="0px" y="0px"
	 viewBox="0 0 566.9 566.9" style="enable-background:new 0 0 566.9 566.9;" xml:space="preserve">
<g>
	<path d="M537,174.4H29.9c-3,0-5.4-2.4-5.4-5.4v-31.1c0-3,2.4-5.4,5.4-5.4H537c3,0,5.4,2.4,5.4,5.4V169
		C542.5,172,540.1,174.4,537,174.4z"/>
	<path d="M390.3,304.5H29.9c-3,0-5.4-2.4-5.4-5.4v-31.1c0-3,2.4-5.4,5.4-5.4h360.4c3,0,5.4,2.4,5.4,5.4V299
		C395.7,302,393.3,304.5,390.3,304.5z"/>
	<path d="M278,434.5H29.9c-3,0-5.4-2.4-5.4-5.4v-31.1c0-3,2.4-5.4,5.4-5.4H278c3,0,5.4,2.4,5.4,5.4V429
		C283.5,432.1,281,434.5,278,434.5z"/>
</g>
</svg>
