<?xml version="1.0" encoding="UTF-8"?>
<svg width="10px" height="10px" viewBox="0 0 10 10" version="1.1" xmlns="http://www.w3.org/2000/svg" xmlns:xlink="http://www.w3.org/1999/xlink">
    <!-- Generator: Sketch 55.2 (78181) - https://sketchapp.com -->
    <title>9F71CF23-7B3E-42BF-BD30-B0548A55D2C6</title>
    <desc>Created with Sketch.</desc>
    <g id="组件" stroke="none" stroke-width="1" fill="none" fill-rule="evenodd">
        <g id="隔日达" transform="translate(-36.000000, -2.000000)" fill="#FF5A52" fill-rule="nonzero">
            <g id="形状">
                <path d="M41,2 C38.2433036,2 36,4.24330357 36,7 C36,9.75669643 38.2433036,12 41,12 C43.7566964,12 46,9.75669643 46,7 C46,4.24330357 43.7566964,2 41,2 Z M41,11.2857143 C38.6372768,11.2857143 36.7142857,9.36272321 36.7142857,7 C36.7142857,4.63727679 38.6372768,2.71428571 41,2.71428571 C43.3627232,2.71428571 45.2857143,4.63727679 45.2857143,7 C45.2857143,9.36272321 43.3627232,11.2857143 41,11.2857143 Z M40.6428571,8.78571429 L41.3571429,8.78571429 L41.3571429,9.5 L40.6428571,9.5 L40.6428571,8.78571429 Z M41,4.5 C40.3850446,4.5 39.9430804,4.76227679 39.6897321,5.20870536 C39.5212054,5.50558036 39.4553571,5.83816964 39.4520089,6.16294643 L40.1662946,6.17075893 C40.1729911,5.6015625 40.3928571,5.21428571 41,5.21428571 C41.53125,5.21428571 41.8337054,5.47991071 41.8337054,5.92857143 C41.8337054,6.14732143 41.7522321,6.28236607 41.4921875,6.53236607 C41.46875,6.5546875 41.3738839,6.64508929 41.3493304,6.66852679 C40.8660714,7.13169643 40.6439732,7.52790179 40.6439732,8.19084821 L41.3582589,8.19084821 C41.3582589,7.75669643 41.4877232,7.52566964 41.84375,7.18415179 C41.8660714,7.16294643 41.9620536,7.07142857 41.9877232,7.04799107 C42.375,6.67633929 42.5491071,6.38727679 42.5491071,5.9296875 C42.5479911,5.06361607 41.9073661,4.5 41,4.5 Z"></path>
            </g>
        </g>
    </g>
</svg>