<?xml version="1.0" standalone="no"?><!DOCTYPE svg PUBLIC "-//W3C//DTD SVG 1.1//EN" "http://www.w3.org/Graphics/SVG/1.1/DTD/svg11.dtd"><svg t="1563957394476" class="icon" viewBox="0 0 1024 1024" version="1.1" xmlns="http://www.w3.org/2000/svg" p-id="3816" xmlns:xlink="http://www.w3.org/1999/xlink" width="32" height="32"><defs><style type="text/css"></style></defs><path d="M995.5 489.8L545.3 80.5c-18.5-16.8-46.4-16.8-64.9-0.1L28.6 488.6c-15.5 14-20.7 35.8-13.2 55.3 7.5 19.6 25.9 32.2 46.9 32.2l121.1 0.2v372.1c0 4.3 3.5 7.7 7.7 7.7H456c4.3 0 7.7-3.5 7.7-7.7V723.3h96.7v225.1c0 4.3 3.5 7.7 7.7 7.7H833c4.3 0 7.7-3.5 7.7-7.7V577.1l121 0.2h0.1c20.9 0 39.3-12.6 46.9-32.1 7.4-19.6 2.3-41.3-13.2-55.4z m-232.2 9.9v379H637.7V646H386.4v232.8H260.7V499.1l-128.1-0.2 380.2-343.5 378.9 344.4-128.4-0.1z" fill="#67686B" p-id="3817"></path></svg>