<?xml version="1.0" encoding="utf-8"?>
<!-- Generator: Adobe Illustrator 23.0.1, SVG Export Plug-In . SVG Version: 6.00 Build 0)  -->
<svg version="1.1" id="图层_1" xmlns="http://www.w3.org/2000/svg" xmlns:xlink="http://www.w3.org/1999/xlink" x="0px" y="0px"
	 viewBox="0 0 1024 1024" style="enable-background:new 0 0 1024 1024;" xml:space="preserve">
<style type="text/css">
	.st0{fill:#C0A181;}
</style>
<path class="st0" d="M848,152h-4.5c-18.6,0-33.8-15.1-33.8-33.8c0-31.6-26.3-56.2-57.7-56.2H272c-31.4,0-57.7,24.7-57.7,56.2
	c0,18.6-15.1,33.8-33.8,33.8H176c-31.4,0-57.8,24.7-57.8,56.2v90c0,31.6,26.3,56.2,57.8,56.2h12.2l36.5,492.9
	C229.5,912,283.3,962,348.1,962h327.8c64.8,0,118.6-50,123.4-114.6l15.5-209.1h0.4L838,354.5h10c31.4,0,57.8-24.7,57.8-56.2v-90
	C905.8,176.7,879.4,152,848,152z M185.8,287v-67.6c49.7-2.5,90-41,95.4-89.9h461.7c5.4,48.9,45.7,87.3,95.4,89.9V287H185.8z
	 M762.5,445.2c-0.9,2.6-1.4,5.3-1.6,8.2L749,612.9l-1.6,20h0.1L732,842.4c-2.2,29.4-26.6,52.1-56.1,52.1H348.1
	c-29.5,0-53.9-22.7-56.1-52.1l-36.1-487.9h513.9L762.5,445.2z"/>
</svg>
