<?xml version="1.0" encoding="utf-8"?>
<!-- Generator: Adobe Illustrator 23.0.1, SVG Export Plug-In . SVG Version: 6.00 Build 0)  -->
<svg version="1.1" id="图层_1" xmlns="http://www.w3.org/2000/svg" xmlns:xlink="http://www.w3.org/1999/xlink" x="0px" y="0px"
	 viewBox="0 0 1024 1024" style="enable-background:new 0 0 1024 1024;" xml:space="preserve">
<style type="text/css">
	.st0{fill-rule:evenodd;clip-rule:evenodd;fill:#47CCB6;}
	.st1{enable-background:new    ;}
	.st2{fill:#FFFFFF;}
</style>
<path id="Rectangle-8" class="st0" d="M74.5-1327.9h875c34.5,0,62.5,24.5,62.5,54.6v327.7c0,30.1-28,54.6-62.5,54.6h-875
	C40-890.9,12-915.4,12-945.6v-327.7C12-1303.4,40-1327.9,74.5-1327.9z"/>
<text transform="matrix(1 0 0 1 85.4826 -985.1079)" class="st2" style="font-family:'PingFangSC-Medium-GBpc-EUC-H'; font-size:280px;">极速达</text>
<g>
	<path id="矩形" class="st0" d="M64,288h896c30.9,0,56,25.1,56,56v336c0,30.9-25.1,56-56,56H64c-30.9,0-56-25.1-56-56V344
		C8,313.1,33.1,288,64,288z"/>
	<g class="st1">
		<path class="st2" d="M171.9,638.8h-26.6V507.2c-8.4,25.2-19.3,48.2-32.2,68.9l-11.5-29.4c19-25.5,33-54.6,41.4-87.1h-36.4v-25.5
			h38.6v-52.4h26.6v52.4h31.4v25.5h-31.4v14c12,12.3,24.4,26.3,37,41.4l-15.7,23.5c-8.1-13.7-15.1-25.2-21.3-34.4V638.8z
			 M195.7,416.2v-25.5h134.7v17.1c-4.8,23.2-9.5,43.4-14.3,60.5H350v14.8c-5.9,37.5-17.9,69.2-36.1,94.6c14,14.3,30.5,27.2,49,38.4
			l-17.4,22.7c-18.5-12-34.7-25.5-48.4-40.6c-16.5,16.8-36.4,30.8-59.4,41.4l-14.6-24.4c22.1-10.6,40.6-23.8,55.7-38.9
			c-13.7-19-24.6-39.8-32.5-62.2c-7.8,53.2-23.8,94.6-48.2,124l-20.4-17.9c30.8-37.5,46.8-97.7,47.3-180v-24.1H195.7z M323.4,491.6
			h-38.6c5.3-17.4,11.2-42.3,17.6-75.3h-51v24.1c0,4.5-0.3,9-0.3,13.2c6.7,39.5,21.3,73.9,44,103.3
			C308.6,537.5,318.1,515.6,323.4,491.6z"/>
		<path class="st2" d="M520.3,634.6c-18.2-0.3-33-2-44.5-4.8c-11.2-3.4-21-10.1-29.4-19.6c-3.9-4.8-7.3-7-10.6-7
			c-5.9,0-16,12.6-30.2,37.8l-19.6-18.2c14-22.7,26.6-37,37.8-42.6v-79.2h-37.5v-24.6h62.4v105.8c1.4,1.1,2.8,2.5,4.2,4.2
			c6.4,7.6,13.2,13.2,20.2,16.8c8.4,3.9,20.7,6.4,37.2,7c15.7,0.3,34.7,0.6,56.6,0.6c13.7,0,27.7-0.3,41.7-0.6s24.9-0.8,32.8-1.4
			l-6.7,26.3h-64.1C555,635.2,538.2,634.9,520.3,634.6z M457.5,428.6L438.8,447c-11.2-14-26.9-29.1-47.3-45.4l18.2-17.4
			C428.7,399.2,444.7,414,457.5,428.6z M539.3,402.5v-20.2h24.9v20.2h68.3v24.1h-68.3v18.8h59.9v75h-59.9v82.3h-24.9v-68
			c-14,21.8-34.2,40.9-60.2,57.1l-16.5-21c28-14.3,48.4-31.1,61.3-50.4h-44.5v-75h59.9v-18.8h-68.9v-24.1H539.3z M539.3,468.3H504
			v29.1h35.3V468.3z M599.8,468.3h-35.6v29.1h35.6V468.3z M634.2,570.8l-17.6,17.4c-11.2-14.3-26.6-29.7-46.2-45.9l17.1-16.2
			C605.9,540.8,621.3,555.7,634.2,570.8z"/>
		<path class="st2" d="M804.5,634.6c-19-0.3-34.7-2-46.5-4.8c-12-3.4-22.4-10.1-30.8-19.6c-3.9-4.8-7.8-7-11.2-7
			c-5.9,0-16.2,12.9-30.8,38.9L665.6,624c14.3-23.2,27.2-37.8,38.4-43.7v-78.7h-38.1v-25.8h63.6v106.4c1.4,1.1,2.8,2.5,4.2,4.2
			c7,7.3,14,12.9,21.3,16.5c8.7,3.9,21.8,6.2,39.2,6.7c16.5,0.3,36.1,0.6,58.8,0.6c12.6,0,25.5-0.3,38.9-0.3
			c13.2-0.6,23.2-1.1,30.5-1.7l-6.4,26.9h-59.4C840.6,635.2,823.2,634.9,804.5,634.6z M736.7,427.7l-19.6,19.6
			c-11.2-14-26.9-29.1-47-45.4l18.2-17.6C707.3,398.9,723.3,413.2,736.7,427.7z M810.6,441.7c1.4-13.4,2.2-27.2,2.5-41.2v-18.8h26.6
			v12.9c0,16.5-0.8,32.2-2.5,47H905v25.8h-71.7c-1.4,6.4-2.8,12.6-4.2,18.5c24.1,20.4,52.4,49.3,84.3,86.5l-19,19
			c-22.4-29.1-46.8-56-73.1-80.9c-13.4,35.3-34.2,62.2-62.2,80.9l-16.2-21.8c32.8-21,54-55.2,63.8-102.2h-56v-25.8H810.6z"/>
	</g>
</g>
</svg>
