<?xml version="1.0" standalone="no"?><!DOCTYPE svg PUBLIC "-//W3C//DTD SVG 1.1//EN" "http://www.w3.org/Graphics/SVG/1.1/DTD/svg11.dtd"><svg t="1558754533015" class="icon" style="" viewBox="0 0 1024 1024" version="1.1" xmlns="http://www.w3.org/2000/svg" p-id="3440" xmlns:xlink="http://www.w3.org/1999/xlink" width="200" height="200"><defs><style type="text/css"></style></defs><path d="M168.2 43.2h687.5c69 0 125 56 125 125v687.5c0 69-56 125-125 125H168.2c-69 0-125-56-125-125V168.2c0-69 56-125 125-125z" fill="#FF7459" opacity=".121" p-id="3441"></path><path d="M855.8 1012H168.2C82.1 1012 12 941.9 12 855.8V168.2C12 82.1 82.1 12 168.2 12h687.5c86.2 0 156.2 70.1 156.2 156.2v687.5c0.1 86.2-70 156.3-156.1 156.3zM168.2 74.5c-51.7 0-93.8 42.1-93.8 93.8v687.5c0 51.7 42.1 93.8 93.8 93.8h687.5c51.7 0 93.8-42.1 93.8-93.8V168.2c0-51.7-42.1-93.8-93.8-93.8H168.2z" fill="#FF7459" p-id="3442"></path><path d="M198.5 604.5c-1.8-4.6-0.5-9.4 4.1-14.5 2.3-2.3 4.7-3.3 7.2-3.1 2.5 0.2 4.9 1 7.2 2.4 3.7 3.7 7.6 7.4 11.7 11.4s8.5 8.4 13.1 13.4L319.5 403c0.5-1.4 1.9-2.2 4.5-2.4 2.5-0.2 5.2 0.1 7.9 1s5.2 2.2 7.2 3.8c2 1.6 2.8 3.5 2.4 5.9l-55 253c5 5.5 9.4 10.9 13.1 16.2 3.7 5.2 6.7 9.7 8.9 13.4 5 8.3 8.1 15.8 9.3 22.7 1.2 6.9-0.1 14.5-3.8 22.7-2.3 4.6-5.4 9.7-9.3 15.4-3.9 5.7-9 11.1-15.4 16.2-8.3 6.4-15.6 8.8-22 7.2-6.4-1.6-11.5-8.8-15.1-21.7-5.5-20.6-13.1-44.2-22.7-70.8-9.7-26.5-20-53.5-31-81.1zM215 257.4c-0.9-1.8-1-3.9-0.3-6.2 0.7-2.3 1.8-4.5 3.4-6.5 1.6-2 3.5-3.7 5.8-4.8 2.3-1.1 4.6-1.2 6.9-0.3 18.8 8.2 35.7 17.2 50.9 26.8 15.1 9.6 26.6 18.8 34.4 27.5 5.5 5.9 8.8 11.8 10 17.5 1.1 5.7-0.1 13.6-3.8 23.7-1.4 4.1-3.4 8.8-6.2 14-2.7 5.3-6 10.3-9.6 14.8-6.4 7.8-13.3 11.4-20.6 11-7.4-0.5-13.1-6.2-17.2-17.2-6.9-15.6-14.6-31.4-23-47.4s-18.8-33.7-30.7-52.9z m492.9-24.1c-2.3-3.2-1.7-6.3 1.7-9.3 3.4-2.9 6.5-4 9.3-3.1 12.4 3.7 23.9 8.1 34.7 13.4 10.8 5.3 19.3 10.7 25.8 16.2 6.3 5.1 10.1 10.1 11.4 15.1 1.1 5.1 0.3 10.7-2.4 17.2-2.3 4.2-4.8 8.1-7.6 11.7s-6 6.7-9.6 8.9c-0.9 1-1.6 1.4-2.1 1.4h35.1c3.2 0 5.9 1.2 8.2 3.4 2.3 2.3 3.4 4.6 3.4 6.9v8.9c0 2.7-1.1 5.2-3.4 7.3-2.3 2-5 3.1-8.2 3.1H683.9l1.3 55c1 33.5 2.6 63.6 4.8 90.5 2.3 26.8 5.7 51.6 10.3 74.6 9.2-21.5 16.8-43.3 23.1-65.3 6.2-22 11.4-44.9 15.4-68.8 0.4-5 2.4-9.3 5.8-12.7 3.5-3.4 8.9-4.2 16.2-2.4 5 1.4 10 3.1 15.1 5.2s9.8 4.2 14.5 6.5c6.4 3.7 10.3 7.4 11.7 11.4s1.2 8.8-0.7 14.8c-9.2 34.4-19.7 67.1-31.6 98.3-12 31.1-26.9 61.2-44.7 90 9.6 21.5 22 41.7 37.1 60.5s34.1 37.8 57.1 57c8.2 6 9.2 13.5 2.7 22.7-3.7 6.4-8.4 13.1-14.1 20-5.7 6.8-11.1 12.8-16.2 17.9-7.8 7.8-16 7.6-24.8-0.7-38.5-35.7-67.7-74.2-88-115.5-19.7 22.5-42.3 43.6-67.7 63.6-25.5 20-54.7 39.1-87.7 57.4-1.9 0.9-3.9 0.7-6.2-0.7-2.3-1.3-4.2-3.2-5.9-5.5-1.6-2.3-2.5-4.7-2.7-7.2s0.8-4.5 3.1-5.9c31.6-26.1 59.2-52 82.8-77.7 23.6-25.6 44.1-52 61.5-79-11.9-35.3-20.4-72.9-25.5-112.7-5-39.9-8.4-83.4-10.3-130.6l-1.4-60.5h-186v103.8c0 45.4-1.6 86.3-4.8 122.7s-8.9 69.9-17.2 100.3c-8.2 30.5-19.6 58.5-34 83.9-14.4 25.4-32.7 49.6-54.7 72.5-1.4 1.3-3.3 1.6-5.9 0.7-2.5-0.9-4.8-2.3-6.9-4.1-2-1.9-3.7-4-4.8-6.5-1.1-2.6-1-4.8 0.4-6.5 12.8-27.5 23.3-53.5 31.3-78.1 8-24.5 14.2-50.4 18.6-77.7 4.3-27.2 7.2-57.1 8.6-89.7 1.4-32.5 2-70.6 2-114.1V302c0-5.1 1.8-9.4 5.5-13.1s8-5.5 13.1-5.5h30.3c5 0 9.4 2 13.1 5.8 3.7 3.9 5.5 8.2 5.5 12.8v2.7h186.3l-1.4-78.4c0-7.8 1.6-13.2 4.9-16.2 3.2-3 7.5-4.5 13.1-4.5l26.1-0.7c6.3 0 11.5 1.3 15.4 4.1 3.8 2.7 5.6 8.1 5.2 15.8l1.3 79.8h65.3c-3.2-2.3-5.7-6-7.6-11-3.7-9.6-8.5-19.7-14.4-30.3-6-10.3-12.4-20.4-19.3-30zM447.4 413.4c0-2.3 1-4.6 3.1-6.9 2.1-2.3 4.7-3.4 7.9-3.4h138.9c3.2 0 6 1.2 8.3 3.4 2.3 2.3 3.4 4.6 3.4 6.9v8.9c0 3.2-1.3 5.9-3.8 7.9-2.6 2-4.9 3.1-7.2 3.1H458.4c-7.3 0-11-3.7-11-11v-8.9z m3.4 91.5c0-5.1 1.8-9.5 5.5-13.4 3.7-3.9 8-5.9 13.1-5.9h15.8c4.6 0 8.6 1.5 12 4.5 3.4 3 5.6 6.7 6.5 11.3h44.7c0.4-5 2.4-9.3 5.8-12.7 3.5-3.4 7.7-5.1 12.8-5.1h15.1c5.1 0 9.5 1.8 13.4 5.5s5.9 8.2 5.9 13.7v175.3c0 5.1-2 9.4-5.9 13.1s-8.3 5.5-13.4 5.5H567c-4.1 0-7.9-1.2-11.4-3.8-3.5-2.5-5.6-5.6-6.5-9.3h-44.7v16.5c0 5-2 9.4-5.9 13.1-3.9 3.7-8.4 5.5-13.4 5.5h-15.8c-4.6 0-8.8-1.8-12.7-5.5s-5.8-8.1-5.8-13.1V504.9z m53.6 149.8h44V530.3h-44v124.4z" fill="#FF7459" p-id="3443"></path></svg>