<?xml version="1.0" standalone="no"?><!DOCTYPE svg PUBLIC "-//W3C//DTD SVG 1.1//EN" "http://www.w3.org/Graphics/SVG/1.1/DTD/svg11.dtd"><svg t="1555576373267" class="icon" style="" viewBox="0 0 1024 1024" version="1.1" xmlns="http://www.w3.org/2000/svg" p-id="3077" xmlns:xlink="http://www.w3.org/1999/xlink" width="200" height="200"><defs><style type="text/css"></style></defs><path d="M512 86.84c57.41 0 113.08 11.24 165.49 33.4 50.63 21.41 96.1 52.07 135.15 91.12 39.05 39.05 69.71 84.52 91.12 135.15 22.16 52.4 33.4 108.08 33.4 165.49s-11.24 113.08-33.4 165.49c-21.41 50.63-52.07 96.1-91.12 135.15-39.05 39.05-84.52 69.71-135.15 91.12-52.4 22.16-108.08 33.4-165.49 33.4s-113.08-11.24-165.49-33.4c-50.63-21.41-96.1-52.07-135.15-91.12-39.05-39.05-69.71-84.52-91.12-135.15-22.16-52.4-33.4-108.08-33.4-165.49s11.24-113.08 33.4-165.49c21.41-50.63 52.07-96.1 91.12-135.15 39.05-39.05 84.52-69.71 135.15-91.12 52.41-22.16 108.08-33.4 165.49-33.4m0-22C265.04 64.84 64.84 265.04 64.84 512S265.04 959.16 512 959.16 959.16 758.96 959.16 512 758.96 64.84 512 64.84z" fill="#B3B3B0" p-id="3078"></path><path d="M717.08 552H306.92c-22.09 0-40-17.91-40-40s17.91-40 40-40h410.15c22.09 0 40 17.91 40 40 0.01 22.09-17.9 40-39.99 40z" fill="#282826" p-id="3079"></path></svg>