<?xml version="1.0" standalone="no"?><!DOCTYPE svg PUBLIC "-//W3C//DTD SVG 1.1//EN" "http://www.w3.org/Graphics/SVG/1.1/DTD/svg11.dtd"><svg t="1555654917452" class="icon" style="" viewBox="0 0 1024 1024" version="1.1" xmlns="http://www.w3.org/2000/svg" p-id="2989" xmlns:xlink="http://www.w3.org/1999/xlink" width="200" height="200"><defs><style type="text/css"></style></defs><path d="M523.4 946.5c-34.1 0-67-13.9-90.7-38.5L57.5 520.3C13.3 474.7 10 403 49.8 353.5l184.2-229c24.1-30 60-47.1 98.3-47.1h353c36.9 0 71.9 16.1 95.9 44.1l190.4 222.6c19.8 23.3 30.6 52.8 30.3 83.5-0.3 30.5-11.7 60-32.1 82.7l-352.5 394c-23.3 26-56.6 41.4-91.6 42-0.6 0.1-1.5 0.2-2.3 0.2z" fill="#CAAC60" p-id="2990"></path><path d="M332.4 161.2c-12.9 0-25 5.8-33 15.8L115.2 406c-13.3 16.6-12.3 40.7 2.6 56L493 849.8c8.3 8.5 19.4 13.1 31.2 12.9 11.8-0.2 22.8-5.2 30.7-14.2l352.3-394.1c14-15.7 14.4-39.6 0.6-55.7L717.6 176.1c-8.1-9.4-19.8-14.8-32.2-14.8h-353v-0.1z" fill="#F2DF93" p-id="2991"></path><path d="M512.4 712.5c-19.3 0-38.7-7.3-53.4-22.1L273.9 505.1c-16.4-16.4-16.4-42.9 0-59.3s42.9-16.4 59.3 0l179.3 179.3 178.3-178.3c16.4-16.4 42.9-16.4 59.3 0 16.5 16.4 16.4 42.9 0 59.3L565.7 690.4c-14.6 14.7-33.9 22.1-53.3 22.1z" fill="#292928" p-id="2992"></path></svg>