<?xml version="1.0" standalone="no"?><!DOCTYPE svg PUBLIC "-//W3C//DTD SVG 1.1//EN" "http://www.w3.org/Graphics/SVG/1.1/DTD/svg11.dtd"><svg t="1558689196039" class="icon" style="" viewBox="0 0 1024 1024" version="1.1" xmlns="http://www.w3.org/2000/svg" p-id="3447" xmlns:xlink="http://www.w3.org/1999/xlink" width="200" height="200"><defs><style type="text/css"></style></defs><path d="M861.3 1012H162.7c-42.4 0-76.9-34.5-76.9-76.9V454.2c0-21.2 17.2-38.5 38.5-38.5s38.5 17.2 38.5 38.5v480.9h698.6V454.2c0-21.2 17.2-38.5 38.5-38.5s38.5 17.2 38.5 38.5v480.9c-0.2 42.4-34.7 76.9-77.1 76.9z" fill="#47CCB6" p-id="3448"></path><path d="M560.1 877.4h-96.2V685.1c0-21.2 17.2-38.5 38.5-38.5h19.2c21.2 0 38.5 17.2 38.5 38.5v192.3zM233.8 528c-39 0-74.1-8.2-104.3-24.3-0.6-0.3-1.1-0.6-1.6-0.9C56.4 464 12.1 389.6 12 308.2c0-15.4 6.2-32.7 67.7-167 14.6-32 28.5-62.3 37.4-82.9C129.2 30.2 157 12 187.7 12h650.7c31 0 58.7 18.4 70.8 46.8 8.7 20.6 22.3 50.8 36.6 82.6 60.1 133.7 66.2 150.9 66.1 166.2 0 81-44.2 155.5-115.4 194.4-30.5 16.7-66.1 25.3-105.8 25.5-51.8 0-101.1-17.7-140.2-49.6-38.6 31.6-87.1 49.3-138 49.7-51.6-0.3-100.4-18-139.3-49.6-38.8 32-87.9 49.8-139.4 50z" fill="#47CCB6" p-id="3449"></path><path d="M233.7 451.1c42.6-0.1 82.8-18.9 110.2-51.5 7.3-8.7 18.1-13.7 29.4-13.7 11.4 0 22.1 5 29.4 13.7 27.2 32.3 67.2 51 109.9 51.2 41.7-0.3 81.5-19 108.6-51.3 14.6-17.4 44.3-17.4 58.9 0 27.3 32.6 67.6 51.2 110.6 51.2 26.6-0.1 49.9-5.5 69-16 45.4-24.8 74.1-71.9 75.3-123.6-5.7-18.7-37.8-90.1-59.3-138-14.6-32.4-28.3-63.1-37.2-84.1H187.7c-9 20.9-23.1 51.8-38.1 84.4-22 48.1-54.8 119.7-60.7 138.6 1.4 52 30.4 99.3 76.6 123.9 0.3 0.2 0.7 0.4 1 0.6 18.9 9.6 41.4 14.6 67.2 14.6z" fill="#FFFFFF" opacity=".88" p-id="3450"></path></svg>