<?xml version="1.0" standalone="no"?><!DOCTYPE svg PUBLIC "-//W3C//DTD SVG 1.1//EN" "http://www.w3.org/Graphics/SVG/1.1/DTD/svg11.dtd"><svg t="1558767039716" class="icon" style="" viewBox="0 0 1024 1024" version="1.1" xmlns="http://www.w3.org/2000/svg" p-id="3669" xmlns:xlink="http://www.w3.org/1999/xlink" width="200" height="200"><defs><style type="text/css"></style></defs><path d="M168.2 43.2h687.5c69 0 125 56 125 125v687.5c0 69-56 125-125 125H168.2c-69 0-125-56-125-125V168.2c0-69 56-125 125-125z" fill="#FFA333" opacity=".12" p-id="3670"></path><path d="M855.8 1012H168.2C82.1 1012 12 941.9 12 855.8V168.2C12 82.1 82.1 12 168.2 12h687.5c86.2 0 156.2 70.1 156.2 156.2v687.5c0.1 86.2-70 156.3-156.1 156.3zM168.2 74.5c-51.7 0-93.8 42.1-93.8 93.8v687.5c0 51.7 42.1 93.8 93.8 93.8h687.5c51.7 0 93.8-42.1 93.8-93.8V168.2c0-51.7-42.1-93.8-93.8-93.8H168.2z" fill="#FFA333" p-id="3671"></path><path d="M243.5 335.3c0-3.2 1.3-6 3.8-8.2 2.5-2.3 5.4-3.4 8.6-3.4H357c-2.8-2.3-4.8-5.5-6.2-9.6-3.7-9.6-7.1-17.9-10.3-24.8-3.2-6.9-6.5-13.4-10-19.6s-7.1-12.4-11-18.6-8.6-13.2-14.1-21c-0.9-0.9-0.9-2.4 0-4.5s2.1-4 3.4-5.8 3.1-3.2 5.2-4.1c2.1-0.9 3.8-1.1 5.2-0.7 15.6 6.4 30.5 13.4 44.7 21 14.2 7.6 25.7 15.5 34.4 23.7 10.5 9.2 13.1 19.7 7.6 31.6-2.3 6.4-5.5 12.4-9.6 17.9s-8 9.9-11.7 13.1c-0.9 0.9-1.6 1.4-2.1 1.4H454c9.2-33.5 16.7-70.1 22.7-110 0.9-5 3.9-8.8 8.9-11.3s9.9-3.3 14.4-2.4l43.3 9.6c5 1.4 8.7 4.4 11 8.9s3 9.4 2.1 14.4c-6.9 32.5-14.4 62.8-22.7 90.8h69.4c7.8-18.8 14.4-35.7 19.9-50.9 5.5-15.1 9.9-28.2 13.1-39.2 1.4-6.4 4.2-10.4 8.6-12 4.4-1.6 9.7-1.3 16.2 1 5.5 1.8 11.9 4.5 19.2 7.9 7.3 3.4 12.8 6.3 16.5 8.6 6.4 3.7 10.2 8.2 11.3 13.8 1.1 5.5-0.8 10.8-5.8 15.8-9.2 10.1-19.4 19.9-30.6 29.6-11.2 9.6-22.1 18.1-32.7 25.4h141.6c3.2 0 6.2 1.1 8.9 3.4 2.8 2.3 4.1 5 4.1 8.2v8.9c0 3.2-1.4 5.8-4.1 7.9-2.8 2.1-5.7 3.1-8.9 3.1H524c-9.6 28.9-21.1 55.9-34.4 81.1h319.7c3.7 0 6.6 1.1 8.9 3.4 2.3 2.3 3.4 5 3.4 8.2v10.3c0 2.8-1.1 5.3-3.4 7.6s-5.3 3.4-8.9 3.4H612c29.3 24.8 61.4 45.5 96.2 62.2 34.8 16.7 74.2 29.7 118.2 38.8 4.6 0.9 7.1 3.2 7.6 6.9s-0.5 7.3-2.8 11c-5.5 8.7-10.7 16.6-15.5 23.7-4.8 7.1-10.4 13.9-16.8 20.3-8.3 9.6-17.9 12.4-28.9 8.2-16-6-30.9-12.6-44.7-19.9-13.8-7.3-26.6-15.6-38.5-24.8-0.5 10.1-1 20.7-1.7 32-0.7 11.2-1.5 22.3-2.4 33.3-0.9 11-1.9 21.5-3.1 31.6-1.1 10.1-2.2 19-3.1 26.8-1.4 9.2-3 17.9-4.8 26.1-1.8 8.3-4.8 15.9-8.9 23-4.1 7.1-9.7 13.3-16.8 18.6-7.1 5.3-16.4 9.5-27.8 12.7-6.4 1.8-13.3 3.3-20.6 4.5-7.3 1.1-15.1 1.9-23.4 2.4-6.4 0-11.2-0.5-14.4-1.4-3.2-0.9-6.9-4.1-11-9.6-2.3-3.7-5.4-9.1-9.3-16.2-3.9-7.1-7.7-13.9-11.3-20.3-3.2-6.9-3.7-11.6-1.4-14.1 2.3-2.5 6-4.2 11-5.2 0.9 0 2.7-0.1 5.5-0.3 2.8-0.2 6-0.7 9.6-1.4 3.7-0.7 7.6-1.3 11.7-1.7 4.1-0.5 7.8-1.1 11-2.1 10.1-2.3 17-6.5 20.6-12.7 3.7-6.2 6.2-15.2 7.6-27.2 0.5-6 1-12.8 1.7-20.6 0.7-7.8 1.4-15.9 2.1-24.4 0.7-8.5 1.3-17 1.7-25.4 0.5-8.5 0.9-16.6 1.4-24.4H490.3c-6.9 29.8-16.3 55.5-28.2 77-11.9 21.5-27.5 40.4-46.8 56.7-19.3 16.3-43.1 30.7-71.5 43.3s-62.8 24.6-103.1 36.1c-2.3 0.5-4.6-0.2-6.9-2.1-2.3-1.8-4-4.1-5.2-6.9-1.1-2.8-1.6-5.5-1.4-8.2 0.2-2.8 1.7-4.8 4.5-6.2 28.9-14.2 53.7-28.3 74.6-42.3 20.9-14 38.5-28.4 52.9-43.3 14.4-14.9 26-30.8 34.7-47.8 8.7-17 15.4-35.7 19.9-56.4h-72.9c-1.8 0-3.7-0.5-5.5-1.4-33.9 22-74 43.1-120.3 63.2-2.3 0.9-4.7 0.6-7.2-1s-4.6-3.9-6.2-6.9c-1.6-3-2.4-6-2.4-8.9 0-3 1.1-5.4 3.4-7.2 42.6-28.9 78.8-56.6 108.6-83.2 29.8-26.6 55-55 75.6-85.2h-162c-2.8 0-5.5-1-8.2-3.1-2.8-2.1-4.1-4.7-4.1-7.9v-10.3c0-3.2 1.4-6 4.1-8.2s5.5-3.4 8.2-3.4h183.6c13.3-23.8 25.2-50.9 35.8-81.1H255.9c-3.2 0-6.1-1-8.6-3.1s-3.8-4.7-3.8-7.9v-8.6z m400.1 221.4c-12.4-13.3-23.7-27.2-34-41.6-10.3-14.4-19.8-29.7-28.5-45.7H470.4c-11.9 18.3-25.6 35.7-40.9 52.3-15.4 16.5-32.9 32.3-52.6 47.4h235.8c0.9-5 2.9-8.6 5.8-10.7s7.9-2.9 14.8-2.4l10.3 0.7z" fill="#FFA333" p-id="3672"></path></svg>