<?xml version="1.0" encoding="UTF-8"?>
<svg width="28px" height="20px" viewBox="0 0 28 20" version="1.1" xmlns="http://www.w3.org/2000/svg" xmlns:xlink="http://www.w3.org/1999/xlink">
    <!-- Generator: Sketch 55.2 (78181) - https://sketchapp.com -->
    <title>编组 30</title>
    <desc>Created with Sketch.</desc>
    <g id="页面1" stroke="none" stroke-width="1" fill="none" fill-rule="evenodd">
        <g id="v1.01_配送-确认订单-1" transform="translate(-24.000000, -609.000000)">
            <g id="编组-30" transform="translate(24.000000, 609.000000)">
                <path d="M28,5 L0,5 L0,3 C-2.02906125e-16,1.34314575 1.34314575,3.04359188e-16 3,0 L25,0 C26.6568542,-3.04359188e-16 28,1.34314575 28,3 L28,5 Z M28,6 L28,17 C28,18.6568542 26.6568542,20 25,20 L3,20 C1.34314575,20 2.02906125e-16,18.6568542 0,17 L0,6 L28,6 Z" id="形状结合" fill="#2B2D33"></path>
                <path d="M17.1384984,11.0037347 L18.9493585,11.0037347 L16.4978639,17.9745011 L14.6784619,17.9745011 L17.1384984,11.0037347 Z M12.6882241,11.2051514 L13.5936542,13.7797811 L13.021354,15.3911141 L11.2104939,15.3911141 L12.6882241,11.2051514 Z M8.53691259,8.19265937 L9.44234267,10.7672892 L7.81086016,15.3911141 L6,15.3911141 L8.53691259,8.19265937 Z M12.0475896,12.6150677 L11.1421595,15.1896975 L8.60524693,8 L10.4161071,8 L12.0475896,12.6150677 Z M15.7803532,14.4540889 L15.4557651,15.3911141 L14.302623,15.3911141 L12.7565584,11.0037347 L14.5674186,11.0037347 L15.7803532,14.4540889 Z M22.3371129,13.3681907 L22.3371129,12.6500966 L22.8923295,12.6500966 C23.0802489,12.6500966 23.242543,12.807727 23.242543,13.0091437 C23.242543,13.201803 23.0887907,13.3681907 22.8923295,13.3681907 L22.3371129,13.3681907 Z M22.3371129,12.6500966 L21.6452277,12.6500966 L22.3371129,12.6500966 Z M20.9362588,11.9320026 L20.9362588,11.3627818 C20.9362588,11.1613651 21.0985529,11.0037347 21.2864724,11.0037347 C21.4743918,11.0037347 21.6366859,11.1613651 21.6366859,11.3627818 L21.6366859,11.9320026 L21.6366859,12.6500966 L20.3810423,12.6500966 C20.184581,12.6500966 20.0308287,12.4924663 20.0308287,12.2910496 C20.0308287,12.089633 20.184581,11.9320026 20.3810423,11.9320026 L20.9362588,11.9320026 Z" id="形状结合" fill="#B99B7C"></path>
            </g>
        </g>
    </g>
</svg>