<?xml version="1.0" encoding="utf-8"?>
<!-- Generator: Adobe Illustrator 23.0.1, SVG Export Plug-In . SVG Version: 6.00 Build 0)  -->
<svg version="1.1" id="图层_1" xmlns="http://www.w3.org/2000/svg" xmlns:xlink="http://www.w3.org/1999/xlink" x="0px" y="0px"
	 viewBox="0 0 35 38" style="enable-background:new 0 0 35 38;" xml:space="preserve">
<style type="text/css">
	.st0{fill:url(#路径_1_);}
	.st1{fill:url(#SVGID_1_);}
	.st2{fill:#27292B;}
	.st3{fill:url(#SVGID_2_);}
	.st4{fill:#F2CF9B;}
</style>
<title>我家会员</title>
<desc>Created with Sketch.</desc>
<g id="页面1">
	<g id="v1.04_个人中心" transform="translate(-76.000000, -103.000000)">
		<g id="我家会员" transform="translate(82.000000, 108.000000)">
			<g id="编组">
				
					<linearGradient id="路径_1_" gradientUnits="userSpaceOnUse" x1="-171.8372" y1="207.04" x2="-171.6407" y2="207.7878" gradientTransform="matrix(11.4973 0 0 -25.9371 1991.0269 5396.5317)">
					<stop  offset="0" style="stop-color:#F2CF9B"/>
					<stop  offset="1" style="stop-color:#F0DBBF"/>
				</linearGradient>
				<path id="路径" class="st0" d="M23,8.5c0-0.7-0.4-1.4-1-1.7l-9.5-5.5c-0.3-0.2-0.7-0.3-1-0.3V27c0.3,0,0.7-0.1,1-0.3l9.5-5.5
					c0.6-0.4,1-1,1-1.7V8.5z"/>
				
					<linearGradient id="SVGID_1_" gradientUnits="userSpaceOnUse" x1="-171.7074" y1="207.7977" x2="-171.5109" y2="207.0392" gradientTransform="matrix(11.4973 0 0 -25.9371 1979.5295 5396.5391)">
					<stop  offset="0" style="stop-color:#EBC388"/>
					<stop  offset="1" style="stop-color:#F2CF9B"/>
				</linearGradient>
				<path class="st1" d="M0,8.5c0-0.7,0.4-1.4,1-1.7l9.5-5.5c0.3-0.2,0.7-0.3,1-0.3V27c-0.3,0-0.7-0.1-1-0.3L1,21.2
					c-0.6-0.4-1-1-1-1.7V8.5z"/>
			</g>
			<g transform="translate(2.935484, 6.010753)">
				<path class="st2" d="M7.6,15.6L0.3,6.9c-0.4-0.5-0.4-1.1,0-1.6l3-3.8C3.5,1.2,3.9,1,4.3,1h8.6c0.4,0,0.8,0.2,1,0.5l3,3.8
					c0.4,0.5,0.4,1.1,0,1.6l-7.3,8.7C9,16.2,8.1,16.2,7.6,15.6z"/>
				<g transform="translate(5.591398, 3.494624)">
					
						<linearGradient id="SVGID_2_" gradientUnits="userSpaceOnUse" x1="-118.3093" y1="177.4665" x2="-118.3093" y2="178.4665" gradientTransform="matrix(2.3414 0 0 -6.6957 278.1546 1195.979)">
						<stop  offset="0.2074" style="stop-color:#D69F58"/>
						<stop  offset="0.2794" style="stop-color:#DCA966"/>
						<stop  offset="0.4301" style="stop-color:#E6BA7D"/>
						<stop  offset="0.5913" style="stop-color:#EDC68E"/>
						<stop  offset="0.769" style="stop-color:#F1CD98"/>
						<stop  offset="0.9949" style="stop-color:#F2CF9B"/>
					</linearGradient>
					<polygon class="st3" points="0.6,1 0,1 0,1.8 0.6,1.8 0.6,7.7 2.3,7.7 2.3,1 					"/>
					<polygon class="st4" points="0.6,6.7 5.4,1 7.9,1 2.3,7.7 0.6,7.7 					"/>
				</g>
			</g>
		</g>
	</g>
</g>
</svg>
