<?xml version="1.0" encoding="utf-8"?>
<!-- Generator: Adobe Illustrator 23.0.1, SVG Export Plug-In . SVG Version: 6.00 Build 0)  -->
<svg version="1.1" id="图层_1" xmlns="http://www.w3.org/2000/svg" xmlns:xlink="http://www.w3.org/1999/xlink" x="0px" y="0px"
	 viewBox="0 0 1024 1024" style="enable-background:new 0 0 1024 1024;" xml:space="preserve">
<style type="text/css">
	.st0{fill:url(#形状结合_1_);}
</style>
<g id="页面1">
	<g id="v1.0_个人中心_1" transform="translate(-99.000000, -119.000000)">
		<g id="编组-9" transform="translate(94.000000, 114.000000)">
			<g id="会员" transform="translate(5.000000, 5.000000)">
				
					<linearGradient id="形状结合_1_" gradientUnits="userSpaceOnUse" x1="482.5824" y1="577.4136" x2="482.5824" y2="504.762" gradientTransform="matrix(12.3879 0 0 -10.9854 -5466.1797 6456.0776)">
					<stop  offset="0" style="stop-color:#FFEB0D"/>
					<stop  offset="1" style="stop-color:#FFD70D"/>
				</linearGradient>
				<path id="形状结合" class="st0" d="M522.5,911.1c-31.3,0-61.5-12.8-83.3-35.3L94.6,519.7c-40.5-41.9-43.6-107.7-7-153.2
					l169.2-210.3c22.1-27.5,55.1-43.2,90.3-43.2h324.2c33.9,0,66.1,14.8,88.1,40.5l174.9,204.4c18.2,21.4,28.1,48.5,27.8,76.6
					c-0.3,28-10.8,55.1-29.5,76L608.8,872.3c-21.4,23.9-52,38-84.2,38.6C524,911,523.2,911.1,522.5,911.1z M347,189.9
					c-11.8,0-22.9,5.3-30.3,14.5L147.5,414.7c-12.2,15.2-11.3,37.4,2.4,51.4l344.6,356.1c7.6,7.8,17.8,12,28.7,11.8
					c10.9-0.2,20.9-4.8,28.2-13L875,459.1c12.9-14.4,13.2-36.4,0.6-51.1L700.8,203.6c-7.4-8.7-18.2-13.6-29.6-13.6L347,189.9
					L347,189.9z M512.3,696.1c-17.7,0-35.5-6.7-49-20.3l-170-170.1c-15-15-15-39.4,0-54.5c15-15,39.4-15,54.5,0l164.6,164.6
					l163.8-163.8c15-15,39.4-15,54.5,0c15.1,15,15,39.4,0,54.5L561.4,675.8C547.9,689.3,530.2,696.1,512.3,696.1z"/>
			</g>
		</g>
	</g>
</g>
</svg>
