<?xml version="1.0" encoding="utf-8"?>
<!-- Generator: Adobe Illustrator 23.0.1, SVG Export Plug-In . SVG Version: 6.00 Build 0)  -->
<svg version="1.1" id="图层_1" xmlns="http://www.w3.org/2000/svg" xmlns:xlink="http://www.w3.org/1999/xlink" x="0px" y="0px"
	 viewBox="0 0 1024 1024" style="enable-background:new 0 0 1024 1024;" xml:space="preserve">
<style type="text/css">
	.st0{fill:url(#路径_1_);}
	.st1{fill:#353534;}
	.st2{fill:#404040;}
</style>
<g id="页面1">
	<g id="v1.0_个人中心" transform="translate(-51.000000, -268.000000)">
		<g id="我的钱包" transform="translate(51.000000, 268.000000)">
			
				<linearGradient id="路径_1_" gradientUnits="userSpaceOnUse" x1="479.9356" y1="529.9285" x2="517.5076" y2="529.9285" gradientTransform="matrix(12.5459 0 0 -7.2297 -5530.6216 4422.7944)">
				<stop  offset="0" style="stop-color:#FFDF0D"/>
				<stop  offset="1" style="stop-color:#FFC60D"/>
			</linearGradient>
			<path id="路径" class="st0" d="M626.6,727.4H962V455.8H626.6c-75.1,0-136,60.9-136,135.8S551.5,727.4,626.6,727.4z"/>
			<ellipse id="椭圆形" class="st1" cx="626.3" cy="591.6" rx="50.8" ry="50.7"/>
			<path id="形状" class="st2" d="M961,425.4V338c0-52-42.3-94.3-94.4-94.3H740.3l-64.2-110c-16.9-28.9-48.1-46.9-81.6-46.9H156.4
				c-52.1,0-94.4,42.3-94.4,94.3v133.4h0.4v528.3c0,52,42.3,94.3,94.4,94.3h709.8c52.1,0,94.4-42.3,94.4-94.3v-87.3H890v87.4
				c0,12.9-10.5,23.3-23.4,23.3H156.8c-12.9,0-23.4-10.4-23.4-23.3V314.7h733.2c12.9,0,23.4,10.4,23.4,23.3v87.4H961z M133.1,181.3
				c0-12.9,10.5-23.3,23.4-23.3h438.2c8.3,0,16,4.5,20.2,11.6l43.3,74.1h-525V181.3z"/>
		</g>
	</g>
</g>
</svg>
