<?xml version="1.0" standalone="no"?><!DOCTYPE svg PUBLIC "-//W3C//DTD SVG 1.1//EN" "http://www.w3.org/Graphics/SVG/1.1/DTD/svg11.dtd"><svg t="1564555122916" class="icon" viewBox="0 0 1024 1024" version="1.1" xmlns="http://www.w3.org/2000/svg" p-id="4379" xmlns:xlink="http://www.w3.org/1999/xlink" width="32" height="32"><defs><style type="text/css"></style></defs><path d="M220.4 858.7L322 742l-0.1 156c2.2 33.1-22.8 61.6-55.9 63.9-33.1 2.2-61.6-22.8-63.9-55.9-1.1-17.7 5.5-35 18.3-47.3z m240.7-0.6L562 742l-0.1 156c2.2 33.1-22.8 61.7-55.8 63.9-33.1 2.2-61.7-22.8-63.9-55.8-1.3-18.1 5.7-35.6 18.9-48z m240.6-0.6L802 742l-0.1 156c2.2 33.1-22.8 61.7-55.9 63.9S684.4 939 682.2 906c-1.3-18.3 5.9-36.2 19.5-48.5zM257.2 240.1C294.1 136.4 394.2 62 512 62c139 0 253.4 103.6 268.3 236.8h1.7c99.4 0 180 79.5 180 177.6S881.4 654 782 654H272c-116 0-210-92.8-210-207.2 0-109.5 86.1-199.2 195.2-206.7z" fill="#F2F2F2" p-id="4380"></path></svg>