<?xml version="1.0" standalone="no"?><!DOCTYPE svg PUBLIC "-//W3C//DTD SVG 1.1//EN" "http://www.w3.org/Graphics/SVG/1.1/DTD/svg11.dtd"><svg t="1564555109872" class="icon" viewBox="0 0 1024 1024" version="1.1" xmlns="http://www.w3.org/2000/svg" p-id="4000" xmlns:xlink="http://www.w3.org/1999/xlink" width="32" height="32"><defs><style type="text/css"></style></defs><path d="M704 576.6h48.7c78.9 0 142.9 63 142.9 140.8s-64 140.8-142.9 140.8H252.5v-0.3C146.3 851.8 62 764.9 62 658.7c0-85.9 55.1-159.2 132.5-187.2C229.1 368.9 327.3 295 443.1 295c144.7 0 262 115.6 262 258.2 0 7.8-0.4 15.7-1.1 23.4z" fill="#F2F2F2" p-id="4001"></path><path d="M624.1 292.5c26.4-20.7 59-31.9 92.5-31.8 83.8 0 151.8 68.9 151.8 153.8 0.1 43-17.7 84-49.2 113.3-14.7-5-30.1-7.6-45.7-7.6h-24.6c-6.7-90.3-52.2-173.4-124.8-227.7z m117.6-126.6c10.5 1.1 18 10.4 16.9 20.8l-4 38.8c-1.1 10.4-10.4 17.9-20.8 16.9h-0.1c-10.4-1.1-18-10.4-16.9-20.8l4-38.8c1.1-10.4 10.4-18 20.9-16.9z m151.6 74.9l0.3 0.3c7.2 7.5 7 19.4-0.5 26.7l-27.6 27c-7.4 7.3-19.4 7.1-26.7-0.3l-0.2-0.2-0.3-0.3c-7.2-7.5-7-19.4 0.5-26.7l27.6-27c7.4-7.3 19.4-7.1 26.7 0.3l0.2 0.2z m68.6 156v0.5c0.7 10.4-7.1 19.5-17.6 20.2l-37.9 2.7c-10.5 0.7-19.5-7.1-20.3-17.6v-0.5c-0.7-10.4 7.2-19.5 17.6-20.2l37.9-2.7c10.5-0.8 19.6 7.1 20.3 17.6z m-46.2 164.3l-0.2 0.3c-6.1 8.5-17.9 10.4-26.4 4.4l-0.2-0.2-30.9-22.8c-8.4-6.2-10.2-17.9-4.2-26.3l0.2-0.3c6.1-8.5 17.9-10.4 26.4-4.4l0.2 0.2 30.9 22.8c8.4 6.1 10.2 17.8 4.2 26.3z m-338-353.7l0.2-0.2c8.6-5.9 20.3-3.7 26.2 4.9 0 0.1 0.1 0.1 0.1 0.2l21.5 32.3c5.8 8.6 3.5 20.3-5.1 26.2l-0.2 0.2c-8.6 5.9-20.3 3.7-26.2-4.9 0-0.1-0.1-0.1-0.1-0.2l-21.5-32.3c-5.7-8.6-3.5-20.3 5.1-26.2z" fill="#FFC303" p-id="4002"></path></svg>