<?xml version="1.0" standalone="no"?><!DOCTYPE svg PUBLIC "-//W3C//DTD SVG 1.1//EN" "http://www.w3.org/Graphics/SVG/1.1/DTD/svg11.dtd"><svg t="1564555118748" class="icon" viewBox="0 0 1024 1024" version="1.1" xmlns="http://www.w3.org/2000/svg" p-id="4253" xmlns:xlink="http://www.w3.org/1999/xlink" width="32" height="32"><defs><style type="text/css"></style></defs><path d="M195.4 403.2c33-117.6 139.4-203.8 265.5-203.8 152.5 0 276.2 125.9 276.2 281.2 0 10.6-0.6 21-1.7 31.2h63v0.4c3.4-0.2 6.8-0.4 10.2-0.4 84.7 0 153.4 70 153.4 156.2s-68.7 156.3-153.4 156.3c-3.4 0-6.9-0.1-10.2-0.3v0.3H276.8C158.2 824.5 62 726.6 62 605.8c0-91.5 55.1-169.9 133.4-202.6z" fill="#F2F2F2" p-id="4254"></path></svg>