<?xml version="1.0" standalone="no"?><!DOCTYPE svg PUBLIC "-//W3C//DTD SVG 1.1//EN" "http://www.w3.org/Graphics/SVG/1.1/DTD/svg11.dtd"><svg t="1564555115373" class="icon" viewBox="0 0 1024 1024" version="1.1" xmlns="http://www.w3.org/2000/svg" p-id="4127" xmlns:xlink="http://www.w3.org/1999/xlink" width="32" height="32"><defs><style type="text/css"></style></defs><path d="M512 782c-149.1 0-270-120.9-270-270s120.9-270 270-270 270 120.9 270 270-120.9 270-270 270z m0-720c18.6 0 33.8 15.1 33.8 33.7v90c0 18.6-15.1 33.8-33.8 33.8-18.6 0-33.8-15.1-33.8-33.8v-90c0-18.6 15.2-33.7 33.8-33.7z m318.2 131.8c13.2 13.2 13.2 34.5 0 47.7l-63.6 63.7c-13.2 13.2-34.6 13.2-47.7 0-13.2-13.2-13.2-34.6 0-47.7l63.7-63.6c13.1-13.3 34.4-13.3 47.6-0.1zM962 512c0 18.6-15.1 33.8-33.8 33.8h-90c-18.6 0-33.8-15.1-33.8-33.8 0-18.6 15.1-33.8 33.8-33.8h90c18.7 0 33.8 15.2 33.8 33.8zM830.2 830.2c-13.2 13.2-34.5 13.2-47.7 0l-63.7-63.6c-13.2-13.2-13.2-34.6 0-47.7s34.6-13.2 47.7 0l63.6 63.7c13.3 13.1 13.3 34.4 0.1 47.6zM512 962c-18.6 0-33.8-15.1-33.8-33.8v-90c0-18.6 15.1-33.8 33.8-33.8 18.6 0 33.8 15.1 33.8 33.8v90c0 18.7-15.2 33.8-33.8 33.8zM193.8 830.2c-13.2-13.2-13.2-34.5 0-47.7l63.6-63.7c13.2-13.2 34.6-13.2 47.7 0 13.2 13.2 13.2 34.6 0 47.7l-63.7 63.6c-13.1 13.3-34.4 13.3-47.6 0.1zM62 512c0-18.6 15.1-33.8 33.8-33.8h90c18.6 0 33.8 15.1 33.8 33.8 0 18.6-15.1 33.8-33.8 33.8h-90C77.1 545.8 62 530.6 62 512z m131.8-318.2c13.2-13.2 34.5-13.2 47.7 0l63.7 63.6c13.2 13.2 13.2 34.6 0 47.7-13.2 13.2-34.6 13.2-47.7 0l-63.6-63.7c-13.3-13.1-13.3-34.4-0.1-47.6z" fill="#FFC303" p-id="4128"></path></svg>