<?xml version="1.0" encoding="UTF-8"?>
<svg width="20px" height="18px" viewBox="0 0 20 18" version="1.1" xmlns="http://www.w3.org/2000/svg" xmlns:xlink="http://www.w3.org/1999/xlink">
    <!-- Generator: Sketch 57.1 (83088) - https://sketch.com -->
    <title>DB357FB6-0B53-4131-9824-9D6665D6E483</title>
    <desc>Created with Sketch.</desc>
    <g id="页面1" stroke="none" stroke-width="1" fill="none" fill-rule="evenodd">
        <g id="v1.04-加入会员-有默认邀请码" transform="translate(-28.000000, -483.000000)" fill="#22AC38" fill-rule="nonzero">
            <g id="微信支付" transform="translate(28.000000, 483.000000)">
                <path d="M7.27777778,11.1416667 C7.18888889,11.1861111 7.08611111,11.2138889 6.97777778,11.2138889 C6.72777778,11.2138889 6.51111111,11.0777778 6.39722222,10.8722222 L6.35277778,10.7777778 L4.53611111,6.79166667 C4.51666667,6.74722222 4.50555556,6.7 4.50555556,6.65277778 C4.50555556,6.46944444 4.65555556,6.31944444 4.83888889,6.31944444 C4.91388889,6.31944444 4.98333333,6.34444444 5.03888889,6.38611111 L7.18333333,7.91388889 C7.33888889,8.01666667 7.52777778,8.07777778 7.72777778,8.07777778 C7.84722222,8.07777778 7.96111111,8.05555556 8.06944444,8.01666667 L18.1527778,3.52777778 C16.3472222,1.39166667 13.3694444,0 10,0 C4.48611111,0 0.0194444444,3.72222222 0.0194444444,8.31666667 C0.0194444444,10.8222222 1.36388889,13.0805556 3.46944444,14.6027778 C3.63888889,14.7222222 3.75,14.9222222 3.75,15.1444444 C3.75,15.2194444 3.73333333,15.2861111 3.71388889,15.3555556 C3.54722222,15.9833333 3.27777778,16.9861111 3.26388889,17.0333333 C3.24166667,17.1111111 3.21111111,17.1944444 3.21111111,17.2777778 C3.21111111,17.4611111 3.36111111,17.6111111 3.54444444,17.6111111 C3.61666667,17.6111111 3.675,17.5833333 3.73611111,17.55 L5.92222222,16.2888889 C6.08611111,16.1944444 6.26111111,16.1361111 6.45277778,16.1361111 C6.55555556,16.1361111 6.65277778,16.1527778 6.74722222,16.1805556 C7.76111111,16.4722222 8.86111111,16.6361111 10,16.6361111 C15.5138889,16.6361111 19.9805556,12.9111111 19.9805556,8.31666667 C19.9805556,6.925 19.5694444,5.61388889 18.8444444,4.46111111 L7.35277778,11.0972222 L7.27777778,11.1416667 Z" id="XMLID_81_"></path>
            </g>
        </g>
    </g>
</svg>