<?xml version="1.0" encoding="utf-8"?>
<!-- Generator: Adobe Illustrator 23.0.1, SVG Export Plug-In . SVG Version: 6.00 Build 0)  -->
<svg version="1.1" id="图层_1" xmlns="http://www.w3.org/2000/svg" xmlns:xlink="http://www.w3.org/1999/xlink" x="0px" y="0px"
	 viewBox="0 0 1024 1024" style="enable-background:new 0 0 1024 1024;" xml:space="preserve">
<style type="text/css">
	.st0{fill-rule:evenodd;clip-rule:evenodd;fill:#FBDF66;}
	.st1{fill:#F9CA01;}
</style>
<g>
	<circle class="st0" cx="512" cy="512" r="415.4"/>
	<path class="st1" d="M512,962C263.9,962,62,760.1,62,512S263.9,62,512,62s450,201.9,450,450S760.1,962,512,962z M512,131.2
		C302,131.2,131.2,302,131.2,512S302,892.8,512,892.8S892.8,722,892.8,512S722,131.2,512,131.2z"/>
	<polygon class="st1" points="385.5,338.9 437.8,338.9 514.5,474 596.7,338.9 655.4,338.9 566.9,477.4 655.4,477.4 655.4,519.6 
		539.8,519.6 539.8,566.6 655.4,566.6 655.4,606 539.8,606 539.8,698.7 491.1,698.7 491.1,606 373.5,606 373.5,566.6 491.1,566.6 
		491.1,519.6 373.5,519.6 373.5,477.4 464.3,477.4 	"/>
</g>
</svg>
