<?xml version="1.0" standalone="no"?><!DOCTYPE svg PUBLIC "-//W3C//DTD SVG 1.1//EN" "http://www.w3.org/Graphics/SVG/1.1/DTD/svg11.dtd"><svg t="1559804906023" class="icon" style="" viewBox="0 0 1024 1024" version="1.1" xmlns="http://www.w3.org/2000/svg" p-id="3653" xmlns:xlink="http://www.w3.org/1999/xlink" width="200" height="200"><defs><style type="text/css"></style></defs><path d="M512 512m-460 0a460 460 0 1 0 920 0 460 460 0 1 0-920 0Z" fill="#FFEB0A" p-id="3654"></path><path d="M452 489H319c-20.4 0-37-16.6-37-37V319c0-20.4 16.6-37 37-37h133c20.4 0 37 16.6 37 37v133c0 20.4-16.6 37-37 37zM319 318.2c-0.4 0-0.8 0.4-0.8 0.8v133c0 0.4 0.4 0.8 0.8 0.8h133c0.4 0 0.8-0.4 0.8-0.8V319c0-0.4-0.4-0.8-0.8-0.8H319zM452 742H319c-20.4 0-37-16.6-37-37V572c0-20.4 16.6-37 37-37h133c20.4 0 37 16.6 37 37v133c0 20.4-16.6 37-37 37zM319 571.2c-0.4 0-0.8 0.4-0.8 0.8v133c0 0.4 0.4 0.8 0.8 0.8h133c0.4 0 0.8-0.4 0.8-0.8V572c0-0.4-0.4-0.8-0.8-0.8H319zM705 489H572c-20.4 0-37-16.6-37-37V319c0-20.4 16.6-37 37-37h133c20.4 0 37 16.6 37 37v133c0 20.4-16.6 37-37 37zM572 318.2c-0.4 0-0.8 0.4-0.8 0.8v133c0 0.4 0.4 0.8 0.8 0.8h133c0.4 0 0.8-0.4 0.8-0.8V319c0-0.4-0.4-0.8-0.8-0.8H572zM558 742c-12.7 0-23-8-23-17.7V575.7c0-9.8 10.3-17.7 23-17.7s23 8 23 17.7v148.5c0 9.8-10.3 17.8-23 17.8zM650 742c-12.7 0-23-8.5-23-18.9V622.9c0-10.4 10.3-18.9 23-18.9s23 8.5 23 18.9v100.2c0 10.4-10.3 18.9-23 18.9zM719 742c-12.7 0-23-8.1-23-18V553c0-9.9 10.3-18 23-18s23 8.1 23 18v171c0 9.9-10.3 18-23 18z" fill="#292928" p-id="3655"></path></svg>